<svg id="visual" viewBox="0 0 1920 1080" width="1920" height="1080" xmlns="http://www.w3.org/2000/svg" xmlns:xlink="http://www.w3.org/1999/xlink" version="1.1"><rect x="0" y="0" width="1920" height="1080" fill="#001220"></rect><defs><linearGradient id="grad1_0" x1="43.8%" y1="0%" x2="100%" y2="100%"><stop offset="14.444444444444446%" stop-color="#001220" stop-opacity="1"></stop><stop offset="85.55555555555554%" stop-color="#001220" stop-opacity="1"></stop></linearGradient></defs><defs><linearGradient id="grad2_0" x1="0%" y1="0%" x2="56.3%" y2="100%"><stop offset="14.444444444444446%" stop-color="#001220" stop-opacity="1"></stop><stop offset="85.55555555555554%" stop-color="#001220" stop-opacity="1"></stop></linearGradient></defs><g transform="translate(1920, 0)"><path d="M0 460C-84 458.2 -168 456.4 -243 420.9C-318 385.4 -384.1 316.3 -416.6 240.5C-449.1 164.7 -448 82.4 -447 0L0 0Z" fill="#add833"></path></g><g transform="translate(0, 1080)"><path d="M0 -463C77.3 -444.5 154.7 -426 225 -389.7C295.3 -353.4 358.6 -299.4 401 -231.5C443.3 -163.6 464.7 -81.8 486 0L0 0Z" fill="#add833"></path></g></svg>