<svg id="visual" viewBox="0 0 960 540" width="960" height="540" xmlns="http://www.w3.org/2000/svg" xmlns:xlink="http://www.w3.org/1999/xlink" version="1.1"><rect x="0" y="0" width="960" height="540" fill="#001220"></rect><defs><linearGradient id="grad1_0" x1="43.8%" y1="0%" x2="100%" y2="100%"><stop offset="14.444444444444446%" stop-color="#001220" stop-opacity="1"></stop><stop offset="85.55555555555554%" stop-color="#001220" stop-opacity="1"></stop></linearGradient></defs><defs><linearGradient id="grad2_0" x1="0%" y1="0%" x2="56.3%" y2="100%"><stop offset="14.444444444444446%" stop-color="#001220" stop-opacity="1"></stop><stop offset="85.55555555555554%" stop-color="#001220" stop-opacity="1"></stop></linearGradient></defs><g transform="translate(960, 0)"><path d="M0 189C-33 184 -66 179.1 -94.5 163.7C-123 148.3 -147 122.5 -161.9 93.5C-176.9 64.5 -183 32.2 -189 0L0 0Z" fill="#add833"></path></g><g transform="translate(0, 540)"><path d="M0 -189C33 -184 66 -179.1 94.5 -163.7C123 -148.3 147 -122.5 161.9 -93.5C176.9 -64.5 183 -32.2 189 0L0 0Z" fill="#add833"></path></g></svg>