<svg id="visual" viewBox="0 0 450 900" width="450" height="900" xmlns="http://www.w3.org/2000/svg" xmlns:xlink="http://www.w3.org/1999/xlink" version="1.1"><rect x="0" y="0" width="450" height="900" fill="#001220"></rect><defs><linearGradient id="grad1_0" x1="0%" y1="0%" x2="100%" y2="100%"><stop offset="30%" stop-color="#001220" stop-opacity="1"></stop><stop offset="70%" stop-color="#001220" stop-opacity="1"></stop></linearGradient></defs><defs><linearGradient id="grad2_0" x1="0%" y1="0%" x2="100%" y2="100%"><stop offset="30%" stop-color="#001220" stop-opacity="1"></stop><stop offset="70%" stop-color="#001220" stop-opacity="1"></stop></linearGradient></defs><g transform="translate(450, 0)"><path d="M0 157.5C-25.6 150.2 -51.2 143 -75.5 130.8C-99.8 118.6 -122.9 101.4 -136.4 78.8C-149.9 56.1 -153.7 28.1 -157.5 0L0 0Z" fill="#add833"></path></g><g transform="translate(0, 900)"><path d="M0 -157.5C26.6 -152.1 53.3 -146.7 77.5 -134.2C101.7 -121.8 123.5 -102.3 136.4 -78.8C149.3 -55.2 153.4 -27.6 157.5 0L0 0Z" fill="#add833"></path></g></svg>