<?xml version="1.0" encoding="utf-8"?>
<!-- Generator: Adobe Illustrator 27.5.0, SVG Export Plug-In . SVG Version: 6.00 Build 0)  -->
<svg version="1.1" xmlns="http://www.w3.org/2000/svg" xmlns:xlink="http://www.w3.org/1999/xlink" x="0px" y="0px"
	 viewBox="0 0 500 500" style="enable-background:new 0 0 500 500;" xml:space="preserve">
<g id="Floor">
	<ellipse id="Floor_6_" style="fill:#F0F0F0;" cx="250" cy="344.964" rx="239.802" ry="139.949"/>
</g>
<g id="Shadows">
	<path id="Shadow_17_" style="fill:#E0E0E0;" d="M256.913,374.389l-87.449,50.489c-2.505,1.446-6.882,1.265-9.775-0.405
		l-59.43-34.312c-13.957-8.058-15.473-20.248-3.386-27.226l52.75-30.455c12.087-6.979,33.2-6.103,47.157,1.955l59.43,34.312
		C259.104,370.416,259.418,372.942,256.913,374.389z"/>
	<path id="Shadow_18_" style="fill:#E0E0E0;" d="M331.121,425.849c-4.194-0.291-8.153-0.025-12.516,2.381
		c-5.424,2.992-9.534,8.066-15.135,10.711c-2.478,1.171-5.183,1.831-7.601,3.121c-7.325,3.91-10.555,12.619-16.541,18.374
		c-7.86,7.557-19.56,9.26-30.45,9.796c-7.743,0.382-15.962-3.548-21.467-8.811c-3.337-3.19-6.048-7.146-10.036-9.47
		c-5.835-3.399-13.085-2.613-19.758-3.652c-6.673-1.038-14.103-5.772-13.407-12.49c0.34-3.285,2.587-6.023,4.844-8.434
		c10.863-11.601,24.178-20.638,37.941-28.585c4.782-2.761,9.634-5.399,14.551-7.911c25.218-12.883,52.145-22.459,79.881-28.202
		c27.178-5.627,56.174-11.56,83.677-7.64c7.756,1.105,21.666,4.272,27.824,9.339c7.428,6.111,8.088,14.055,3.864,22.23
		c-7.354,14.231-25.081,24.408-39.796,30.815c-12.98,5.651-27.035,9.239-41.222,9.642c-5.773,0.164-11.886,0.028-17.631-0.513
		C335.67,426.32,333.362,426.005,331.121,425.849z"/>
	<polygon id="Shadow_35_" style="fill:#E0E0E0;" points="10.854,335.963 63.914,366.597 258.604,254.192 205.405,223.639 	"/>
	<path id="Shadow_55_" style="fill:#E0E0E0;" d="M250.591,222.647c-9.252,5.341-9.252,14.002,0,19.343
		c9.252,5.341,24.252,5.341,33.503,0c9.252-5.342,9.251-14.002,0-19.343C274.842,217.305,259.843,217.305,250.591,222.647z"/>
</g>
<g id="Pictures">
	<g id="Pictures_2_">
		<g id="Picture_10_">
			<g id="Frame_8_">
				<polygon id="XMLID_3657_" style="fill:#FAFAFA;" points="413.24,114.966 411.199,116.182 369.345,92.017 371.384,90.8 				"/>
				<g id="XMLID_1171_">
					<g id="XMLID_1173_">
						<g id="XMLID_3655_">
							<polygon id="XMLID_5208_" style="fill:#FFFFFF;" points="371.384,90.8 411.199,113.783 411.199,72.088 371.384,49.12 							
								"/>
						</g>
					</g>
				</g>
				<path id="XMLID_1165_" style="fill:#F0F0F0;" d="M365.495,94.238l49.553,28.61l0-52.981l-49.553-28.61L365.495,94.238z
					 M369.345,47.924l41.854,24.165l0.001,44.093l-41.854-24.165L369.345,47.924z"/>
				<polygon id="XMLID_1163_" style="fill:#E0E0E0;" points="369.345,92.017 371.384,90.8 371.384,49.12 369.345,47.924 				"/>
				<polygon id="XMLID_1162_" style="fill:#FAFAFA;" points="365.495,41.257 367.566,40.071 417.119,68.681 415.048,69.867 				"/>
				<polygon id="XMLID_1159_" style="fill:#E0E0E0;" points="417.119,68.681 415.048,69.867 415.048,122.848 417.119,121.662 				
					"/>
			</g>
			<g id="Land_12_">
				<polygon style="fill:#F0F0F0;" points="372.938,89.554 409.644,110.746 409.644,100.15 400.467,78.958 394.75,84.256 
					396.807,93.138 384.132,66.032 372.938,78.958 				"/>
				<path style="fill:#F0F0F0;" d="M395.096,68.725c1.5,0.866,2.715,2.971,2.715,4.702c0,1.731-1.216,2.433-2.715,1.568
					c-1.499-0.866-2.715-2.971-2.715-4.702C392.381,68.561,393.597,67.859,395.096,68.725z"/>
			</g>
		</g>
		<g id="Picture_9_">
			<g id="Frame_7_">
				<polygon id="XMLID_1158_" style="fill:#FAFAFA;" points="474.565,164.047 472.525,165.262 430.671,141.098 432.71,139.881 				
					"/>
				<g id="XMLID_1160_">
					<g id="XMLID_1164_">
						<g id="XMLID_1169_">
							<polygon id="XMLID_1153_" style="fill:#FFFFFF;" points="432.71,139.881 472.525,162.863 472.524,121.169 432.709,98.201 
															"/>
						</g>
					</g>
				</g>
				<path id="XMLID_1155_" style="fill:#F0F0F0;" d="M426.821,143.318l49.553,28.61l0-52.981L426.82,90.338L426.821,143.318z
					 M430.67,97.004l41.854,24.165l0.001,44.093l-41.854-24.165L430.67,97.004z"/>
				<polygon id="XMLID_1154_" style="fill:#E0E0E0;" points="430.671,141.098 432.71,139.881 432.709,98.201 430.67,97.004 				"/>
				<polygon id="XMLID_1152_" style="fill:#FAFAFA;" points="426.82,90.338 428.892,89.152 478.445,117.762 476.374,118.947 				"/>
				<polygon id="XMLID_1150_" style="fill:#E0E0E0;" points="478.445,117.762 476.374,118.947 476.374,171.928 478.445,170.743 				
					"/>
			</g>
			<g id="Land_11_">
				<polygon style="fill:#F0F0F0;" points="434.264,138.635 470.97,159.827 470.97,149.231 461.793,128.038 456.076,133.336 
					458.133,142.219 445.457,115.113 434.264,128.039 				"/>
				<path style="fill:#F0F0F0;" d="M456.422,117.806c1.499,0.866,2.715,2.971,2.715,4.702c0,1.731-1.216,2.433-2.715,1.568
					c-1.499-0.866-2.715-2.971-2.715-4.702C453.707,117.642,454.922,116.94,456.422,117.806z"/>
			</g>
		</g>
	</g>
</g>
<g id="Plants">
	<g id="Plant_3_">
		<g id="Pot_1_">
			<g id="XMLID_1070_">
				<g id="XMLID_1148_">
					<path id="XMLID_1149_" style="fill:#F0F0F0;" d="M282.078,233.512c8.057-8.221,12.79-28.75,4.931-35.271h-39.986
						c-7.857,6.519-3.129,27.036,4.923,35.263c0.069,0.077,0.148,0.151,0.221,0.226c0.092,0.091,0.184,0.183,0.277,0.271
						c0.227,0.22,0.469,0.436,0.728,0.648c0.064,0.053,0.129,0.1,0.193,0.151c0.197,0.155,0.392,0.31,0.608,0.459
						c0.343,0.244,0.69,0.471,1.041,0.666c6.628,3.826,17.373,3.826,24.001,0h0h0.001c0.354-0.196,0.703-0.425,1.049-0.671
						c0.2-0.139,0.381-0.284,0.565-0.428c0.079-0.063,0.159-0.121,0.238-0.187c0.25-0.205,0.483-0.413,0.702-0.625
						c0.108-0.101,0.214-0.207,0.32-0.313C281.953,233.639,282.02,233.576,282.078,233.512z"/>
				</g>
				<g id="XMLID_1142_">
					<path id="XMLID_1144_" style="fill:#FAFAFA;" d="M250.495,195.615c-9.123,5.268-9.123,13.808,0,19.076
						c9.124,5.267,23.916,5.268,33.039,0c9.124-5.267,9.124-13.808,0-19.075C274.411,190.347,259.619,190.347,250.495,195.615z"/>
				</g>
				<g id="XMLID_1106_">
					<path id="XMLID_1141_" style="fill:#E0E0E0;" d="M254.716,198.052c-6.792,3.921-6.792,10.279,0.001,14.201
						c6.792,3.921,17.805,3.921,24.597,0c6.792-3.922,6.792-10.279,0-14.201C272.521,194.13,261.508,194.13,254.716,198.052z"/>
				</g>
				<g id="XMLID_1073_">
					<path id="XMLID_1105_" style="fill:#455A64;" d="M279.313,204.792c-6.792-3.922-17.804-3.922-24.596,0
						c-1.887,1.089-3.23,2.37-4.069,3.73c0.839,1.361,2.182,2.642,4.069,3.731c6.792,3.921,17.804,3.921,24.596,0
						c1.887-1.089,3.23-2.37,4.068-3.731C282.543,207.161,281.2,205.881,279.313,204.792z"/>
				</g>
			</g>
		</g>
		<g id="Cactus">
			<g id="XMLID_888_">
				<path style="fill:#BA68C8;" d="M279.842,159.775v46.076c0,1.904-1.253,3.796-3.759,5.242c-0.061,0.036-0.121,0.072-0.181,0.097
					c-1.651,0.928-3.639,1.542-5.736,1.843c-2.06,0.301-4.241,0.301-6.302,0c-2.097-0.301-4.085-0.916-5.736-1.843
					c-0.06-0.024-0.121-0.06-0.181-0.097c-2.506-1.446-3.759-3.338-3.759-5.242v-46.076c0-7.085,5.748-12.833,12.821-12.833
					C274.094,146.942,279.842,152.69,279.842,159.775z"/>
				<path style="opacity:0.1;" d="M267.009,146.942c0,0,0,0-0.012,0.012c-0.265,0.048-8.869,2.205-8.869,12.737v51.498
					c-0.06-0.024-0.121-0.06-0.181-0.097c-2.506-1.446-3.759-3.338-3.759-5.242v-46.076
					C254.188,152.69,259.936,146.942,267.009,146.942z"/>
				<path style="opacity:0.1;" d="M279.842,159.775v46.076c0,1.904-1.253,3.796-3.759,5.242c-0.061,0.036-0.121,0.072-0.181,0.097
					v-51.498c0-10.531-8.616-12.688-8.881-12.737c-0.012-0.012-0.012-0.012-0.012-0.012
					C274.094,146.942,279.842,152.69,279.842,159.775z"/>
				<path style="opacity:0.1;" d="M270.166,157.221v55.812c-2.06,0.301-4.241,0.301-6.302,0v-55.812
					c0-5.892,2.952-10.014,3.133-10.267c0.012-0.012-0.05,2.007-0.05,2.007s0.062-2.019,0.074-2.007
					C267.202,147.207,270.166,151.329,270.166,157.221z"/>
			</g>
			<path style="opacity:0.4;fill:#FFFFFF;" d="M258.129,173.575c-0.237,0-0.429,0.192-0.429,0.429v3.263
				c0,0.237,0.191,0.429,0.429,0.429s0.429-0.191,0.429-0.429v-3.263C258.557,173.766,258.366,173.575,258.129,173.575z
				 M258.129,160.525c-0.237,0-0.429,0.192-0.429,0.429v3.262c0,0.237,0.191,0.429,0.429,0.429s0.429-0.192,0.429-0.429v-3.262
				C258.557,160.716,258.366,160.525,258.129,160.525z M258.129,167.049c-0.237,0-0.429,0.192-0.429,0.429v3.263
				c0,0.237,0.191,0.429,0.429,0.429s0.429-0.192,0.429-0.429v-3.263C258.557,167.241,258.366,167.049,258.129,167.049z
				 M262.373,148.908c-0.879,0.719-1.65,1.55-2.29,2.47c-0.136,0.195-0.088,0.462,0.105,0.597c0.076,0.053,0.162,0.078,0.246,0.078
				c0.136,0,0.269-0.063,0.351-0.183c0.597-0.856,1.314-1.629,2.131-2.298c0.183-0.15,0.211-0.42,0.06-0.604
				C262.828,148.785,262.556,148.756,262.373,148.908z M259.098,154.117c-0.224-0.083-0.47,0.038-0.548,0.261
				c-0.357,1.015-0.607,2.115-0.739,3.269c-0.026,0.236,0.142,0.448,0.379,0.474c0.015,0.002,0.032,0.003,0.047,0.003
				c0.216,0,0.401-0.161,0.427-0.38c0.123-1.09,0.357-2.127,0.695-3.08C259.439,154.441,259.322,154.196,259.098,154.117z
				 M258.129,186.625c-0.237,0-0.429,0.192-0.429,0.429v3.262c0,0.237,0.191,0.429,0.429,0.429s0.429-0.192,0.429-0.429v-3.262
				C258.557,186.817,258.366,186.625,258.129,186.625z M258.129,180.1c-0.237,0-0.429,0.192-0.429,0.429v3.262
				c0,0.237,0.191,0.429,0.429,0.429s0.429-0.192,0.429-0.429v-3.262C258.557,180.292,258.366,180.1,258.129,180.1z
				 M263.864,163.649c-0.237,0-0.429,0.192-0.429,0.429v3.43c0,0.237,0.192,0.429,0.429,0.429c0.237,0,0.429-0.192,0.429-0.429
				v-3.43C264.293,163.84,264.101,163.649,263.864,163.649z M270.166,186.449c-0.237,0-0.429,0.192-0.429,0.429v3.43
				c0,0.237,0.192,0.429,0.429,0.429s0.429-0.192,0.429-0.429v-3.43C270.595,186.64,270.403,186.449,270.166,186.449z
				 M263.864,156.791c-0.237,0-0.429,0.193-0.429,0.43v3.428c0,0.237,0.192,0.429,0.429,0.429c0.237,0,0.429-0.191,0.429-0.429
				v-3.43C264.293,156.982,264.101,156.791,263.864,156.791z M270.114,156.442c0.011,0,0.022,0,0.033-0.001
				c0.237-0.018,0.414-0.225,0.394-0.461c-0.088-1.148-0.289-2.309-0.595-3.453c-0.062-0.228-0.302-0.367-0.524-0.303
				c-0.23,0.06-0.366,0.295-0.304,0.525c0.291,1.092,0.482,2.202,0.569,3.297C269.704,156.272,269.892,156.442,270.114,156.442z
				 M270.166,179.59c-0.237,0-0.429,0.192-0.429,0.429v3.43c0,0.237,0.192,0.429,0.429,0.429s0.429-0.192,0.429-0.429v-3.43
				C270.595,179.782,270.403,179.59,270.166,179.59z M263.864,184.226c-0.237,0-0.429,0.192-0.429,0.429v3.429
				c0,0.237,0.192,0.429,0.429,0.429c0.237,0,0.429-0.192,0.429-0.429v-3.429C264.293,184.418,264.101,184.226,263.864,184.226z
				 M263.864,170.508c-0.237,0-0.429,0.191-0.429,0.429v3.43c0,0.237,0.192,0.429,0.429,0.429c0.237,0,0.429-0.192,0.429-0.429
				v-3.43C264.293,170.699,264.101,170.508,263.864,170.508z M263.864,177.367c-0.237,0-0.429,0.192-0.429,0.429v3.429
				c0,0.237,0.192,0.429,0.429,0.429c0.237,0,0.429-0.192,0.429-0.429v-3.429C264.293,177.559,264.101,177.367,263.864,177.367z
				 M265.299,150.118c-0.224-0.082-0.47,0.025-0.556,0.245c-0.424,1.1-0.752,2.233-0.968,3.366c-0.045,0.233,0.108,0.458,0.34,0.502
				c0.026,0.005,0.054,0.007,0.08,0.007c0.202,0,0.382-0.143,0.42-0.348c0.209-1.084,0.519-2.166,0.929-3.218
				C265.628,150.452,265.518,150.204,265.299,150.118z M270.166,159.014c-0.237,0-0.429,0.192-0.429,0.428v3.429
				c0,0.237,0.192,0.429,0.429,0.429s0.429-0.192,0.429-0.429v-3.429C270.595,159.205,270.403,159.014,270.166,159.014z
				 M270.166,172.731c-0.237,0-0.429,0.192-0.429,0.429v3.429c0,0.237,0.192,0.429,0.429,0.429s0.429-0.192,0.429-0.429v-3.429
				C270.595,172.923,270.403,172.731,270.166,172.731z M270.166,165.872c-0.237,0-0.429,0.192-0.429,0.429v3.429
				c0,0.237,0.192,0.429,0.429,0.429s0.429-0.192,0.429-0.429v-3.429C270.595,166.064,270.403,165.872,270.166,165.872z
				 M258.129,206.474c-0.237,0-0.429,0.192-0.429,0.429v3.262c0,0.237,0.191,0.429,0.429,0.429s0.429-0.192,0.429-0.429v-3.262
				C258.557,206.665,258.366,206.474,258.129,206.474z M258.129,193.423c-0.237,0-0.429,0.192-0.429,0.428v3.263
				c0,0.237,0.191,0.429,0.429,0.429s0.429-0.192,0.429-0.429v-3.263C258.557,193.615,258.366,193.423,258.129,193.423z
				 M258.129,199.949c-0.237,0-0.429,0.192-0.429,0.429v3.262c0,0.237,0.191,0.429,0.429,0.429s0.429-0.192,0.429-0.429v-3.262
				C258.557,200.141,258.366,199.949,258.129,199.949z M263.864,190.356c-0.237,0-0.429,0.192-0.429,0.429v3.43
				c0,0.237,0.192,0.429,0.429,0.429c0.237,0,0.429-0.192,0.429-0.429v-3.43C264.293,190.548,264.101,190.356,263.864,190.356z
				 M263.864,204.075c-0.237,0-0.429,0.191-0.429,0.429v3.429c0,0.237,0.192,0.429,0.429,0.429c0.237,0,0.429-0.192,0.429-0.429
				v-3.429C264.293,204.266,264.101,204.075,263.864,204.075z M263.864,197.216c-0.237,0-0.429,0.192-0.429,0.429v3.429
				c0,0.237,0.192,0.429,0.429,0.429c0.237,0,0.429-0.192,0.429-0.429v-3.429C264.293,197.408,264.101,197.216,263.864,197.216z
				 M275.901,167.044c-0.237,0-0.429,0.192-0.429,0.429v3.263c0,0.237,0.192,0.429,0.429,0.429c0.237,0,0.429-0.192,0.429-0.429
				v-3.263C276.33,167.236,276.138,167.044,275.901,167.044z M275.901,199.946c-0.237,0-0.429,0.191-0.429,0.429v3.263
				c0,0.237,0.192,0.429,0.429,0.429c0.237,0,0.429-0.192,0.429-0.429v-3.263C276.33,200.137,276.138,199.946,275.901,199.946z
				 M275.901,193.42c-0.237,0-0.429,0.192-0.429,0.429v3.263c0,0.237,0.192,0.429,0.429,0.429c0.237,0,0.429-0.192,0.429-0.429
				v-3.263C276.33,193.611,276.138,193.42,275.901,193.42z M275.901,180.097c-0.237,0-0.429,0.191-0.429,0.429v3.263
				c0,0.237,0.192,0.429,0.429,0.429c0.237,0,0.429-0.192,0.429-0.429v-3.263C276.33,180.289,276.138,180.097,275.901,180.097z
				 M268.789,147.133c-0.769-0.347-1.366-0.523-1.603-0.581c-0.018-0.008-0.038-0.002-0.057-0.007
				c-0.017-0.005-0.034-0.004-0.052-0.007c-0.056-0.008-0.11-0.013-0.165,0.001c-0.011,0.002-0.021-0.002-0.032,0
				c-0.192,0.043-0.819,0.218-1.65,0.595c-0.216,0.097-0.312,0.351-0.214,0.567c0.071,0.158,0.226,0.252,0.39,0.252
				c0.06,0,0.118-0.012,0.177-0.039c0.269-0.122,0.497-0.212,0.703-0.288c0.033,0.072,0.08,0.139,0.152,0.185
				c0.185,0.116,0.427,0.073,0.558-0.09c0.351,0.579,0.681,1.206,0.985,1.87c0.073,0.157,0.228,0.25,0.39,0.25
				c0.06,0,0.121-0.013,0.179-0.039c0.216-0.099,0.31-0.353,0.211-0.569c-0.241-0.525-0.504-1.023-0.78-1.51
				c0.144,0.058,0.288,0.115,0.455,0.19c0.058,0.026,0.116,0.038,0.176,0.038c0.164,0,0.319-0.094,0.39-0.252
				C269.102,147.486,269.004,147.232,268.789,147.133z M275.901,160.518c-0.237,0-0.429,0.192-0.429,0.429v3.263
				c0,0.237,0.192,0.429,0.429,0.429c0.237,0,0.429-0.192,0.429-0.429v-3.263C276.33,160.71,276.138,160.518,275.901,160.518z
				 M275.901,173.571c-0.237,0-0.429,0.192-0.429,0.429v3.263c0,0.237,0.192,0.429,0.429,0.429c0.237,0,0.429-0.192,0.429-0.429V174
				C276.33,173.763,276.138,173.571,275.901,173.571z M275.901,186.623c-0.237,0-0.429,0.192-0.429,0.429v3.263
				c0,0.237,0.192,0.429,0.429,0.429c0.237,0,0.429-0.192,0.429-0.429v-3.263C276.33,186.815,276.138,186.623,275.901,186.623z
				 M270.166,199.438c-0.237,0-0.429,0.192-0.429,0.429v3.43c0,0.237,0.192,0.429,0.429,0.429s0.429-0.192,0.429-0.429v-3.43
				C270.595,199.63,270.403,199.438,270.166,199.438z M270.166,192.579c-0.237,0-0.429,0.192-0.429,0.429v3.429
				c0,0.237,0.192,0.429,0.429,0.429s0.429-0.192,0.429-0.429v-3.429C270.595,192.771,270.403,192.579,270.166,192.579z
				 M270.166,206.297c-0.237,0-0.429,0.192-0.429,0.429v3.43c0,0.237,0.192,0.429,0.429,0.429s0.429-0.192,0.429-0.429v-3.43
				C270.595,206.489,270.403,206.297,270.166,206.297z M275.791,158.118c0.015,0,0.032-0.001,0.049-0.003
				c0.235-0.027,0.403-0.24,0.377-0.475c-0.136-1.159-0.386-2.259-0.743-3.269c-0.077-0.223-0.321-0.338-0.547-0.26
				c-0.224,0.078-0.34,0.324-0.263,0.547c0.339,0.949,0.573,1.985,0.7,3.081C275.39,157.958,275.576,158.118,275.791,158.118z
				 M271.646,148.904c-0.181-0.149-0.452-0.123-0.603,0.061c-0.151,0.183-0.123,0.453,0.06,0.603
				c0.821,0.671,1.538,1.445,2.135,2.297c0.084,0.12,0.215,0.183,0.351,0.183c0.086,0,0.17-0.025,0.246-0.078
				c0.194-0.136,0.241-0.403,0.105-0.597C273.301,150.457,272.527,149.626,271.646,148.904z M275.901,206.471
				c-0.237,0-0.429,0.192-0.429,0.429v3.263c0,0.237,0.192,0.429,0.429,0.429c0.237,0,0.429-0.192,0.429-0.429V206.9
				C276.33,206.663,276.138,206.471,275.901,206.471z"/>
			<path style="fill:#455A64;" d="M286.307,150.091c0.11-0.411,0.059-0.925-0.27-1.195c-0.218-0.179-0.538-0.307-1.075-0.376
				c-0.537-0.068-1.956-0.016-3.078,0.228c1.384-1.232,2.068-3.203,1.745-5.027c-0.025-0.141-0.06-0.29-0.164-0.39
				c-0.099-0.104-0.249-0.139-0.39-0.164c-1.824-0.323-3.795,0.361-5.027,1.745c0.244-1.122,0.296-2.541,0.228-3.078
				c-0.069-0.536-0.197-0.857-0.376-1.075c-0.27-0.329-0.783-0.38-1.195-0.27s-0.755,0.389-1.061,0.686
				c-1.558,1.516-2.388,3.721-2.315,5.884c0.051,1.512,0.855,3.304,1.963,4.444c1.141,1.108,2.933,1.912,4.444,1.963
				c2.164,0.073,4.368-0.757,5.884-2.315C285.918,150.847,286.197,150.503,286.307,150.091z"/>
		</g>
	</g>
</g>
<g id="Bookshelves">
	<g id="Bookcase_2_">
		<g id="v">
			<g>
				<g>
					<g>
						<polygon style="fill:#37474F;" points="247.858,247.523 207.322,224.118 23.028,330.534 23.028,334.983 63.563,358.388 
							247.858,251.972 						"/>
					</g>
					<g>
						<polygon style="fill:#455A64;" points="63.563,353.939 247.858,247.523 207.322,224.118 23.028,330.534 						"/>
					</g>
					<g>
						<polygon style="fill:#E0E0E0;" points="63.563,353.939 63.563,358.388 23.028,334.983 23.028,330.534 						"/>
					</g>
				</g>
				<g>
					<g>
						<polygon style="fill:#37474F;" points="247.858,85.128 207.32,61.351 203.467,63.575 203.469,226.342 244.005,249.748 
							247.858,247.896 						"/>
					</g>
					<g>
						<polygon style="fill:#263238;" points="203.469,226.342 244.005,249.748 244.005,86.98 203.467,63.575 						"/>
					</g>
				</g>
			</g>
			<g>
				<g id="Books_7_">
					<g id="Book_53_">
						<g id="XMLID_4853_">
							<polygon id="XMLID_5254_" style="fill:#BA68C8;" points="207.063,183.427 233.844,199.085 233.978,250.417 207.197,234.763 
															"/>
							<path id="XMLID_5253_" style="fill:#F5F5F5;" d="M232.986,199.935l-25.919-15.054c-1.33,1.552-3.303,2.632-5.909,3.249
								l25.699,14.989C226.857,203.119,228.514,202.733,232.986,199.935z"/>
							<path id="XMLID_4865_" style="fill:#BA68C8;" d="M224.37,203.023c1.376,0.799,3.602,0.805,4.973,0.013l4.351-2.512
								c1.372-0.792,1.368-2.081-0.007-2.88l-25.544-14.837l-1.079,0.62l25.123,14.685c0.825,0.479,0.827,1.252,0.004,1.727
								l-4.044,2.307c-0.823,0.475-2.159,0.47-2.985-0.009l-25.114-14.656l-1.222,0.706L224.37,203.023z"/>
							<path id="XMLID_4863_" style="opacity:0.6;fill:#FFFFFF;" d="M224.37,203.023c1.376,0.799,3.602,0.805,4.973,0.013
								l4.351-2.512c1.372-0.792,1.368-2.081-0.007-2.88l-25.544-14.837l-1.079,0.62l25.123,14.685
								c0.825,0.479,0.827,1.252,0.004,1.727l-4.044,2.307c-0.823,0.475-2.159,0.47-2.985-0.009l-25.114-14.656l-1.222,0.706
								L224.37,203.023z"/>
							<path id="XMLID_4861_" style="fill:#BA68C8;" d="M198.828,188.185l0.133,51.333l25.542,14.836
								c1.375,0.798,3.603,0.804,4.974,0.013l4.352-2.512c0.682-0.396,1.025-0.913,1.024-1.437l-0.134-51.333
								c0.001,0.524-0.342,1.041-1.024,1.437l-4.352,2.517c-1.37,0.791-3.598,0.786-4.973-0.013L198.828,188.185z"/>
							<path id="XMLID_4860_" style="opacity:0.4;fill:#FFFFFF;" d="M198.828,188.185l0.133,51.333l25.542,14.836
								c1.375,0.798,3.603,0.804,4.974,0.013l4.352-2.512c0.682-0.396,1.025-0.913,1.024-1.437l-0.134-51.333
								c0.001,0.524-0.342,1.041-1.024,1.437l-4.352,2.517c-1.37,0.791-3.598,0.786-4.973-0.013L198.828,188.185z"/>
							<path id="XMLID_4855_" style="fill:#BA68C8;" d="M226.858,203.629c0.9,0.002,1.799-0.194,2.485-0.59l4.352-2.517
								c0.682-0.396,1.025-0.913,1.024-1.437l0.134,51.333c0.001,0.524-0.342,1.042-1.024,1.437l-4.352,2.512
								c-0.686,0.396-1.585,0.592-2.485,0.59L226.858,203.629z"/>
							<path id="XMLID_4854_" style="opacity:0.7;fill:#FFFFFF;" d="M226.858,203.629c0.9,0.002,1.799-0.194,2.485-0.59l4.352-2.517
								c0.682-0.396,1.025-0.913,1.024-1.437l0.134,51.333c0.001,0.524-0.342,1.042-1.024,1.437l-4.352,2.512
								c-0.686,0.396-1.585,0.592-2.485,0.59L226.858,203.629z"/>
							<g>
								<path style="fill:#BA68C8;" d="M226.943,248.208c3.45-1.057,6.075-2.586,7.91-4.567v-2.388
									c-1.835,1.98-4.46,3.509-7.91,4.566V248.208z"/>
								<path style="fill:#BA68C8;" d="M226.943,214.061c3.45-1.057,6.075-2.586,7.91-4.566v-2.388
									c-1.835,1.98-4.46,3.509-7.91,4.566V214.061z"/>
							</g>
						</g>
					</g>
					<g id="Book_44_">
						<g id="XMLID_4810_">
							<polygon id="XMLID_4852_" style="fill:#BA68C8;" points="200.09,201.798 224.893,216.299 218.089,259.891 193.286,245.392 
															"/>
							<polygon id="XMLID_4835_" style="opacity:0.35;" points="200.09,201.798 224.893,216.299 218.089,259.891 193.286,245.392 
															"/>
							<path id="XMLID_4834_" style="fill:#FFFFFF;" d="M223.915,216.982l-24.018-13.95c-1.546,1.258-3.675,2.086-6.378,2.493
								l23.806,13.885C217.325,219.41,219.042,219.156,223.915,216.982z"/>
							<path id="XMLID_4833_" style="fill:#BA68C8;" d="M214.838,219.216c1.274,0.74,3.512,0.846,4.997,0.235l4.713-1.937
								c1.486-0.61,1.657-1.705,0.382-2.446l-23.671-13.748l-1.169,0.478l23.268,13.6c0.765,0.444,0.662,1.101-0.229,1.466
								l-4.377,1.777c-0.891,0.366-2.234,0.302-2.999-0.142l-23.263-13.576l-1.323,0.544L214.838,219.216z"/>
							<path id="XMLID_4832_" style="opacity:0.2;" d="M214.838,219.216c1.274,0.74,3.512,0.846,4.997,0.235l4.713-1.937
								c1.486-0.61,1.657-1.705,0.382-2.446l-23.671-13.748l-1.169,0.478l23.268,13.6c0.765,0.444,0.662,1.101-0.229,1.466
								l-4.377,1.777c-0.891,0.366-2.234,0.302-2.999-0.142l-23.263-13.576l-1.323,0.544L214.838,219.216z"/>
							<path id="XMLID_4831_" style="fill:#BA68C8;" d="M191.169,205.466l-6.804,43.593l23.669,13.747
								c1.274,0.74,3.513,0.846,4.997,0.235l4.714-1.936c0.739-0.305,1.154-0.729,1.224-1.174l6.804-43.593
								c-0.07,0.445-0.484,0.869-1.224,1.175l-4.715,1.941c-1.485,0.61-3.723,0.505-4.997-0.235L191.169,205.466z"/>
							<path id="XMLID_4830_" style="opacity:0.3;" d="M191.169,205.466l-6.804,43.593l23.669,13.747
								c1.274,0.74,3.513,0.846,4.997,0.235l4.714-1.936c0.739-0.305,1.154-0.729,1.224-1.174l6.804-43.593
								c-0.07,0.445-0.484,0.869-1.224,1.175l-4.715,1.941c-1.485,0.61-3.723,0.505-4.997-0.235L191.169,205.466z"/>
							<path id="XMLID_4824_" style="fill:#BA68C8;" d="M217.257,219.842c0.904,0.042,1.835-0.084,2.578-0.389l4.715-1.941
								c0.74-0.306,1.154-0.729,1.224-1.175l-6.804,43.593c-0.069,0.445-0.484,0.869-1.224,1.174l-4.714,1.936
								c-0.742,0.305-1.673,0.431-2.577,0.389L217.257,219.842z"/>
							<path id="XMLID_4823_" style="opacity:0.1;" d="M217.257,219.842c0.904,0.042,1.835-0.084,2.578-0.389l4.715-1.941
								c0.74-0.306,1.154-0.729,1.224-1.175l-6.804,43.593c-0.069,0.445-0.484,0.869-1.224,1.174l-4.714,1.936
								c-0.742,0.305-1.673,0.431-2.577,0.389L217.257,219.842z"/>
						</g>
					</g>
				</g>
				<g id="Book_43_">
					<path id="XMLID_4805_" style="fill:#BA68C8;" d="M166.283,194.271l0.053,1.603l-0.911-0.961
						C165.553,194.536,165.857,194.341,166.283,194.271z"/>
					<path id="XMLID_4803_" style="opacity:0.5;" d="M166.283,194.271l0.053,1.603l-0.911-0.961
						C165.553,194.536,165.857,194.341,166.283,194.271z"/>
					<g id="XMLID_4764_">
						<path id="XMLID_4795_" style="fill:#BA68C8;" d="M201.351,217.28c0-0.917-0.644-2.032-1.438-2.491l-32.284-18.638l0.39,55.578
							l-0.001,1.304l31.891,18.864c0.794,0.456,1.441,0.082,1.438-0.83L201.351,217.28z"/>
						<path id="XMLID_4792_" style="fill:#BA68C8;" d="M165.189,224.161l-0.017-12.989l-7.288-4.208l0.003-9.791
							c0,0,4.258-2.458,4.899-2.829c0.641-0.37,1.97-0.179,1.971,0.17c0,0,0.449,0.507,1.309,1.116
							c0.859,0.609,2.669,1.161,2.669,1.161l0.393,29.643L165.189,224.161z"/>
						<path id="XMLID_4789_" style="opacity:0.15;" d="M165.189,224.161l-0.017-12.989l-7.288-4.208l0.003-9.791
							c0,0,4.258-2.458,4.899-2.829c0.641-0.37,1.97-0.179,1.971,0.17c0,0,0.449,0.507,1.309,1.116
							c0.859,0.609,2.669,1.161,2.669,1.161l0.393,29.643L165.189,224.161z"/>
						<path style="fill:#37474F;" d="M160.802,200.861l5.318-3.07c-0.038-0.017-0.072-0.037-0.103-0.055
							c-0.344-0.199-0.802-0.528-1.062-0.978c-0.178-0.309-0.309-0.591-0.269-0.893l-6.27,3.62L160.802,200.861z"/>
						<path style="fill:#E0E0E0;" d="M168.738,198.107c-0.323,0.172-0.712,0.218-1.11,0.172c-0.197-0.019-0.396-0.061-0.593-0.116
							c-0.059-0.016-0.12-0.035-0.181-0.053c-0.072-0.026-0.144-0.052-0.217-0.079c-0.057-0.024-0.114-0.048-0.171-0.073
							c-0.12-0.053-0.235-0.111-0.344-0.169l-5.296,3.058l1.58,0.908l-0.027,0.016L168.738,198.107z"/>
						<path style="opacity:0.4;" d="M162.786,194.345c0.641-0.37,1.97-0.179,1.971,0.17l0,0l-0.071,1.349l-4.043,2.334l-2.258-0.007
							l-0.499-0.425l0-0.592C157.886,197.173,162.144,194.715,162.786,194.345z"/>
					</g>
					<path id="XMLID_4760_" style="fill:#EBEBEB;" d="M193.858,219.946l6.068-3.504c-0.174-0.302-0.411-0.568-0.675-0.715
						l-3.54-2.047l-26.975-15.574l-6.359,3.665L193.858,219.946z"/>
					<path id="XMLID_434_" style="fill:#F5F5F5;" d="M194.667,273.991l4.583-2.646c0.527-0.304,0.959-1.052,0.959-1.659l0-48.217
						l0-4.084c0.004-0.303-0.108-0.641-0.282-0.943l-5.383,3.108L194.667,273.991z"/>
					<g id="XMLID_4701_">
						<path id="XMLID_4755_" style="fill:#BA68C8;" d="M160.133,256.282l0.003-55.804c0,0,0.249-0.144,0.561-0.324
							c0.312-0.18,0.175-0.682-0.447-1.039c-0.624-0.362-1.264-0.574-1.801-0.264l-0.563,0.255l0.003,56.855l-0.001,0.23
							c0.106-0.004,0.214-0.028,0.3-0.077l0.259-0.15C158.759,255.784,159.507,255.928,160.133,256.282z"/>
						<path id="XMLID_356_" style="opacity:0.1;" d="M160.133,256.282l0.003-55.804c0,0,0.249-0.144,0.561-0.324
							c0.312-0.18,0.175-0.682-0.447-1.039c-0.624-0.362-1.264-0.574-1.801-0.264l-0.563,0.255l0.003,56.855l-0.001,0.23
							c0.106-0.004,0.214-0.028,0.3-0.077l0.259-0.15C158.759,255.784,159.507,255.928,160.133,256.282z"/>
						<path id="XMLID_4751_" style="fill:#BA68C8;" d="M192.42,219.116l-31.569-18.225c-0.383-0.242-0.712-0.475-0.719-0.65
							l0.003,0.236l-0.003,55.804c0,0,0.001,0.327,0,0.652c-0.001,0.36,0.428,0.9,0.957,1.206l31.325,18.084
							c0.794,0.456,1.441,0.082,1.438-0.83l0.004-53.787C193.857,220.69,193.214,219.575,192.42,219.116z"/>
						<path id="XMLID_4750_" style="fill:#BA68C8;" d="M157.888,256.191l0.001-0.23l-0.003-56.855c0,0-0.084,0.01-0.168-0.025
							c-0.046-0.025-0.098-0.059-0.164-0.097l-0.355-0.204c-0.133-0.076-0.285-0.161-0.439-0.251
							c-0.203-0.119-0.278-0.293-0.236-0.509c-0.001-0.025,0.004-0.047,0.016-0.073c0.02-0.076,0.058-0.155,0.102-0.232
							c0.047-0.085,0.106-0.17,0.176-0.249c0.067-0.083,0.146-0.167,0.228-0.247c0.092-0.085,0.186-0.165,0.29-0.251
							c0.054-0.05,0.118-0.094,0.183-0.137c0.05-0.035,0.095-0.068,0.15-0.106c0.114-0.079,0.236-0.155,0.366-0.23l-1.198,0.692
							c-0.662,0.382-1.196,1.438-1.198,2.353l-0.002,53.791c0.001,0.92,0.506,1.951,1.123,2.31l0.59,0.337l0.021,0.014
							c0.043,0.019,0.141,0.078,0.249,0.144c0,0,0.003,0.005,0.008,0.002C157.694,256.176,157.789,256.197,157.888,256.191z"/>
						<path id="XMLID_355_" style="fill:#BA68C8;" d="M199.911,214.79l-1.952-1.123l-29.227-16.874
							c-0.322,0.173-0.708,0.224-1.105,0.178c-0.569-0.055-1.163-0.287-1.612-0.546c-0.344-0.197-0.803-0.527-1.063-0.977
							c-0.177-0.307-0.236-0.63-0.195-0.936c-0.315-0.036-1.337,0.152-2.363,0.744l-0.553-0.959
							c1.323-0.764,2.902-1.094,3.519-0.735l0.562,0.321c0.316,0.182,0.45,0.392,0.301,0.478l-0.259,0.149
							c-0.288,0.166-0.021,0.594,0.603,0.956c0.622,0.357,1.358,0.514,1.645,0.348l0.259-0.149c0.148-0.086,0.695,0.097,1.221,0.4
							l28.267,16.317l3.059,1.768c0,0,0.003,0.005,0.008,0.002c0.391,0.234,0.749,0.622,1.009,1.073l-1.107,0.639
							C200.668,215.414,200.312,215.018,199.911,214.79z"/>
						<path id="XMLID_4746_" style="opacity:0.3;" d="M199.911,214.79l-1.952-1.123l-29.227-16.874
							c-0.322,0.173-0.708,0.224-1.105,0.178c-0.569-0.055-1.163-0.287-1.612-0.546c-0.344-0.197-0.803-0.527-1.063-0.977
							c-0.177-0.307-0.236-0.63-0.195-0.936c-0.315-0.036-1.337,0.152-2.363,0.744l-0.553-0.959
							c1.323-0.764,2.902-1.094,3.519-0.735l0.562,0.321c0.316,0.182,0.45,0.392,0.301,0.478l-0.259,0.149
							c-0.288,0.166-0.021,0.594,0.603,0.956c0.622,0.357,1.358,0.514,1.645,0.348l0.259-0.149c0.148-0.086,0.695,0.097,1.221,0.4
							l28.267,16.317l3.059,1.768c0,0,0.003,0.005,0.008,0.002c0.391,0.234,0.749,0.622,1.009,1.073l-1.107,0.639
							C200.668,215.414,200.312,215.018,199.911,214.79z"/>
						<path id="XMLID_4743_" style="fill:#BA68C8;" d="M192.43,219.122c0,0-0.008-0.002-0.01-0.007l-1.952-1.123l-22.447-12.967
							l-7.169-4.137c-0.514-0.292-0.812-0.598-0.691-0.7c0.002-0.008,0.007-0.01,0.011-0.013l0.283-0.163
							c0.312-0.18,0.06-0.616-0.562-0.973c-0.606-0.353-1.113-0.367-1.42-0.203l-0.307,0.177c-0.158,0.091-0.357,0.123-0.448,0.067
							c-0.046-0.025-0.105-0.061-0.164-0.097c-0.098-0.059-0.221-0.128-0.355-0.204c-0.133-0.076-0.285-0.161-0.439-0.251
							c-0.203-0.119-0.278-0.293-0.236-0.509c-0.001-0.025,0.004-0.047,0.016-0.073c0.014-0.053,0.036-0.104,0.065-0.153
							c0.008-0.03,0.022-0.051,0.038-0.079c0.047-0.085,0.106-0.17,0.176-0.249c0.067-0.083,0.146-0.167,0.228-0.247
							c0.092-0.085,0.186-0.165,0.29-0.251c0.054-0.05,0.118-0.094,0.183-0.137c0.05-0.035,0.095-0.068,0.15-0.106
							c0.114-0.079,0.236-0.155,0.366-0.23l3.806-2.197l0.553,0.959l-3.806,2.197c-0.101,0.058-0.198,0.121-0.292,0.181
							l-0.226,0.163c-0.01,0.006-0.014,0.008-0.021,0.019c0.812-0.354,1.913-0.018,2.638,0.407c0.331,0.186,0.779,0.509,1.039,0.959
							c0.194,0.336,0.248,0.707,0.179,1.04l0.098,0.059c0.067,0.038,0.131,0.071,0.197,0.11l28.267,16.317l3.059,1.768
							c0,0,0.003,0.005,0.007,0.002c0.008,0.002,0.01,0.007,0.021,0.014c0.383,0.232,0.734,0.618,0.988,1.059l-1.106,0.639
							C193.151,219.694,192.814,219.364,192.43,219.122z"/>
						<path id="XMLID_354_" style="opacity:0.3;" d="M192.43,219.122c0,0-0.008-0.002-0.01-0.007l-1.952-1.123l-22.447-12.967
							l-7.169-4.137c-0.514-0.292-0.812-0.598-0.691-0.7c0.002-0.008,0.007-0.01,0.011-0.013l0.283-0.163
							c0.312-0.18,0.06-0.616-0.562-0.973c-0.606-0.353-1.113-0.367-1.42-0.203l-0.307,0.177c-0.158,0.091-0.357,0.123-0.448,0.067
							c-0.046-0.025-0.105-0.061-0.164-0.097c-0.098-0.059-0.221-0.128-0.355-0.204c-0.133-0.076-0.285-0.161-0.439-0.251
							c-0.203-0.119-0.278-0.293-0.236-0.509c-0.001-0.025,0.004-0.047,0.016-0.073c0.014-0.053,0.036-0.104,0.065-0.153
							c0.008-0.03,0.022-0.051,0.038-0.079c0.047-0.085,0.106-0.17,0.176-0.249c0.067-0.083,0.146-0.167,0.228-0.247
							c0.092-0.085,0.186-0.165,0.29-0.251c0.054-0.05,0.118-0.094,0.183-0.137c0.05-0.035,0.095-0.068,0.15-0.106
							c0.114-0.079,0.236-0.155,0.366-0.23l3.806-2.197l0.553,0.959l-3.806,2.197c-0.101,0.058-0.198,0.121-0.292,0.181
							l-0.226,0.163c-0.01,0.006-0.014,0.008-0.021,0.019c0.812-0.354,1.913-0.018,2.638,0.407c0.331,0.186,0.779,0.509,1.039,0.959
							c0.194,0.336,0.248,0.707,0.179,1.04l0.098,0.059c0.067,0.038,0.131,0.071,0.197,0.11l28.267,16.317l3.059,1.768
							c0,0,0.003,0.005,0.007,0.002c0.008,0.002,0.01,0.007,0.021,0.014c0.383,0.232,0.734,0.618,0.988,1.059l-1.106,0.639
							C193.151,219.694,192.814,219.364,192.43,219.122z"/>
						<path id="XMLID_4740_" style="fill:#BA68C8;" d="M193.417,276.329l1.126-0.65c0.259-0.149,0.419-0.459,0.424-0.903
							l-0.002-0.025l-0.001-50.255l0.001-3.529l0.005-0.003c0,0-0.008-0.002-0.003-0.005c-0.007-0.456-0.164-0.96-0.424-1.41
							l-1.107,0.639c0.26,0.451,0.424,0.956,0.422,1.418l-0.002,2.244l0.003,0.005l-0.006,51.537
							C193.853,275.882,193.688,276.171,193.417,276.329z"/>
						<path id="XMLID_4704_" style="opacity:0.2;" d="M193.417,276.329l1.126-0.65c0.259-0.149,0.419-0.459,0.424-0.903
							l-0.002-0.025l-0.001-50.255l0.001-3.529l0.005-0.003c0,0-0.008-0.002-0.003-0.005c-0.007-0.456-0.164-0.96-0.424-1.41
							l-1.107,0.639c0.26,0.451,0.424,0.956,0.422,1.418l-0.002,2.244l0.003,0.005l-0.006,51.537
							C193.853,275.882,193.688,276.171,193.417,276.329z"/>
						<path id="XMLID_4703_" style="fill:#BA68C8;" d="M200.908,272.004l1.126-0.65c0.259-0.15,0.419-0.459,0.424-0.903
							l-0.002-0.025l-0.001-50.255l0.002-3.529l0.005-0.003c0,0-0.008-0.002-0.003-0.005c-0.007-0.456-0.164-0.96-0.424-1.41
							l-1.107,0.639c0.26,0.45,0.424,0.956,0.422,1.418l-0.002,2.244l0.003,0.005l-0.006,51.537
							C201.344,271.557,201.179,271.846,200.908,272.004z"/>
						<path id="XMLID_4702_" style="opacity:0.2;" d="M200.908,272.004l1.126-0.65c0.259-0.15,0.419-0.459,0.424-0.903l-0.002-0.025
							l-0.001-50.255l0.002-3.529l0.005-0.003c0,0-0.008-0.002-0.003-0.005c-0.007-0.456-0.164-0.96-0.424-1.41l-1.107,0.639
							c0.26,0.45,0.424,0.956,0.422,1.418l-0.002,2.244l0.003,0.005l-0.006,51.537C201.344,271.557,201.179,271.846,200.908,272.004
							z"/>
					</g>
				</g>
				<g id="Book_42_">
					<g id="XMLID_4574_">
						<polygon id="XMLID_4700_" style="fill:#BA68C8;" points="159.846,203.819 188.974,220.849 189.12,276.681 159.991,259.654 
													"/>
						<path id="XMLID_4698_" style="fill:#F5F5F5;" d="M188.041,221.774L159.85,205.4c-1.447,1.688-3.592,2.863-6.427,3.534
							l27.951,16.303C181.375,225.237,183.176,224.817,188.041,221.774z"/>
						<path id="XMLID_4696_" style="fill:#BA68C8;" d="M178.67,225.133c1.496,0.869,3.918,0.875,5.409,0.014l4.732-2.732
							c1.492-0.861,1.488-2.263-0.008-3.132l-27.783-16.137l-1.174,0.674l27.325,15.972c0.898,0.521,0.9,1.362,0.004,1.878
							l-4.398,2.51c-0.895,0.516-2.349,0.512-3.246-0.01l-27.316-15.94l-1.329,0.767L178.67,225.133z"/>
						<path id="XMLID_4695_" style="opacity:0.6;fill:#FFFFFF;" d="M178.67,225.133c1.496,0.869,3.918,0.875,5.409,0.014
							l4.732-2.732c1.492-0.861,1.488-2.263-0.008-3.132l-27.783-16.137l-1.174,0.674l27.325,15.972
							c0.898,0.521,0.9,1.362,0.004,1.878l-4.398,2.51c-0.895,0.516-2.349,0.512-3.246-0.01l-27.316-15.94l-1.329,0.767
							L178.67,225.133z"/>
						<path id="XMLID_4693_" style="fill:#BA68C8;" d="M150.889,208.994l0.145,55.832l27.781,16.135
							c1.495,0.868,3.918,0.875,5.409,0.014l4.734-2.732c0.742-0.43,1.115-0.993,1.114-1.563l-0.145-55.832
							c0.001,0.57-0.372,1.133-1.114,1.563l-4.734,2.738c-1.49,0.86-3.914,0.854-5.409-0.014L150.889,208.994z"/>
						<path id="XMLID_4662_" style="opacity:0.4;fill:#FFFFFF;" d="M150.889,208.994l0.145,55.832l27.781,16.135
							c1.495,0.868,3.918,0.875,5.409,0.014l4.734-2.732c0.742-0.43,1.115-0.993,1.114-1.563l-0.145-55.832
							c0.001,0.57-0.372,1.133-1.114,1.563l-4.734,2.738c-1.49,0.86-3.914,0.854-5.409-0.014L150.889,208.994z"/>
						<path id="XMLID_4638_" style="fill:#BA68C8;" d="M181.376,225.792c0.979,0.002,1.958-0.211,2.702-0.641l4.734-2.738
							c0.742-0.431,1.115-0.993,1.114-1.563l0.145,55.832c0.002,0.57-0.372,1.133-1.114,1.563l-4.734,2.732
							c-0.746,0.43-1.724,0.644-2.703,0.641L181.376,225.792z"/>
						<path id="XMLID_4631_" style="opacity:0.7;fill:#FFFFFF;" d="M181.376,225.792c0.979,0.002,1.958-0.211,2.702-0.641
							l4.734-2.738c0.742-0.431,1.115-0.993,1.114-1.563l0.145,55.832c0.002,0.57-0.372,1.133-1.114,1.563l-4.734,2.732
							c-0.746,0.43-1.724,0.644-2.703,0.641L181.376,225.792z"/>
					</g>
				</g>
				<g id="Book_41_">
					<g id="XMLID_4522_">
						<polygon id="XMLID_4564_" style="fill:#BA68C8;" points="151.164,214.55 178.169,230.338 178.304,282.102 151.298,266.316 
													"/>
						<polygon id="XMLID_4558_" style="opacity:0.35;" points="151.164,214.55 178.169,230.338 178.304,282.102 151.298,266.316 
													"/>
						<path id="XMLID_4556_" style="fill:#FFFFFF;" d="M177.304,231.196l-26.137-15.181c-1.34,1.565-3.33,2.654-5.958,3.277
							l25.914,15.115C171.123,234.407,172.794,234.017,177.304,231.196z"/>
						<path id="XMLID_4554_" style="fill:#BA68C8;" d="M168.616,234.31c1.387,0.806,3.632,0.811,5.015,0.013l4.387-2.533
							c1.383-0.798,1.38-2.098-0.007-2.904l-25.758-14.961l-1.089,0.625l25.334,14.808c0.832,0.483,0.834,1.263,0.004,1.741
							l-4.078,2.327c-0.83,0.479-2.178,0.475-3.01-0.009l-25.325-14.779l-1.232,0.711L168.616,234.31z"/>
						<path id="XMLID_4547_" style="opacity:0.2;" d="M168.616,234.31c1.387,0.806,3.632,0.811,5.015,0.013l4.387-2.533
							c1.383-0.798,1.38-2.098-0.007-2.904l-25.758-14.961l-1.089,0.625l25.334,14.808c0.832,0.483,0.834,1.263,0.004,1.741
							l-4.078,2.327c-0.83,0.479-2.178,0.475-3.01-0.009l-25.325-14.779l-1.232,0.711L168.616,234.31z"/>
						<path id="XMLID_4545_" style="fill:#BA68C8;" d="M142.86,219.347l0.135,51.764l25.756,14.959
							c1.386,0.805,3.633,0.811,5.015,0.013l4.388-2.533c0.688-0.399,1.034-0.921,1.033-1.449l-0.135-51.764
							c0.001,0.529-0.344,1.05-1.032,1.45l-4.389,2.538c-1.382,0.798-3.629,0.792-5.015-0.013L142.86,219.347z"/>
						<path id="XMLID_4544_" style="opacity:0.3;" d="M142.86,219.347l0.135,51.764l25.756,14.959
							c1.386,0.805,3.633,0.811,5.015,0.013l4.388-2.533c0.688-0.399,1.034-0.921,1.033-1.449l-0.135-51.764
							c0.001,0.529-0.344,1.05-1.032,1.45l-4.389,2.538c-1.382,0.798-3.629,0.792-5.015-0.013L142.86,219.347z"/>
						<path id="XMLID_4542_" style="fill:#BA68C8;" d="M171.125,234.921c0.908,0.002,1.815-0.196,2.506-0.595l4.389-2.538
							c0.688-0.399,1.034-0.921,1.032-1.45l0.135,51.764c0.001,0.529-0.345,1.05-1.033,1.449l-4.388,2.533
							c-0.691,0.399-1.598,0.597-2.506,0.595L171.125,234.921z"/>
						<path id="XMLID_4540_" style="opacity:0.1;" d="M171.125,234.921c0.908,0.002,1.815-0.196,2.506-0.595l4.389-2.538
							c0.688-0.399,1.034-0.921,1.032-1.45l0.135,51.764c0.001,0.529-0.345,1.05-1.033,1.449l-4.388,2.533
							c-0.691,0.399-1.598,0.597-2.506,0.595L171.125,234.921z"/>
						<g>
							<path style="fill:#455A64;" d="M171.124,241.821v2.054c3.356-0.864,6.04-2.277,7.945-4.587v-2.054
								C177.164,239.544,174.48,240.957,171.124,241.821z"/>
							<path style="fill:#455A64;" d="M171.218,276.82v2.054c3.355-0.864,6.04-2.277,7.945-4.587v-2.054
								C177.258,274.543,174.573,275.956,171.218,276.82z"/>
						</g>
					</g>
				</g>
			</g>
			<g>
				<g>
					<polygon style="fill:#37474F;" points="244.001,171.334 203.464,147.908 23.026,252.121 23.026,256.57 63.562,279.996 
						244.001,175.783 					"/>
				</g>
				<g>
					<polygon style="fill:#455A64;" points="63.562,275.547 244.001,171.334 203.464,147.908 23.026,252.121 					"/>
				</g>
				<g>
					<polygon style="fill:#E0E0E0;" points="63.562,275.547 63.562,279.996 23.026,256.57 23.026,252.121 					"/>
				</g>
			</g>
			<g>
				<g id="Book_68_">
					<path id="XMLID_1121_" d="M227.477,112.918l0.003,1.437c0,0-0.555-0.506-0.586-0.869
						C226.863,113.124,227.477,112.918,227.477,112.918z"/>
					<path id="XMLID_1120_" style="fill:#BA68C8;" d="M226.371,112.57c0,0-0.459,1.429,1.109,1.922
						c1.568,0.493,2.553-0.004,2.788,0.44c0.235,0.443-7.441,4.866-7.441,4.866l1.458-6.352L226.371,112.57z"/>
					<path id="XMLID_1119_" style="opacity:0.3;" d="M226.371,112.57c0,0-0.459,1.429,1.109,1.922
						c1.568,0.493,2.553-0.004,2.788,0.44c0.235,0.443-7.441,4.866-7.441,4.866l1.458-6.352L226.371,112.57z"/>
					<path id="XMLID_1118_" style="fill:#BA68C8;" d="M223.473,171.985v0.09l-0.767-0.443l-32.929-19.012l2.902-57.083
						c0-0.916,0.502-1.368,1.12-1.009l1.12,0.65l30.788,17.768l-0.029,0.269L223.473,171.985z"/>
					<path id="XMLID_1117_" style="opacity:0.2;" d="M223.473,171.985v0.09l-0.767-0.443l-32.929-19.012l2.902-57.083
						c0-0.916,0.502-1.368,1.12-1.009l1.12,0.65l30.788,17.768l-0.029,0.269L223.473,171.985z"/>
					<path id="XMLID_1111_" style="fill:#455A64;" d="M219.003,121.56l-1.617-1.818l8.267-4.773c1.247,0.94,2.204,1.444,3.322,0.973
						L219.003,121.56z"/>
					<path id="XMLID_6260_" style="fill:#EBEBEB;" d="M225.234,113.992l-30.493-17.605c-0.529-0.305-1.387-0.305-1.916,0
						l-8.149,4.705l30.922,17.698c0,0,1.337-0.348,2.246,0.388c0.91,0.735,0.859-0.197,0.859-0.197l6.949-4.012
						C225.085,114.208,225.234,113.992,225.234,113.992z"/>
					<path id="XMLID_6259_" style="fill:#BA68C8;" d="M218.407,121.181c-0.316-0.182-0.45-0.392-0.301-0.478l0.258-0.149
						c0.287-0.166,0.021-0.594-0.603-0.955c-0.621-0.357-1.359-0.52-1.646-0.354l-0.259,0.15c-0.149,0.086-0.691-0.091-1.217-0.394
						l0.188,57.18c0.304,0.175,0.77,0.442,0.77,0.442c0.173,0.048,0.388-0.006,0.45-0.042l0.258-0.149
						c0.288-0.166,1.023-0.009,1.644,0.347c0.624,0.362,0.89,0.789,0.603,0.955l-0.258,0.149c-0.149,0.086-0.015,0.296,0.301,0.477
						L218.407,121.181z"/>
					<path id="XMLID_6258_" style="opacity:0.25;fill:#FFFFFF;" d="M218.407,121.181c-0.316-0.182-0.45-0.392-0.301-0.478
						l0.258-0.149c0.287-0.166,0.021-0.594-0.603-0.955c-0.621-0.357-1.359-0.52-1.646-0.354l-0.259,0.15
						c-0.149,0.086-0.691-0.091-1.217-0.394l0.188,57.18c0.304,0.175,0.77,0.442,0.77,0.442c0.173,0.048,0.388-0.006,0.45-0.042
						l0.258-0.149c0.288-0.166,1.023-0.009,1.644,0.347c0.624,0.362,0.89,0.789,0.603,0.955l-0.258,0.149
						c-0.149,0.086-0.015,0.296,0.301,0.477L218.407,121.181z"/>
					<path id="XMLID_6257_" style="fill:#BA68C8;" d="M215.598,176.532v0.09l-0.767-0.443l-32.929-19.011l0.005-55.411
						c0-0.916,0.502-1.368,1.12-1.009l1.12,0.649l31.451,17.392V176.532z"/>
					<path id="XMLID_6256_" style="opacity:0.4;fill:#FFFFFF;" d="M215.598,176.532v0.09l-0.767-0.443l-32.929-19.011l0.005-55.411
						c0-0.916,0.502-1.368,1.12-1.009l1.12,0.649l31.451,17.392V176.532z"/>
					<path id="XMLID_6255_" style="fill:#BA68C8;" d="M218.047,178.037l0-57.243l2.044,0.824v57.058
						c-0.547,0.069-0.89,0.01-1.13-0.112L218.047,178.037z"/>
					<path id="XMLID_1104_" style="opacity:0.4;fill:#FFFFFF;" d="M218.047,178.037l0-57.243l2.044,0.824v57.058
						c-0.547,0.069-0.89,0.01-1.13-0.112L218.047,178.037z"/>
					<g id="XMLID_6252_">
						<path id="XMLID_1074_" style="fill:#BA68C8;" d="M231.094,172.099c0,0.035-0.004,0.072-0.011,0.11
							c0.002,0.025-0.004,0.047-0.015,0.073c-0.014,0.053-0.036,0.104-0.065,0.153c-0.008,0.03-0.022,0.051-0.038,0.079
							c-0.047,0.085-0.106,0.17-0.176,0.249c-0.067,0.083-0.146,0.167-0.228,0.246c-0.091,0.085-0.186,0.165-0.29,0.25
							c-0.054,0.05-0.118,0.094-0.183,0.138c-0.05,0.035-0.095,0.067-0.15,0.106c-0.114,0.079-0.236,0.156-0.365,0.23l-7.092,4.095
							c-0.793,0.457-1.677,0.759-2.392,0.85l0.001-57.059l11.007-6.596l-0.004,57.058L231.094,172.099z"/>
					</g>
					<g id="XMLID_6248_" style="opacity:0.7;">
						<path id="XMLID_6251_" style="fill:#FFFFFF;" d="M231.094,172.099c0,0.035-0.004,0.072-0.011,0.11
							c0.002,0.025-0.004,0.047-0.015,0.073c-0.014,0.053-0.036,0.104-0.065,0.153c-0.008,0.03-0.022,0.051-0.038,0.079
							c-0.047,0.085-0.106,0.17-0.176,0.249c-0.067,0.083-0.146,0.167-0.228,0.246c-0.091,0.085-0.186,0.165-0.29,0.25
							c-0.054,0.05-0.118,0.094-0.183,0.138c-0.05,0.035-0.095,0.067-0.15,0.106c-0.114,0.079-0.236,0.156-0.365,0.23l-7.092,4.095
							c-0.793,0.457-1.677,0.759-2.392,0.85l0.001-57.059l11.007-6.596l-0.004,57.058L231.094,172.099z"/>
					</g>
					<g>
						<path style="fill:#FAFAFA;" d="M220.089,126.347v6.879c4.401-1.493,8.175-3.522,11.008-6.356v-6.879
							C228.265,122.825,224.49,124.853,220.089,126.347z"/>
						<path style="fill:#FAFAFA;" d="M220.089,164.663v6.879c4.401-1.493,8.175-3.522,11.008-6.356v-6.879
							C228.265,161.141,224.49,163.17,220.089,164.663z"/>
					</g>
					<g id="XMLID_6235_">
						<g>
							<path id="XMLID_36_" style="fill:#BA68C8;" d="M222.484,120.765l-0.553-0.958c-1.025,0.592-2.047,0.779-2.361,0.744
								c0.041-0.304-0.018-0.628-0.195-0.935c-0.26-0.45-0.718-0.779-1.062-0.977c-0.449-0.258-1.043-0.49-1.611-0.545
								c-0.04-0.003-0.083-0.01-0.119-0.008c-0.353-0.026-0.697,0.032-0.985,0.185l-29.206-16.862l-0.993-0.57l-1.266-0.732
								c-0.259-0.15-0.5-0.158-0.687-0.051l-1.121,0.647c0.221-0.127,0.458-0.092,0.701,0.042l0.018,0.009l3.348,1.937
								l28.245,16.305c0.527,0.303,1.073,0.485,1.221,0.4l0.259-0.149c0.125-0.072,0.334-0.085,0.585-0.038
								c0.32,0.045,0.708,0.185,1.059,0.385c0.624,0.362,0.89,0.789,0.603,0.955l-0.258,0.149c-0.149,0.086-0.015,0.296,0.301,0.478
								l0.562,0.32C219.583,121.859,221.162,121.528,222.484,120.765z"/>
							<path id="XMLID_35_" style="opacity:0.6;fill:#FFFFFF;" d="M222.484,120.765l-0.553-0.958
								c-1.025,0.592-2.047,0.779-2.361,0.744c0.041-0.304-0.018-0.628-0.195-0.935c-0.26-0.45-0.718-0.779-1.062-0.977
								c-0.449-0.258-1.043-0.49-1.611-0.545c-0.04-0.003-0.083-0.01-0.119-0.008c-0.353-0.026-0.697,0.032-0.985,0.185
								l-29.206-16.862l-0.993-0.57l-1.266-0.732c-0.259-0.15-0.5-0.158-0.687-0.051l-1.121,0.647
								c0.221-0.127,0.458-0.092,0.701,0.042l0.018,0.009l3.348,1.937l28.245,16.305c0.527,0.303,1.073,0.485,1.221,0.4l0.259-0.149
								c0.125-0.072,0.334-0.085,0.585-0.038c0.32,0.045,0.708,0.185,1.059,0.385c0.624,0.362,0.89,0.789,0.603,0.955l-0.258,0.149
								c-0.149,0.086-0.015,0.296,0.301,0.478l0.562,0.32C219.583,121.859,221.162,121.528,222.484,120.765z"/>
							<path id="XMLID_34_" style="fill:#BA68C8;" d="M221.93,119.808l7.093-4.095c0.101-0.058,0.198-0.121,0.292-0.181l0.226-0.162
								c0.009-0.006,0.014-0.008,0.021-0.019c-0.811,0.353-1.912,0.018-2.636-0.407c-0.331-0.186-0.779-0.509-1.039-0.959
								c-0.193-0.335-0.248-0.706-0.179-1.04l-0.098-0.058c-0.067-0.038-0.131-0.072-0.197-0.11l-28.245-16.305
								c0,0-0.74-0.429-1.62-0.936c-0.151-0.085-0.308-0.179-0.467-0.267c-0.478-0.274-0.958-0.552-1.368-0.788
								c-0.214-0.093-0.42-0.109-0.612,0.002l0.306-0.177l0.814-0.47c0.158-0.091,0.359-0.099,0.572-0.005
								c0.005-0.003,0.008,0.002,0.015,0.005c0.162,0.092,0.329,0.193,0.505,0.289c0.106,0.061,0.211,0.121,0.316,0.182
								c0.185,0.11,0.372,0.213,0.544,0.312c0.123,0.069,0.236,0.132,0.336,0.195c0.087,0.052,0.169,0.094,0.239,0.137
								c0.257,0.146,0.418,0.237,0.418,0.237l22.43,12.957l7.163,4.134c0.513,0.291,0.812,0.598,0.691,0.699
								c-0.016,0.015-0.038,0.029-0.043,0.031l-0.251,0.145c-0.311,0.18-0.059,0.616,0.562,0.972
								c0.606,0.352,1.112,0.367,1.42,0.202l0.306-0.177c0.158-0.091,0.357-0.123,0.447-0.067c0.046,0.025,0.105,0.061,0.165,0.097
								c0.098,0.059,0.221,0.128,0.354,0.204c0.133,0.076,0.285,0.161,0.439,0.251c0.203,0.119,0.278,0.293,0.236,0.508
								c0.001,0.025-0.005,0.048-0.015,0.073c-0.014,0.053-0.036,0.104-0.065,0.153L231,115.376
								c-0.008,0.03-0.017,0.048-0.033,0.076c-0.047,0.085-0.107,0.17-0.176,0.249c-0.067,0.083-0.146,0.167-0.228,0.247
								c-0.092,0.085-0.186,0.165-0.29,0.25c-0.054,0.05-0.118,0.094-0.182,0.138c-0.05,0.035-0.095,0.067-0.15,0.106
								c-0.114,0.078-0.236,0.155-0.365,0.23l-7.093,4.095L221.93,119.808z"/>
							<path id="XMLID_33_" style="opacity:0.6;fill:#FFFFFF;" d="M221.93,119.808l7.093-4.095c0.101-0.058,0.198-0.121,0.292-0.181
								l0.226-0.162c0.009-0.006,0.014-0.008,0.021-0.019c-0.811,0.353-1.912,0.018-2.636-0.407
								c-0.331-0.186-0.779-0.509-1.039-0.959c-0.193-0.335-0.248-0.706-0.179-1.04l-0.098-0.058
								c-0.067-0.038-0.131-0.072-0.197-0.11l-28.245-16.305c0,0-0.74-0.429-1.62-0.936c-0.151-0.085-0.308-0.179-0.467-0.267
								c-0.478-0.274-0.958-0.552-1.368-0.788c-0.214-0.093-0.42-0.109-0.612,0.002l0.306-0.177l0.814-0.47
								c0.158-0.091,0.359-0.099,0.572-0.005c0.005-0.003,0.008,0.002,0.015,0.005c0.162,0.092,0.329,0.193,0.505,0.289
								c0.106,0.061,0.211,0.121,0.316,0.182c0.185,0.11,0.372,0.213,0.544,0.312c0.123,0.069,0.236,0.132,0.336,0.195
								c0.087,0.052,0.169,0.094,0.239,0.137c0.257,0.146,0.418,0.237,0.418,0.237l22.43,12.957l7.163,4.134
								c0.513,0.291,0.812,0.598,0.691,0.699c-0.016,0.015-0.038,0.029-0.043,0.031l-0.251,0.145
								c-0.311,0.18-0.059,0.616,0.562,0.972c0.606,0.352,1.112,0.367,1.42,0.202l0.306-0.177c0.158-0.091,0.357-0.123,0.447-0.067
								c0.046,0.025,0.105,0.061,0.165,0.097c0.098,0.059,0.221,0.128,0.354,0.204c0.133,0.076,0.285,0.161,0.439,0.251
								c0.203,0.119,0.278,0.293,0.236,0.508c0.001,0.025-0.005,0.048-0.015,0.073c-0.014,0.053-0.036,0.104-0.065,0.153
								L231,115.376c-0.008,0.03-0.017,0.048-0.033,0.076c-0.047,0.085-0.107,0.17-0.176,0.249
								c-0.067,0.083-0.146,0.167-0.228,0.247c-0.092,0.085-0.186,0.165-0.29,0.25c-0.054,0.05-0.118,0.094-0.182,0.138
								c-0.05,0.035-0.095,0.067-0.15,0.106c-0.114,0.078-0.236,0.155-0.365,0.23l-7.093,4.095L221.93,119.808z"/>
						</g>
					</g>
				</g>
				<g id="Book_67_">
					<path id="XMLID_520_" style="fill:#BA68C8;" d="M177.061,106.455l0.053,1.601l-0.91-0.961
						C176.331,106.719,176.636,106.525,177.061,106.455z"/>
					<path id="XMLID_6221_" style="opacity:0.5;" d="M177.061,106.455l0.053,1.601l-0.91-0.961
						C176.331,106.719,176.636,106.525,177.061,106.455z"/>
					<g id="XMLID_6217_">
						<path id="XMLID_6220_" style="fill:#BA68C8;" d="M212.103,129.447c0-0.917-0.643-2.03-1.437-2.489l-32.26-18.624l0.389,55.536
							l-0.001,1.303l31.867,18.85c0.793,0.455,1.44,0.082,1.437-0.829L212.103,129.447z"/>
						<path id="XMLID_6219_" style="fill:#BA68C8;" d="M175.968,136.322l-0.018-12.98l-7.282-4.205l0.003-9.784
							c0,0,4.255-2.456,4.896-2.826c0.641-0.37,1.969-0.179,1.969,0.17c0,0,0.449,0.507,1.308,1.115
							c0.859,0.608,2.667,1.16,2.667,1.16l0.392,29.622L175.968,136.322z"/>
						<path id="XMLID_6218_" style="opacity:0.15;" d="M175.968,136.322l-0.018-12.98l-7.282-4.205l0.003-9.784
							c0,0,4.255-2.456,4.896-2.826c0.641-0.37,1.969-0.179,1.969,0.17c0,0,0.449,0.507,1.308,1.115
							c0.859,0.608,2.667,1.16,2.667,1.16l0.392,29.622L175.968,136.322z"/>
						<path style="fill:#37474F;" d="M171.584,113.04l5.314-3.068c-0.038-0.018-0.072-0.038-0.103-0.055
							c-0.343-0.199-0.801-0.528-1.061-0.978c-0.178-0.308-0.309-0.59-0.269-0.892l-6.266,3.617L171.584,113.04z"/>
						<path style="fill:#E0E0E0;" d="M179.515,110.288c-0.323,0.172-0.711,0.217-1.109,0.172c-0.197-0.019-0.396-0.061-0.592-0.116
							c-0.059-0.016-0.12-0.035-0.181-0.053c-0.073-0.026-0.145-0.052-0.217-0.079c-0.057-0.024-0.114-0.049-0.171-0.073
							c-0.119-0.053-0.235-0.11-0.344-0.169l-5.292,3.056l1.579,0.908l-0.027,0.016L179.515,110.288z"/>
						<path style="opacity:0.4;" d="M173.566,106.528c0.641-0.37,1.969-0.179,1.969,0.17l0,0l-0.071,1.348l-4.04,2.332l-2.256-0.007
							l-0.499-0.425v-0.592C168.671,109.354,172.925,106.898,173.566,106.528z"/>
					</g>
					<path id="XMLID_6216_" style="fill:#EBEBEB;" d="M204.615,132.111l6.064-3.501c-0.174-0.302-0.411-0.568-0.675-0.715
						l-3.537-2.045l-26.955-15.562l-6.354,3.662L204.615,132.111z"/>
					<path id="XMLID_6215_" style="fill:#F5F5F5;" d="M205.424,186.115l4.579-2.644c0.527-0.304,0.958-1.051,0.959-1.658l0-48.181
						l0-4.081c0.004-0.302-0.108-0.64-0.282-0.942l-5.379,3.105L205.424,186.115z"/>
					<g id="XMLID_5458_">
						<path id="XMLID_6214_" style="fill:#BA68C8;" d="M170.916,168.419l0.003-55.763c0,0,0.249-0.144,0.56-0.323
							c0.312-0.18,0.175-0.682-0.446-1.039c-0.624-0.361-1.264-0.573-1.8-0.264l-0.562,0.254l0.003,56.813l-0.001,0.23
							c0.106-0.004,0.214-0.028,0.3-0.077l0.259-0.149C169.543,167.922,170.29,168.065,170.916,168.419z"/>
						<path id="XMLID_6213_" style="opacity:0.1;" d="M170.916,168.419l0.003-55.763c0,0,0.249-0.144,0.56-0.323
							c0.312-0.18,0.175-0.682-0.446-1.039c-0.624-0.361-1.264-0.573-1.8-0.264l-0.562,0.254l0.003,56.813l-0.001,0.23
							c0.106-0.004,0.214-0.028,0.3-0.077l0.259-0.149C169.543,167.922,170.29,168.065,170.916,168.419z"/>
						<path id="XMLID_6212_" style="fill:#BA68C8;" d="M203.179,131.281l-31.545-18.211c-0.382-0.242-0.711-0.475-0.718-0.649
							l0.003,0.236l-0.003,55.763c0,0,0.001,0.327,0,0.651c-0.001,0.36,0.428,0.9,0.956,1.205l31.302,18.07
							c0.793,0.455,1.44,0.082,1.436-0.83l0.005-53.747C204.615,132.853,203.972,131.739,203.179,131.281z"/>
						<path id="XMLID_6211_" style="fill:#BA68C8;" d="M168.673,168.328l0.001-0.23l-0.003-56.813c0,0-0.084,0.01-0.168-0.025
							c-0.046-0.024-0.098-0.058-0.164-0.096l-0.354-0.204c-0.133-0.076-0.285-0.161-0.439-0.251
							c-0.203-0.119-0.278-0.293-0.236-0.508c-0.001-0.025,0.004-0.047,0.015-0.073c0.02-0.075,0.058-0.154,0.103-0.231
							c0.047-0.085,0.106-0.17,0.176-0.248c0.067-0.083,0.146-0.167,0.228-0.247c0.092-0.085,0.186-0.164,0.29-0.25
							c0.054-0.05,0.118-0.094,0.183-0.137c0.05-0.035,0.095-0.068,0.15-0.105c0.114-0.079,0.236-0.155,0.365-0.23l-1.197,0.691
							c-0.661,0.382-1.195,1.437-1.197,2.351l-0.002,53.751c0.001,0.919,0.506,1.949,1.122,2.309l0.59,0.336l0.021,0.014
							c0.043,0.02,0.141,0.078,0.249,0.143c0,0,0.003,0.005,0.008,0.002C168.479,168.313,168.574,168.334,168.673,168.328z"/>
						<path id="XMLID_6210_" style="fill:#BA68C8;" d="M210.664,126.958l-1.951-1.122l-29.205-16.862
							c-0.322,0.173-0.708,0.223-1.105,0.178c-0.568-0.055-1.162-0.287-1.611-0.545c-0.344-0.197-0.802-0.527-1.062-0.977
							c-0.177-0.306-0.236-0.63-0.195-0.935c-0.315-0.036-1.336,0.152-2.361,0.744l-0.553-0.958c1.322-0.763,2.9-1.093,3.516-0.734
							l0.562,0.321c0.316,0.182,0.45,0.392,0.301,0.477l-0.258,0.149c-0.287,0.166-0.021,0.594,0.602,0.955
							c0.621,0.357,1.357,0.513,1.644,0.347l0.259-0.149c0.149-0.086,0.695,0.097,1.221,0.4l28.245,16.305l3.057,1.766
							c0,0,0.003,0.005,0.008,0.002c0.391,0.234,0.748,0.622,1.008,1.072l-1.107,0.639
							C211.42,127.581,211.065,127.186,210.664,126.958z"/>
						<path id="XMLID_6209_" style="opacity:0.3;" d="M210.664,126.958l-1.951-1.122l-29.205-16.862
							c-0.322,0.173-0.708,0.223-1.105,0.178c-0.568-0.055-1.162-0.287-1.611-0.545c-0.344-0.197-0.802-0.527-1.062-0.977
							c-0.177-0.306-0.236-0.63-0.195-0.935c-0.315-0.036-1.336,0.152-2.361,0.744l-0.553-0.958c1.322-0.763,2.9-1.093,3.516-0.734
							l0.562,0.321c0.316,0.182,0.45,0.392,0.301,0.477l-0.258,0.149c-0.287,0.166-0.021,0.594,0.602,0.955
							c0.621,0.357,1.357,0.513,1.644,0.347l0.259-0.149c0.149-0.086,0.695,0.097,1.221,0.4l28.245,16.305l3.057,1.766
							c0,0,0.003,0.005,0.008,0.002c0.391,0.234,0.748,0.622,1.008,1.072l-1.107,0.639
							C211.42,127.581,211.065,127.186,210.664,126.958z"/>
						<path id="XMLID_6208_" style="fill:#BA68C8;" d="M203.189,131.287c0,0-0.008-0.002-0.011-0.007l-1.95-1.122l-22.43-12.957
							l-7.163-4.134c-0.513-0.291-0.812-0.598-0.691-0.699c0.002-0.007,0.007-0.01,0.012-0.013l0.283-0.163
							c0.311-0.18,0.06-0.616-0.562-0.972c-0.606-0.353-1.112-0.367-1.419-0.202l-0.307,0.177c-0.158,0.091-0.357,0.123-0.447,0.066
							c-0.046-0.024-0.105-0.06-0.164-0.096c-0.098-0.059-0.221-0.128-0.354-0.204c-0.133-0.076-0.285-0.161-0.439-0.251
							c-0.203-0.119-0.278-0.293-0.236-0.508c-0.001-0.025,0.004-0.047,0.015-0.073c0.014-0.053,0.036-0.104,0.065-0.152
							c0.008-0.03,0.022-0.051,0.038-0.079c0.047-0.085,0.106-0.17,0.176-0.248c0.067-0.083,0.146-0.167,0.228-0.247
							c0.092-0.085,0.186-0.164,0.29-0.25c0.054-0.05,0.118-0.094,0.183-0.137c0.05-0.035,0.095-0.068,0.15-0.105
							c0.114-0.079,0.236-0.155,0.365-0.23l3.803-2.196l0.553,0.958l-3.803,2.196c-0.101,0.058-0.199,0.121-0.292,0.181
							l-0.226,0.162c-0.01,0.006-0.014,0.008-0.021,0.019c0.811-0.354,1.911-0.018,2.636,0.407c0.331,0.186,0.779,0.508,1.038,0.959
							c0.194,0.335,0.248,0.706,0.179,1.04l0.098,0.059c0.067,0.038,0.13,0.071,0.197,0.109l28.246,16.305l3.057,1.766
							c0,0,0.003,0.005,0.007,0.002c0.007,0.002,0.01,0.007,0.02,0.014c0.383,0.232,0.733,0.617,0.988,1.058l-1.105,0.638
							C203.909,131.859,203.572,131.529,203.189,131.287z"/>
						<path id="XMLID_6183_" style="opacity:0.3;" d="M203.189,131.287c0,0-0.008-0.002-0.011-0.007l-1.95-1.122l-22.43-12.957
							l-7.163-4.134c-0.513-0.291-0.812-0.598-0.691-0.699c0.002-0.007,0.007-0.01,0.012-0.013l0.283-0.163
							c0.311-0.18,0.06-0.616-0.562-0.972c-0.606-0.353-1.112-0.367-1.419-0.202l-0.307,0.177c-0.158,0.091-0.357,0.123-0.447,0.066
							c-0.046-0.024-0.105-0.06-0.164-0.096c-0.098-0.059-0.221-0.128-0.354-0.204c-0.133-0.076-0.285-0.161-0.439-0.251
							c-0.203-0.119-0.278-0.293-0.236-0.508c-0.001-0.025,0.004-0.047,0.015-0.073c0.014-0.053,0.036-0.104,0.065-0.152
							c0.008-0.03,0.022-0.051,0.038-0.079c0.047-0.085,0.106-0.17,0.176-0.248c0.067-0.083,0.146-0.167,0.228-0.247
							c0.092-0.085,0.186-0.164,0.29-0.25c0.054-0.05,0.118-0.094,0.183-0.137c0.05-0.035,0.095-0.068,0.15-0.105
							c0.114-0.079,0.236-0.155,0.365-0.23l3.803-2.196l0.553,0.958l-3.803,2.196c-0.101,0.058-0.199,0.121-0.292,0.181
							l-0.226,0.162c-0.01,0.006-0.014,0.008-0.021,0.019c0.811-0.354,1.911-0.018,2.636,0.407c0.331,0.186,0.779,0.508,1.038,0.959
							c0.194,0.335,0.248,0.706,0.179,1.04l0.098,0.059c0.067,0.038,0.13,0.071,0.197,0.109l28.246,16.305l3.057,1.766
							c0,0,0.003,0.005,0.007,0.002c0.007,0.002,0.01,0.007,0.02,0.014c0.383,0.232,0.733,0.617,0.988,1.058l-1.105,0.638
							C203.909,131.859,203.572,131.529,203.189,131.287z"/>
						<path id="XMLID_6182_" style="fill:#BA68C8;" d="M204.175,188.451l1.125-0.65c0.259-0.149,0.418-0.459,0.424-0.902
							l-0.001-0.025l-0.001-50.217l0.001-3.526l0.005-0.003c0,0-0.008-0.002-0.003-0.005c-0.007-0.455-0.164-0.959-0.424-1.409
							l-1.106,0.639c0.26,0.45,0.424,0.956,0.422,1.417l-0.002,2.242l0.003,0.005l-0.006,51.499
							C204.61,188.005,204.446,188.293,204.175,188.451z"/>
						<path id="XMLID_6181_" style="opacity:0.2;" d="M204.175,188.451l1.125-0.65c0.259-0.149,0.418-0.459,0.424-0.902
							l-0.001-0.025l-0.001-50.217l0.001-3.526l0.005-0.003c0,0-0.008-0.002-0.003-0.005c-0.007-0.455-0.164-0.959-0.424-1.409
							l-1.106,0.639c0.26,0.45,0.424,0.956,0.422,1.417l-0.002,2.242l0.003,0.005l-0.006,51.499
							C204.61,188.005,204.446,188.293,204.175,188.451z"/>
						<path id="XMLID_6180_" style="fill:#BA68C8;" d="M211.66,184.13l1.125-0.65c0.259-0.149,0.419-0.459,0.424-0.902l-0.002-0.025
							l-0.001-50.217l0.002-3.526l0.005-0.003c0,0-0.008-0.002-0.003-0.005c-0.007-0.455-0.164-0.959-0.424-1.409l-1.107,0.639
							c0.26,0.45,0.424,0.956,0.422,1.417l-0.002,2.242l0.003,0.005l-0.006,51.499C212.096,183.683,211.931,183.972,211.66,184.13z"
							/>
						<path id="XMLID_6179_" style="opacity:0.2;" d="M211.66,184.13l1.125-0.65c0.259-0.149,0.419-0.459,0.424-0.902l-0.002-0.025
							l-0.001-50.217l0.002-3.526l0.005-0.003c0,0-0.008-0.002-0.003-0.005c-0.007-0.455-0.164-0.959-0.424-1.409l-1.107,0.639
							c0.26,0.45,0.424,0.956,0.422,1.417l-0.002,2.242l0.003,0.005l-0.006,51.499C212.096,183.683,211.931,183.972,211.66,184.13z"
							/>
					</g>
				</g>
				<g id="Book_66_">
					<g id="XMLID_5410_">
						<polygon id="XMLID_5457_" style="fill:#BA68C8;" points="170.326,123.63 200.673,141.372 192.348,194.709 162,176.969 						
							"/>
						<path id="XMLID_5456_" style="fill:#FFFFFF;" d="M199.477,142.208l-29.387-17.069c-1.891,1.539-4.496,2.553-7.804,3.05
							l29.127,16.989C191.413,145.178,193.514,144.868,199.477,142.208z"/>
						<path id="XMLID_5455_" style="fill:#BA68C8;" d="M188.37,144.942c1.559,0.906,4.297,1.035,6.114,0.287l5.766-2.37
							c1.817-0.747,2.027-2.086,0.467-2.992l-28.962-16.822l-1.43,0.584l28.47,16.64c0.936,0.543,0.81,1.347-0.281,1.794
							l-5.355,2.174c-1.09,0.448-2.734,0.37-3.669-0.174l-28.464-16.61l-1.619,0.666L188.37,144.942z"/>
						<path id="XMLID_5454_" style="opacity:0.6;fill:#FFFFFF;" d="M188.37,144.942c1.559,0.906,4.297,1.035,6.114,0.287l5.766-2.37
							c1.817-0.747,2.027-2.086,0.467-2.992l-28.962-16.822l-1.43,0.584l28.47,16.64c0.936,0.543,0.81,1.347-0.281,1.794
							l-5.355,2.174c-1.09,0.448-2.734,0.37-3.669-0.174l-28.464-16.61l-1.619,0.666L188.37,144.942z"/>
						<path id="XMLID_5414_" style="fill:#BA68C8;" d="M159.411,128.118l-8.325,53.337l28.959,16.82
							c1.559,0.905,4.298,1.035,6.115,0.288l5.767-2.369c0.905-0.374,1.412-0.892,1.497-1.437l8.325-53.337
							c-0.085,0.545-0.592,1.063-1.497,1.437l-5.769,2.375c-1.816,0.747-4.555,0.618-6.114-0.288L159.411,128.118z"/>
						<path id="XMLID_5413_" style="opacity:0.4;fill:#FFFFFF;" d="M159.411,128.118l-8.325,53.337l28.959,16.82
							c1.559,0.905,4.298,1.035,6.115,0.288l5.767-2.369c0.905-0.374,1.412-0.892,1.497-1.437l8.325-53.337
							c-0.085,0.545-0.592,1.063-1.497,1.437l-5.769,2.375c-1.816,0.747-4.555,0.618-6.114-0.288L159.411,128.118z"/>
						<path id="XMLID_5412_" style="fill:#BA68C8;" d="M191.33,145.708c1.107,0.052,2.246-0.102,3.154-0.476l5.769-2.375
							c0.905-0.374,1.412-0.892,1.497-1.437l-8.325,53.337c-0.085,0.545-0.592,1.063-1.497,1.437l-5.767,2.369
							c-0.908,0.373-2.047,0.528-3.154,0.476L191.33,145.708z"/>
						<path id="XMLID_5411_" style="opacity:0.7;fill:#FFFFFF;" d="M191.33,145.708c1.107,0.052,2.246-0.102,3.154-0.476
							l5.769-2.375c0.905-0.374,1.412-0.892,1.497-1.437l-8.325,53.337c-0.085,0.545-0.592,1.063-1.497,1.437l-5.767,2.369
							c-0.908,0.373-2.047,0.528-3.154,0.476L191.33,145.708z"/>
					</g>
				</g>
			</g>
			<g>
				<g>
					<g>
						<polygon style="fill:#37474F;" points="67.416,188.947 26.878,165.542 23.026,167.767 23.028,334.983 63.563,358.388 
							67.416,356.164 						"/>
					</g>
					<g>
						<polygon style="fill:#263238;" points="23.028,334.983 63.563,358.388 63.563,191.172 23.026,167.767 						"/>
					</g>
				</g>
				<g>
					<g>
						<polygon style="fill:#37474F;" points="247.858,80.307 207.322,56.902 23.028,163.318 23.028,167.767 63.563,191.172 
							247.858,84.756 						"/>
					</g>
					<g>
						<polygon style="fill:#455A64;" points="63.563,186.723 247.858,80.307 207.322,56.902 23.028,163.318 						"/>
					</g>
					<g>
						<polygon style="fill:#263238;" points="63.563,186.723 63.563,191.172 23.028,167.767 23.028,163.318 						"/>
					</g>
				</g>
			</g>
		</g>
		<g id="Picture_6_">
			<g>
				<polygon style="fill:#263238;" points="141.701,131.007 191.548,102.152 173.799,91.9 123.952,120.754 				"/>
			</g>
			<g id="Frame_6_">
				<polygon id="XMLID_9414_" style="fill:#FAFAFA;" points="144.012,120.951 146.06,121.937 183.973,100.048 181.926,99.061 				
					"/>
				<g id="XMLID_9410_">
					<g id="XMLID_9411_">
						<g id="XMLID_9412_">
							<polygon id="XMLID_9413_" style="fill:#FFFFFF;" points="181.926,99.061 145.86,119.88 140.614,65.933 176.681,45.127 
															"/>
						</g>
					</g>
				</g>
				<path id="XMLID_9407_" style="fill:#F0F0F0;" d="M181.643,38.22l-44.887,25.915l6.188,63.627l44.887-25.915L181.643,38.22z
					 M183.973,100.048l-37.913,21.889l-5.446-56.004l37.913-21.889L183.973,100.048z"/>
				<polygon id="XMLID_9406_" style="fill:#E0E0E0;" points="183.973,100.048 181.926,99.061 176.681,45.127 178.527,44.044 				"/>
				<polygon id="XMLID_9405_" style="fill:#FAFAFA;" points="181.643,38.22 179.568,37.26 134.682,63.175 136.756,64.135 				"/>
				<polygon id="XMLID_9404_" style="fill:#E0E0E0;" points="134.682,63.175 136.756,64.135 142.945,127.761 140.87,126.802 				"/>
			</g>
			<g id="Land_8_">
				<polygon style="fill:#BA68C8;" points="180.34,98.036 147.09,117.232 146.206,108.144 152.39,81.447 158.285,90.557 
					157.064,98.232 166.895,69.906 179.456,88.948 				"/>
				<path style="fill:#BA68C8;" d="M151.88,70.206c-1.358,0.784-2.342,2.623-2.198,4.108c0.145,1.485,1.363,2.053,2.721,1.269
					c1.358-0.784,2.342-2.623,2.198-4.109C154.456,69.99,153.238,69.422,151.88,70.206z"/>
			</g>
			<g id="Land_10_" style="opacity:0.4;">
				<polygon style="fill:#FFFFFF;" points="180.34,98.036 147.09,117.232 146.206,108.144 152.39,81.447 158.285,90.557 
					157.064,98.232 166.895,69.906 179.456,88.948 				"/>
				<path style="fill:#FFFFFF;" d="M151.88,70.206c-1.358,0.784-2.342,2.623-2.198,4.108c0.145,1.485,1.363,2.053,2.721,1.269
					c1.358-0.784,2.342-2.623,2.198-4.109C154.456,69.99,153.238,69.422,151.88,70.206z"/>
			</g>
		</g>
		<g id="Table_5_">
			<g id="Shadow_31_">
				<path id="Shadow_32_" style="fill:#263238;" d="M69.242,173.943c-6.403,0-12.377-1.63-16.822-4.586
					c-3.927-2.607-6.089-5.867-6.089-9.182c0-3.314,2.161-6.574,6.089-9.182c4.444-2.956,10.419-4.586,16.822-4.586
					c6.403,0,12.378,1.63,16.822,4.586c3.927,2.607,6.089,5.867,6.089,9.182c0,3.314-2.162,6.574-6.089,9.182
					C81.62,172.313,75.646,173.943,69.242,173.943z"/>
			</g>
			<g id="Lamp_15_">
				<g id="XMLID_7320_">
					<path id="XMLID_7325_" style="fill:#37474F;" d="M84.281,159.078c0.01-0.399-0.031-0.798-0.115-1.194
						c-0.714-4.47-4.576-9.299-7.269-10.837H61.708c-2.693,1.538-6.553,6.365-7.268,10.834c-0.085,0.398-0.127,0.798-0.116,1.198
						c-0.002,0.067,0.017,0.202,0.017,0.202c0.141,2.101,1.584,4.179,4.363,5.783c5.854,3.38,15.345,3.38,21.199,0
						c2.778-1.604,4.221-3.682,4.362-5.783C84.264,159.281,84.282,159.145,84.281,159.078z"/>
					<path id="XMLID_7323_" style="fill:#455A64;" d="M62.098,146.803c-3.979,2.297-3.979,6.021,0,8.318
						c3.979,2.297,10.429,2.297,14.408,0c3.979-2.297,3.979-6.021,0-8.318C72.527,144.506,66.076,144.506,62.098,146.803z"/>
				</g>
				<path id="XMLID_7316_" style="fill:#37474F;" d="M71.373,88.784h-4.141v60.586h0.017c-0.05,0.339,0.14,0.688,0.589,0.947
					c0.809,0.467,2.12,0.467,2.928,0c0.45-0.259,0.64-0.608,0.589-0.947h0.017V88.784z"/>
				<g>
					<path id="XMLID_1088_" style="fill:#BA68C8;" d="M38.651,80.729h-0.013l14.438-36.812h32.457L99.97,80.729h-0.017
						c2.056,5.758-0.77,11.981-8.509,16.449c-12.228,7.06-32.056,7.06-44.284,0C39.421,92.71,36.595,86.487,38.651,80.729z"/>
					<g id="XMLID_1087_" style="opacity:0.4;">
						<path style="fill:#FFFFFF;" d="M38.651,80.729h-0.013l14.438-36.812h32.457L99.97,80.729h-0.017
							c2.056,5.758-0.77,11.981-8.509,16.449c-12.228,7.06-32.056,7.06-44.284,0C39.421,92.71,36.595,86.487,38.651,80.729z"/>
					</g>
					<path style="opacity:0.2;fill:#BA68C8;" d="M54.622,87.722c-5.879-9.55,1.641-27.628,7.168-42.719l0.008-1.086h-8.722
						L38.638,80.729h0.013c-2.056,5.758,0.77,11.981,8.509,16.449c12.229,7.06,32.056,7.06,44.284,0
						C80.393,101.515,60.501,97.272,54.622,87.722z"/>
					<g>
						<path id="XMLID_1081_" style="fill:#BA68C8;" d="M81.045,52.733c-6.486,3.744-17,3.744-23.486,0
							c-6.485-3.744-6.485-9.815,0-13.56c6.485-3.744,17-3.744,23.486,0C87.53,42.918,87.53,48.989,81.045,52.733z"/>
					</g>
					<g style="opacity:0.6;">
						<g id="XMLID_1075_">
							<path style="fill:#FFFFFF;" d="M81.045,52.733c-6.486,3.744-17,3.744-23.486,0c-6.485-3.744-6.485-9.815,0-13.56
								c6.485-3.744,17-3.744,23.486,0C87.53,42.918,87.53,48.989,81.045,52.733z"/>
						</g>
					</g>
					<g>
						<path id="XMLID_1072_" style="fill:#BA68C8;" d="M69.302,53.615c4.103,0,7.931-0.907,10.778-2.552
							c2.517-1.451,3.901-3.266,3.901-5.11c0-1.845-1.385-3.659-3.901-5.109c-2.848-1.645-6.676-2.553-10.778-2.553
							c-4.103,0-7.931,0.908-10.778,2.553c-2.516,1.45-3.902,3.265-3.902,5.109c0,1.844,1.386,3.659,3.902,5.11
							C61.371,52.708,65.199,53.615,69.302,53.615z"/>
					</g>
				</g>
			</g>
		</g>
		<g id="Mirror_8_">
			<polygon style="fill:#FAFAFA;" points="152.37,139.9 67.416,188.947 67.418,351.594 152.37,302.547 			"/>
			<g id="Character_9_" style="opacity:0.45;">
				<path style="fill:#F28F8F;" d="M146.488,258.904v38.986l-1.959,1.132c-1.161-1.027-2.368-2.111-3.586-3.205
					c-6.42-5.821-13.011-12.031-13.011-12.031l-2.34-29.379l-0.485-6.087C134.599,250.192,139.364,252.256,146.488,258.904z"/>
				<g id="Top_4_">
					<g>
						<path style="fill:#BA68C8;" d="M141.371,300.838l-39.642,22.902l-0.019,0.009l-21.818,12.593l-1.332,0.77h-0.009l-5.25,3.034
							V250.23c3.414-0.609,7.143-1.17,10.709-1.607c2.977-0.371,5.84-0.666,8.313-0.856c5.868-0.456,11.223-1.084,21.286-0.476
							c2.634,0.162,5.592,0.4,8.979,0.751c0.818,0.086,1.655,0.181,2.52,0.276c0,0,6.839,8.303,11.204,20.782
							c1.303,3.7,2.387,7.771,3.006,12.098c0.628,4.394,1.17,9.539,1.626,14.618C141.095,297.509,141.238,299.193,141.371,300.838z"
							/>
					</g>
					<path style="opacity:0.1;" d="M101.71,323.75l-21.818,12.593l-1.332,0.77c1.075-1.046,2.197-2.035,3.357-2.977l0.01-0.01
						c2.283-1.864,4.717-3.567,7.314-5.06C93.16,326.822,97.363,325.034,101.71,323.75z"/>
					<g id="Arm_4_">
						<g>
							<path style="fill:#FFA8A7;" d="M144.471,244.001c-0.257,2.473,0.475,4.946,2.016,6.838v30.92
								c-4.223-5.497-7.542-9.587-9.91-12.345c-0.086-0.105-0.181-0.209-0.266-0.314c-4.309-5.06-8.436-11.289-10.719-14.694
								c-0.713-1.075-1.246-1.864-1.55-2.254c-0.913-1.389-1.389-2.768-1.455-4.109c-0.038-0.694,0.057-1.379,0.228-2.045
								c0-0.01,0.01-0.019,0.01-0.029c0.048-0.181,0.104-0.361,0.171-0.542c0.038-0.105,0.086-0.219,0.133-0.333
								c0.104-0.266,0.228-0.523,0.361-0.78c0.095-0.171,0.2-0.352,0.304-0.523c0.019-0.048,0.048-0.095,0.076-0.133
								c0.019-0.038,0.048-0.076,0.076-0.124c0.105-0.171,0.228-0.342,0.371-0.504c0.181-0.238,0.371-0.476,0.58-0.704
								c0.523-0.59,1.122-1.151,1.817-1.693c0.133-0.105,0.276-0.209,0.418-0.314c0.238-0.181,0.466-0.361,0.685-0.561
								c0.447-0.39,0.875-0.799,1.275-1.236c0.209-0.219,0.399-0.438,0.59-0.666c0.333-0.409,0.656-0.827,0.951-1.265
								c0.095-0.133,0.19-0.276,0.285-0.419c0.181-0.276,0.352-0.552,0.514-0.837c0.066-0.095,0.124-0.181,0.171-0.276
								c0.162-0.285,0.323-0.58,0.476-0.885c0.171-0.314,0.333-0.647,0.485-0.98c0.352-0.742,0.666-1.503,0.942-2.283
								c0.143-0.38,0.276-0.761,0.399-1.151c0.105-0.314,0.2-0.628,0.295-0.951c0.057-0.162,0.105-0.314,0.143-0.476
								c0.095-0.304,0.171-0.618,0.247-0.923c0.076-0.266,0.143-0.533,0.2-0.799c0.124-0.485,0.229-0.97,0.324-1.455
								c0.086-0.371,0.152-0.751,0.219-1.122c0.048-0.257,0.095-0.514,0.133-0.761c0.105-0.58,0.19-1.16,0.266-1.74
								c0.066-0.514,0.133-1.018,0.19-1.522c0.038-0.333,0.076-0.666,0.104-0.999c0.076-0.732,0.133-1.465,0.181-2.178
								c0.019-0.285,0.038-0.571,0.057-0.856c0.067-1.141,0.105-2.245,0.124-3.291c0.01-0.105,0.019-0.209,0.029-0.314
								c0.009-0.114,0.019-0.228,0.029-0.352c0.057-0.713,0.133-1.579,0.266-2.473c0.038-0.228,0.067-0.466,0.105-0.704
								c0-0.01,0-0.019,0-0.019c0.086-0.485,0.19-0.98,0.295-1.455c0.038-0.162,0.085-0.323,0.133-0.485
								c0.067-0.247,0.143-0.495,0.228-0.732c0.086-0.238,0.171-0.466,0.266-0.685c0.057-0.133,0.114-0.257,0.181-0.38
								c0.057-0.124,0.124-0.238,0.19-0.342c0,0,0,0,0.009-0.009c0.076-0.133,0.162-0.257,0.248-0.371
								c0.076-0.114,0.162-0.219,0.247-0.304c0.048-0.057,0.095-0.105,0.152-0.152c0.066-0.076,0.143-0.143,0.219-0.2
								c0.104-0.086,0.219-0.152,0.333-0.219c0.076-0.048,0.152-0.085,0.238-0.114c0.038-0.019,0.085-0.029,0.123-0.048
								c0.618-0.219,1.36-0.162,2.244,0.266c0.438,0.209,0.285,1.531,0.171,3.842v0.01c-0.029,0.59-0.057,1.236-0.067,1.959
								c1.075-0.989,2.891-0.951,3.196-0.029c0.228,0.666,0.437,2.701,0.476,4.118c0.038,1.769,0.428,4.508,0.789,7.352v11.242
								C145.755,235.774,144.861,240.424,144.471,244.001z"/>
							<path style="fill:#F28F8F;" d="M122.817,245.995c0.536-2.046,2.016-3.973,4.319-5.68c7.524-5.708,9.082-18.686,9.251-27.621
								c0.214-2.6,0.63-8.459,3.289-9.366c1.009,6.096,0.546,19.041-1.022,26.877c-1.648,8.232-6.104,13.504-9.445,14.919
								C127.648,245.785,125.097,245.977,122.817,245.995z"/>
							<path style="fill:#F28F8F;" d="M142.028,209.411c-1.834,0.865-2.042,9.621-2.042,9.621s-0.364-6.148-0.097-7.578
								c0.656-3.513,2.209-4.01,2.209-4.01L142.028,209.411z"/>
						</g>
					</g>
					<g id="Head_3_">
						<path style="fill:#263238;" d="M146.488,185.166v3.101c-0.751,0.942-1.978,1.408-3.709,1.179
							c1.056,1.826,1.179,4.118,0.409,6.163c-0.809,2.14-2.777,3.481-4.689,3.919c-0.571,0.133-1.132,0.181-1.655,0.152
							c-0.19,0.637-0.342,1.265-0.504,1.864c-0.171,0.561-0.352,1.113-0.618,1.645c0,0,0,0-0.009,0
							c-0.2,0.418-0.457,0.827-0.799,1.227c-0.571,0.666-1.217,1.313-1.931,1.883c-0.751,0.609-1.569,1.122-2.444,1.455
							c-0.352,0.133-0.694,0.257-1.046,0.38c-1.541,0.523-3.11,0.913-4.698,1.217c-1.503,0.304-3.015,0.533-4.537,0.732
							c-2.235,0.295-4.499,0.514-6.734,0.79c-2.273,0.276-4.537,0.561-6.81,0.837c-0.39,0.048-2.425,0.01-2.691,0.333
							l-12.212,15.151l-0.903,1.122l-4.851,6.02c-0.105-1.208-0.371-2.425-0.761-3.662c-0.571-1.826-1.389-3.662-2.33-5.497
							c-2.226-4.366-5.098-8.665-6.667-12.44c-0.694-1.664-1.303-3.224-1.798-4.727c-0.523-1.512-0.923-2.967-1.198-4.404v-8.541
							c0.076-0.333,0.181-0.666,0.295-0.999l51.512-29.741c0.4,0.114,0.799,0.238,1.198,0.38c3.614,1.236,5.107,4.508,4.461,7.875
							c5.402-2.473,9.854,1.56,10.082,4.641c0.171,2.273-0.466,4.128,0.847,6.258C142.854,185.384,145.07,185.917,146.488,185.166z"
							/>
						<g id="XMLID_353_">
							<path style="fill:#FFA8A7;" d="M138.013,209.866c0.751,7.656-0.181,17.557-2.53,23.654
								c-1.74,4.546-5.184,10.044-14.124,10.253c-3.376,0.076-7.466-0.219-7.466-0.219l-0.713,8.065
								c3.281,4.66,5.83,10.804-3.11,12.307c-6.915,1.17-22.123-1.864-26.307-12.526l1.959-27.344c0,0-3.434,2.539-7.561,0.438
								c-2.673-1.37-4.318-4.185-4.908-7.352v-5.497c0.324-1.778,0.97-3.481,1.95-4.917c2.654-3.9,8.569-2.73,10.966,0.314
								c2.349,2.986,2.264,6.144,4.765,6.429c3.472,0.38,3.643-5.003,3.548-7.143c5.954-2.53,7.59-8.132,6.705-16.102
								c13.839-6.953,29.779-4.489,35.495,0.932c0.989,4.451,2.463,7.723,1.503,12.849
								C137.833,205.938,137.823,207.916,138.013,209.866z"/>
							<path style="fill:#B16668;" d="M118.405,229.144c-0.18-0.56-0.525-1.061-0.954-1.501c-0.507-0.519-1.09-0.93-1.743-1.245
								c-1.252-0.604-2.781-0.757-3.966,0.033c-0.098,0.065-0.2,0.146-0.222,0.261c-0.027,0.14,0.084,0.277,0.216,0.331
								c0.568,0.23,1.4,0.104,2.018,0.257c0.593,0.147,1.213,0.358,1.747,0.659c0.498,0.281,1.025,0.635,1.38,1.089
								c0.3,0.383,0.533,0.813,0.83,1.198c0.109,0.142,0.262,0.373,0.467,0.361c0.179-0.01,0.338-0.176,0.353-0.344
								C118.564,229.854,118.516,229.488,118.405,229.144z"/>
							<path style="fill:#F28F8F;" d="M113.94,243.53c-8.733-1.757-15.355-3.262-19.429-10.025
								c-2.555-4.241-3.783-10.475-3.783-10.475s-0.414,7.473,2.034,12.998c1.887,4.258,7.152,8.112,20.88,10.427L113.94,243.53z"/>
						</g>
						<g id="XMLID_259_">
							<path id="XMLID_352_" style="fill:#263238;" d="M114.408,208.374c-0.144,1.493-1.427,2.587-2.863,2.444
								c-1.437-0.143-2.484-1.47-2.339-2.963c0.145-1.493,1.426-2.588,2.864-2.444C113.506,205.555,114.553,206.881,114.408,208.374
								z"/>
							<path id="XMLID_324_" style="fill:#263238;" d="M105.316,202.576l4.456-4.14c1.133,1.294,1.052,3.271-0.178,4.414
								C108.364,203.993,106.448,203.87,105.316,202.576z"/>
							<path id="XMLID_323_" style="fill:#263238;" d="M132.376,198.27l4.724,3.906c-1.037,1.355-2.937,1.58-4.241,0.501
								C131.554,201.599,131.337,199.626,132.376,198.27z"/>
							<path id="XMLID_313_" style="fill:#263238;" d="M134.622,209.092c-0.145,1.493-1.426,2.587-2.863,2.443
								c-1.436-0.144-2.484-1.469-2.339-2.962c0.145-1.493,1.427-2.587,2.863-2.444C133.72,206.272,134.767,207.598,134.622,209.092
								z"/>
							<path style="fill:#F28F8F;" d="M130.069,218.005l-8.569,4.146l-1.689-16.448
								C122.656,205.559,126.646,211.215,130.069,218.005z"/>
						</g>
					</g>
				</g>
			</g>
			<g style="opacity:0.1;">
				<polygon style="fill:#BA68C8;" points="67.416,209.611 67.416,221.426 90.164,175.814 81.889,180.592 				"/>
				<polygon style="fill:#BA68C8;" points="118.846,159.255 101.328,169.369 67.416,237.364 67.417,262.374 				"/>
				<polygon style="fill:#BA68C8;" points="152.37,162.306 67.417,332.641 67.417,351.594 76.759,346.201 152.37,194.595 				"/>
				<polygon style="fill:#BA68C8;" points="152.324,139.927 144.048,144.705 67.417,298.356 67.417,310.17 				"/>
				<polygon style="fill:#BA68C8;" points="152.37,265.014 126.081,317.724 148.697,304.667 152.37,297.303 				"/>
				<polygon style="fill:#BA68C8;" points="152.37,236.794 106.316,329.135 114.592,324.358 152.37,248.61 				"/>
			</g>
		</g>
		<polygon style="fill:#37474F;" points="156.223,137.305 156.223,303.724 152.37,305.788 152.37,139.53 		"/>
	</g>
</g>
<g id="Weighing_Machine_1_">
	<g id="Weighing_Machine">
		<path style="fill:#BA68C8;" d="M251.032,360.273c-0.003-1.007-0.741-2.068-2.177-2.897l-54.069-31.217
			c-12.698-7.331-31.906-8.128-42.903-1.779l-47.991,27.708c-4.99,2.881-7.431,6.739-7.422,10.778
			c0.003,1.515,0.033,7.438,0.028,8.923c-0.016,4.87,3.523,10.006,10.474,14.019l54.069,31.217c2.632,1.52,6.613,1.685,8.893,0.368
			l79.56-45.934c1.05-0.606,1.555-1.421,1.538-2.272C251.011,368.191,251.035,361.111,251.032,360.273z"/>
		<path style="opacity:0.2;" d="M166.23,409.336v8.926c-1.801,0.027-3.711-0.379-5.188-1.233l-54.069-31.22
			c-6.948-4.009-10.497-9.156-10.47-14.018c0-1.49-0.027-7.409-0.041-8.926c0,4.862,3.562,9.982,10.51,13.991l54.069,31.22
			C162.519,408.929,164.429,409.349,166.23,409.336z"/>
		<path id="XMLID_1066_" style="fill:#BA68C8;" d="M249.493,362.51l-79.56,45.934c-2.279,1.316-6.261,1.151-8.893-0.369
			l-54.069-31.217c-12.698-7.331-14.077-18.421-3.08-24.77l47.991-27.708c10.997-6.349,30.205-5.553,42.903,1.779l54.069,31.217
			C251.486,358.895,251.772,361.194,249.493,362.51z"/>
		<g id="XMLID_1065_" style="opacity:0.3;">
			<path style="fill:#FFFFFF;" d="M249.493,362.51l-79.56,45.934c-2.279,1.316-6.261,1.151-8.893-0.369l-54.069-31.217
				c-12.698-7.331-14.077-18.421-3.08-24.77l47.991-27.708c10.997-6.349,30.205-5.553,42.903,1.779l54.069,31.217
				C251.486,358.895,251.772,361.194,249.493,362.51z"/>
		</g>
		<path id="XMLID_1061_" style="fill:#37474F;" d="M187.982,329.4l50.559,29.19c1.47,0.849,1.47,2.224,0,3.073l-70.074,40.457
			c-1.47,0.849-3.852,0.849-5.322,0l-50.559-29.191c-8.94-5.162-8.94-13.53,0-18.692h0c1.47-0.849,3.852-0.849,5.322,0l11.753,6.785
			c1.47,0.848,3.853,0.848,5.322,0l32.376-18.692c1.47-0.849,1.47-2.224,0-3.073l-11.753-6.786c-1.47-0.849-1.47-2.224,0-3.073l0,0
			C164.546,324.238,179.041,324.238,187.982,329.4z"/>
		<path id="XMLID_1032_" style="fill:#FAFAFA;" d="M163.828,341.194l-30.815,17.791c-7.912-4.568-7.433-12.25,1.082-17.166
			C142.611,336.903,155.916,336.626,163.828,341.194z"/>
		<g id="XMLID_1000_">
			<path style="fill:#BA68C8;" d="M140.501,346.964c-0.648-0.374-0.648-0.981-0.001-1.355l0.158-0.091
				c0.648-0.375,1.698-0.375,2.345-0.001l6.671,3.852l-2.503,1.448L140.501,346.964z"/>
		</g>
	</g>
</g>
<g id="Character">
	<g id="Character_11_">
		<path style="fill:#F28F8F;" d="M344.413,227.026c-13.557,2.67-18.308,5.705-31.435,19.715
			c-13.127,14.01-47.368,49.787-47.368,49.787s2.815,7.736,20.272,6.376c17.457-1.36,25.691-10.487,32.752-16.421
			c7.901-6.64,22.685-20.586,22.685-20.586L344.413,227.026z"/>
		<g id="Top_7_">
			<path style="fill:#455A64;" d="M429.446,319.716c-4.28,32.725-12.374,58.661-32.191,75.371l-76.091-59.645l2.127-38.88
				L429.446,319.716z"/>
			<g>
				<path style="fill:#BA68C8;" d="M409.198,230.757c-7.617-1.873-20.342-3.685-28.861-4.338c-8.519-0.652-16.059-1.65-35.925,0.606
					c0,0-12.591,15.3-15.574,36.042c-2.35,16.339-3.613,42.266-3.613,42.266c-0.733,10.547-0.772,18.453-0.674,23.95
					c8.04,7.041,26.41,9.722,47.168,12.547c16.885,2.298,37.619,16.041,44.084,29.896c10.001-17.07,13.379-45.446,14.634-57.179
					c1.414-13.222,1.768-25.572-1.02-40.428C423.559,242.908,417.724,232.853,409.198,230.757z"/>
			</g>
			<path style="opacity:0.1;" d="M405.606,336.573c-5.718-8.576-12.901-15.868-21.883-21.04c-8.851-5.096-19.064-7.993-29.24-8.596
				c-5.817-0.345-11.86-0.115-17.478,1.532c-1.301,0.382-0.496,2.559,0.708,2.403c10.124-1.313,20.127-1.503,30.073,1.117
				c9.767,2.573,18.582,7.477,26.406,13.798c4.059,3.279,7.879,7.149,10.978,11.352
				C405.419,337.477,405.777,336.829,405.606,336.573z"/>
			<g id="Arm_2_">
				<g>
					<path style="fill:#FFA8A7;" d="M345.58,231.227c3.09-4.704,1.56-9.298-3.393-12.969c-8.246-6.256-9.954-20.481-10.139-30.273
						c-0.289-3.513-0.914-12.458-6.066-9.966c-0.604,0.292-0.193,2.497-0.117,6.368c-1.174-1.083-3.167-1.044-3.506-0.037
						c-0.246,0.729-0.476,2.96-0.512,4.514c-0.091,3.94-1.753,12.277-1.543,17.05c0.826,4.148,2.332,11.264,2.879,16.387
						c0.348,3.264-0.879,6.512-3.352,8.669c-4.566,3.982-9.469,7.339-17.298,12.967c-9.73,6.995-16.821,10.998-26.887,19.203
						c-8.215,6.696-10.397,13.18-11.331,24.859c-0.883,11.041,5.139,13.099,11.6,13.389c14.084,0.632,20.102-3.459,28.068-14.633
						c13.17-18.473,22.623-30.532,27.851-36.6C338.15,242.821,344.184,233.048,345.58,231.227z"/>
					<path style="fill:#F28F8F;" d="M346.92,224.483c-0.588-2.243-2.21-4.355-4.733-6.226c-8.246-6.256-9.954-20.48-10.139-30.272
						c-0.234-2.849-0.691-9.271-3.604-10.266c-1.105,6.681-0.599,20.869,1.121,29.457c1.806,9.023,6.69,14.8,10.351,16.351
						C341.625,224.252,344.421,224.462,346.92,224.483z"/>
					<path style="fill:#F28F8F;" d="M325.865,184.387c2.01,0.949,2.238,10.544,2.238,10.544s0.399-6.738,0.106-8.305
						c-0.719-3.85-2.422-4.395-2.422-4.395L325.865,184.387z"/>
				</g>
			</g>
			<g id="Head_7_">
				<path style="fill:#263238;" d="M387.211,211.709c0.688-7.878,7.76-16.615,10.693-23.674c2.828-6.805,4.415-12.036,3.536-18.146
					c-0.521-3.62-3.214-8.363-5.995-9.179c2.022-13.773-8.633-19.223-14.125-20.068c-2.106-0.324-5.579-0.807-7.623-1.474
					c-3.028-0.987-3.882-3.289-6.407-5.103c-4.346-3.123-11.201-2.644-13.385,2.794c-2.99-3.28-6.654-2.891-10.807-1.469
					c-3.96,1.356-5.6,4.941-4.885,8.634c-5.926-2.713-10.805,1.714-11.055,5.09c-0.185,2.49,0.508,4.522-0.923,6.857
					c-1.611,2.629-5.042,2.865-6.244,0.945c-0.302,3.542,1.278,6.094,5.051,5.592c-1.152,1.998-1.291,4.507-0.445,6.748
					c1.147,3.038,4.426,4.613,6.952,4.463c0.557,1.884,0.782,3.635,2.12,5.189c1.288,1.496,2.918,2.949,4.787,3.66
					c5.958,2.268,12.375,2.642,18.657,3.418c2.486,0.307,4.971,0.615,7.457,0.923c0.434,0.054,2.66,0.008,2.954,0.367
					C367.523,187.277,387.211,211.709,387.211,211.709z"/>
				<g id="XMLID_1151_">
					<path style="fill:#FFA8A7;" d="M395.808,200.893c-4.525,2.311-8.285-0.482-8.285-0.482l2.152,29.971
						c-4.59,11.684-21.259,15.013-28.84,13.736c-9.797-1.65-7.006-8.386-3.402-13.491l-0.783-8.847c0,0-4.486,0.332-8.184,0.245
						c-9.803-0.23-13.568-6.252-15.485-11.242c-2.566-6.678-3.596-17.531-2.77-25.918c0.211-2.143,0.204-4.311-0.19-6.427
						c-1.048-5.619,0.572-9.198,1.649-14.077c6.266-5.947,23.736-8.643,38.909-1.028c-0.971,8.739,0.815,14.884,7.34,17.654
						c-0.104,2.347,0.084,8.24,3.894,7.821c2.745-0.302,2.648-3.768,5.224-7.037c2.629-3.337,9.104-4.622,12.02-0.347
						C403.137,187.405,402.036,197.712,395.808,200.893z"/>
					<path style="fill:#B16668;" d="M351.755,206.014c0.197-0.614,0.575-1.163,1.046-1.645c0.556-0.569,1.195-1.019,1.91-1.364
						c1.372-0.662,3.049-0.83,4.347,0.036c0.107,0.071,0.219,0.16,0.243,0.286c0.029,0.153-0.092,0.303-0.237,0.362
						c-0.623,0.252-1.534,0.114-2.212,0.282c-0.65,0.162-1.33,0.393-1.914,0.722c-0.546,0.308-1.124,0.696-1.513,1.193
						c-0.329,0.42-0.584,0.891-0.91,1.313c-0.12,0.156-0.287,0.409-0.512,0.396c-0.196-0.011-0.371-0.193-0.386-0.377
						C351.582,206.792,351.634,206.39,351.755,206.014z"/>
					<path style="fill:#F28F8F;" d="M356.65,221.781c9.571-1.926,16.829-3.575,21.294-10.987c2.801-4.649,4.146-11.48,4.146-11.48
						s0.454,8.191-2.23,14.246c-2.068,4.667-7.839,8.891-22.884,11.427L356.65,221.781z"/>
				</g>
				<g id="XMLID_1089_">
					<path id="XMLID_1102_" style="fill:#263238;" d="M356.136,183.25c0.158,1.636,1.564,2.835,3.138,2.679
						c1.575-0.157,2.722-1.611,2.564-3.247c-0.159-1.637-1.563-2.836-3.138-2.679C357.126,180.16,355.978,181.614,356.136,183.25z"
						/>
					<path id="XMLID_1096_" style="fill:#263238;" d="M366.101,176.895l-4.884-4.538c-1.241,1.418-1.153,3.585,0.195,4.838
						C362.761,178.449,364.86,178.314,366.101,176.895z"/>
					<path id="XMLID_1094_" style="fill:#263238;" d="M336.444,172.176l-5.177,4.281c1.137,1.485,3.219,1.732,4.648,0.549
						C337.345,175.824,337.582,173.662,336.444,172.176z"/>
					<path id="XMLID_1090_" style="fill:#263238;" d="M333.983,184.037c0.159,1.636,1.563,2.835,3.138,2.677
						c1.574-0.157,2.722-1.61,2.563-3.247c-0.159-1.636-1.564-2.835-3.138-2.679C334.971,180.947,333.823,182.4,333.983,184.037z"/>
					<path style="fill:#F28F8F;" d="M338.973,193.806l9.392,4.545l1.852-18.027C347.097,180.165,342.724,186.364,338.973,193.806z"
						/>
				</g>
			</g>
		</g>
		<g id="Bottom_10_">
			<g>
				<g>
					<path style="fill:#FFA8A7;" d="M258.343,383.993c1.243-3.714,4.499-12.772,6.737-19.367c-5.833-1.028-25.719-7.445-29.77-9.535
						c-1.288,8.796-2.007,15.064-2.817,19.416c-2.588,13.901-3.643,24.564-13.102,33.812c-5.066,4.953-10.947,9.191-16.295,12.807
						c-6.065,4.101-10.816,6.9-12.239,9.573c-2.515,4.727,4.327,15.91,29.501,10.031c9.565-2.234,13.094-7.201,15.949-11.145
						c3.462-4.782,4.59-7.695,10.557-9.681c11.845-3.942,11.938-8.975,11.523-14.527
						C257.854,398.22,254.356,395.905,258.343,383.993z"/>
					<path style="fill:#37474F;" d="M361.45,382.664c-13.225,22.449-42.481,24.287-60.155,15.117
						c-31.322-16.25-56.015-90.234-53.073-108.312c2.976-18.284,22.519-28.586,53.091-0.49
						c16.407,15.078,25.426,30.682,37.395,51.203c5.316,2.237,23.313,13.554,27.806,26.393
						C365.727,372.101,364.463,376.865,361.45,382.664z"/>
					<path style="fill:#263238;" d="M277.022,294.714c5.769,6.407,20.673,37.749,22.835,57.134
						c0.608,5.453,9.179,25.481,16.899,33.676c13.599,14.436,33.063,9.845,39.916,3.652c-14.298,16.375-39.715,16.73-55.376,8.605
						c-20.279-10.521-38.01-47.05-47.201-76.412L277.022,294.714z"/>
					<path style="fill:#37474F;" d="M262.389,272.444c-9.926,2.235-20.124,13.432-25.073,48.595
						c-4.496,31.94-6.523,49.991-6.523,49.991s13.133,10.169,31.413,8.273c0,0,4.641-11.581,10.313-28.587
						c5.672-17.007,10.238-34.414,6.132-51.227C274.545,282.676,262.389,272.444,262.389,272.444z"/>
				</g>
			</g>
			<g>
				<g>
					<path style="fill:#455A64;" d="M399.337,394.087c-23.042,20.045-46.178,22.046-63.852,12.876
						c-31.322-16.25-46.008-122.433-34.134-124.545c13.188-2.346,24.163,5.236,35.285,17.055
						c15.272,16.227,26.773,30.765,41.579,52.129c5.316,2.238,26.976,16.957,31.47,29.797
						C406.211,386.902,404.363,388.628,399.337,394.087z"/>
					<path style="fill:#37474F;" d="M311.211,303.896c5.769,6.406,11.099,42.265,11.197,61.77
						c0.083,16.522,6.999,30.878,26.965,37.206c18.906,5.992,36.164,0.469,42.719-3.067c-19.082,14.681-40.946,15.284-56.607,7.159
						c-20.279-10.521-38.01-47.05-47.201-76.412L311.211,303.896z"/>
					<path style="fill:#FFA8A7;" d="M297.675,400.446c1.158-3.822,4.212-13.153,6.3-19.942
						c-5.976-0.877-25.658-13.214-29.849-15.226c-1.171,10.837-2.384,21.794-3.082,26.254c-2.231,14.247-2.994,25.149-12.365,34.854
						c-5.019,5.198-10.89,9.691-16.236,13.534c-6.063,4.358-10.824,7.351-12.196,10.118c-2.425,4.893,4.878,16.093,30.368,9.361
						c9.685-2.558,13.137-7.725,15.932-11.829c3.389-4.977,4.454-7.98,10.479-10.179c11.96-4.366,11.906-9.499,11.321-15.147
						C297.594,414.963,293.96,412.707,297.675,400.446z"/>
					<path style="fill:#455A64;" d="M301.35,282.418c-9.949,2.127-20.851,13.277-24.39,44.854
						c-3.592,32.055-6.525,60.247-6.525,60.247s12.289,9.22,30.59,7.523c0,0,5.649-15.477,11.506-32.42
						c5.857-16.944,10.612-34.301,6.69-51.157C315.298,294.609,301.35,282.418,301.35,282.418z"/>
				</g>
			</g>
		</g>
		<g>
			<path style="fill:#FFA8A7;" d="M472.851,318.69c-2.027-6.543-5.852-15.303-15.508-34.564
				c-10.815-21.572-15.933-30.659-25.567-42.297c-7.106-8.584-22.578-11.071-22.578-11.071s-4.105,9.064-2.767,23.983
				c1.296,14.449,10.963,31.256,10.963,31.256l20.604,33.376c-5.685,4.021-17.615,11.946-23.13,11.781
				c-3.041-0.091-4.583-0.861-6.385-2.145c-4.236-3.02-5.478-5.203-10.84-6.935c-3.163-1.022-6.007-1.088-6.007-1.088
				c3.817,3.846,8.409,9.32,4.067,14.609c-2.632,3.205-7.513,4.838-11.438,5.334c-2.031,0.257-5.468,0.223-8.181-0.298
				c-2.357-0.452-4.604-1.34-6.581-3.286c-0.666,1.781-0.93,3.449,0.016,5.098c0.946,1.649,2.687,3.082,4.344,4.154
				c-0.112,1.169,0.186,2.504,0.957,3.454c2.173,2.676,4.868,3.618,4.868,3.618c0.271,1.148,0.686,2.035,1.559,2.687
				c2.093,1.563,3.74,1.553,5.491,1.678c1.388,0.099,3.735,0.071,3.735,0.071c2.467,2.281,7.805,2.581,10.776,2.351
				c3.115-0.241,6.472-0.657,9.521-1.197c3.045-0.539,5.92-1.849,8.856-2.78c8.004-2.54,18.325-6.054,18.325-6.054
				s16.119-5.45,28.194-11.355C477.929,333.31,476.027,328.942,472.851,318.69z"/>
			<path style="fill:#F28F8F;" d="M437.998,319.372c5.44-3.623,18.099-7.336,26.116-1.777c-7.748-7.647-19.733-5.35-27.72-0.822
				L437.998,319.372z"/>
		</g>
	</g>
</g>
<g id="Hearts">
	<g id="Heart">
		<path style="fill:#BA68C8;" d="M437.897,191.036l-1.664-5.754c0.418-8.615-5.341-14.23-11.704-12.283
			c-6.363,1.948-9.079,17.883,6.534,34.061l3.157-5.175l-2.524-6.526L437.897,191.036z M454.408,180.062
			c-4.807-4.596-12.467-2.178-15.971,5.712l1.664,5.754l-6.202,4.323l2.524,6.526l-3.157,5.175
			C454.472,200.117,459.213,184.669,454.408,180.062z"/>
		<path style="opacity:0.5;fill:#FFFFFF;" d="M437.897,191.036l-1.664-5.754c0.418-8.615-5.341-14.23-11.704-12.283
			c-6.363,1.948-9.079,17.883,6.534,34.061l3.157-5.175l-2.524-6.526L437.897,191.036z M454.408,180.062
			c-4.807-4.596-12.467-2.178-15.971,5.712l1.664,5.754l-6.202,4.323l2.524,6.526l-3.157,5.175
			C454.472,200.117,459.213,184.669,454.408,180.062z"/>
	</g>
	<g id="Heart_1_">
		<path style="fill:#BA68C8;" d="M462.433,219.574l-2.499-2.833c-2.082-5.025-6.879-6.676-9.983-3.852
			c-3.104,2.825-0.36,12.643,12.9,17.663l0.406-3.801l-3.197-3.042L462.433,219.574z M468.893,208.868
			c-3.979-1.326-7.696,2.116-7.569,7.559l2.499,2.833l-2.372,4.136l3.197,3.042l-0.406,3.801
			C474.331,220.288,472.874,210.201,468.893,208.868z"/>
		<path style="opacity:0.2;fill:#FFFFFF;" d="M462.433,219.574l-2.499-2.833c-2.082-5.025-6.879-6.676-9.983-3.852
			c-3.104,2.825-0.36,12.643,12.9,17.663l0.406-3.801l-3.197-3.042L462.433,219.574z M468.893,208.868
			c-3.979-1.326-7.696,2.116-7.569,7.559l2.499,2.833l-2.372,4.136l3.197,3.042l-0.406,3.801
			C474.331,220.288,472.874,210.201,468.893,208.868z"/>
	</g>
</g>
<g id="Speech_Bubble">
	<g id="Speech_Bubble_22_">
		<g id="Speech_Bubble_23_">
			<path style="fill:#FFFFFF;" d="M340.713,72.684c4.141,7.2,5.098,15.365,3.339,22.88l-1.023,3.456
				c-2.433,6.788-7.185,12.789-13.915,16.66c-15.049,8.656-34.336,3.455-42.993-11.594c-3.871-6.73-4.963-14.307-3.652-21.398
				l0.853-3.502c2.258-7.381,7.19-13.958,14.39-18.099C312.766,52.428,332.053,57.629,340.713,72.684z"/>
			<path style="fill:#455A64;" d="M296.332,58.805c-16.31,9.42-21.917,30.357-12.496,46.667
				c8.452,14.634,26.169,20.638,41.503,14.916l8.268,6.65c1.412,1.136,3.483-0.06,3.204-1.851l-1.629-10.486
				c12.616-10.423,16.268-28.768,7.817-43.401C333.579,54.991,312.643,49.384,296.332,58.805z M340.689,72.636
				c4.154,7.192,5.125,15.356,3.379,22.874l-1.017,3.458c-2.421,6.792-7.163,12.801-13.886,16.684
				c-15.034,8.683-34.33,3.516-43.013-11.518c-3.883-6.723-4.988-14.297-3.69-21.391l0.847-3.503
				c2.245-7.384,7.165-13.971,14.357-18.125C312.706,52.43,332.003,57.597,340.689,72.636z"/>
		</g>
		<path style="fill:#BA68C8;" d="M308.7,88.463l-10.177,10.043c-1.341,1.322-1.355,3.482-0.032,4.822
			c1.323,1.341,3.481,1.355,4.822,0.032l10.177-10.043l10.043,10.177c1.323,1.341,3.481,1.355,4.822,0.032
			c1.341-1.322,1.355-3.482,0.032-4.822l-10.043-10.177l10.177-10.043c1.341-1.322,1.355-3.482,0.032-4.822
			c-0.662-0.671-1.532-1.009-2.404-1.015c-0.872-0.006-1.747,0.321-2.418,0.983l-10.177,10.043l-10.043-10.177
			c-0.662-0.67-1.532-1.009-2.404-1.015c-0.873-0.006-1.747,0.321-2.418,0.983c-1.341,1.322-1.355,3.482-0.032,4.822L308.7,88.463z"
			/>
	</g>
</g>
</svg>
