<?xml version="1.0" encoding="utf-8"?>
<!-- Generator: Adobe Illustrator 27.5.0, SVG Export Plug-In . SVG Version: 6.00 Build 0)  -->
<svg version="1.1" xmlns="http://www.w3.org/2000/svg" xmlns:xlink="http://www.w3.org/1999/xlink" x="0px" y="0px"
	 viewBox="0 0 500 500" style="enable-background:new 0 0 500 500;" xml:space="preserve">
<g id="Background_Complete">
	<g>
		<g>
			<g>
				<g>
					<g>
						<g>
							<g>
								<path style="fill:#EBEBEB;" d="M189.932,83.212l4.533,1.097l13.229-11.394l2.189-9.049c0,0,7.111,1.264,3.421,12.914
									c-3.692,11.65-2.07,8.849-2.07,8.849s14.865,3.657,15.789,5.249c0.672,1.157-2.497,16.035-4.281,24.088
									c-0.898,4.054-4.281,7.208-8.264,7.254c-0.566,0.007-1.124-0.044-1.653-0.172c-3.711-0.898-21.942-8.502-21.942-8.502
									l-7.831-1.895L189.932,83.212z"/>
							</g>
						</g>
					</g>
				</g>
				<g>
					<g>
						<g>
							<g>
								<polygon style="fill:#EBEBEB;" points="177.555,77.587 172.841,109.269 180.605,111.147 187.956,80.764 								"/>
							</g>
						</g>
					</g>
				</g>
			</g>
		</g>
	</g>
	<g>
		<g>
			<g>
				<g>
					<g>
						<g>
							<g>
								<path style="fill:#E0E0E0;" d="M245.217,56.423l2.959-1.009l3.39-11.201l-2.014-5.907c0,0,4.478-1.84,6.577,6.078
									c2.098,7.919,2.009,5.75,2.009,5.75s9.725-3.273,10.82-2.705c0.796,0.413,4.35,9.97,6.235,15.168
									c0.949,2.617,0.168,5.617-2.069,7.074c-0.318,0.208-0.652,0.379-0.997,0.497c-2.422,0.826-15.471,3.075-15.471,3.075
									l-5.112,1.742L245.217,56.423z"/>
							</g>
						</g>
					</g>
				</g>
				<g>
					<g>
						<g>
							<g>
								<polygon style="fill:#E0E0E0;" points="236.193,57.689 244.912,77.309 249.98,75.581 243.22,55.749 								"/>
							</g>
						</g>
					</g>
				</g>
			</g>
		</g>
	</g>
	<g>
		<g>
			<g>
				<polygon style="fill:#EBEBEB;" points="340.449,411.145 324.047,458.177 332.248,458.177 360.951,411.145 				"/>
			</g>
			<g>
				<polygon style="fill:#EBEBEB;" points="434.531,411.145 450.932,458.177 442.732,458.177 414.029,411.145 				"/>
			</g>
			<g>
				<rect x="342.499" y="281.295" style="fill:#EBEBEB;" width="131.035" height="131.035"/>
			</g>
			<g>
				<rect x="301.445" y="281.295" style="fill:#F5F5F5;" width="131.035" height="131.035"/>
			</g>
			<g>
				<path style="fill:#E0E0E0;" d="M423.479,403.906H310.447V290.873h113.032V403.906z M311.447,402.906h111.032V291.873H311.447
					V402.906z"/>
			</g>
			<g>
				<g>
					<path style="fill:#E0E0E0;" d="M311.599,326.466c18.532,0.54,37.149,0.057,55.69,0.063c18.556,0.006,37.137,0.277,55.69-0.035
						c0.338-0.006,0.338-0.519,0-0.525c-18.553-0.312-37.134-0.041-55.69-0.035c-18.541,0.006-37.158-0.477-55.69,0.063
						C311.298,326.006,311.297,326.457,311.599,326.466L311.599,326.466z"/>
				</g>
			</g>
			<g>
				<path style="fill:#EBEBEB;" d="M370.152,309.746c0,1.761-1.428,3.189-3.189,3.189c-1.761,0-3.189-1.428-3.189-3.189
					s1.428-3.189,3.189-3.189C368.724,306.557,370.152,307.985,370.152,309.746z"/>
			</g>
			<g>
				<path style="fill:#EBEBEB;" d="M324.209,360.928c0,1.761-1.428,3.189-3.189,3.189c-1.761,0-3.189-1.428-3.189-3.189
					c0-1.761,1.428-3.189,3.189-3.189C322.781,357.738,324.209,359.166,324.209,360.928z"/>
			</g>
		</g>
	</g>
	<g>
		<g>
			<polygon style="fill:#E0E0E0;" points="426.905,247.267 440.599,282.3 432.086,282.261 425.263,260.732 			"/>
		</g>
		<g>
			<g>
				<g>
					<polygon style="fill:#EBEBEB;" points="380.142,214.897 375.435,282.022 424.033,283.037 429.502,214.897 					"/>
				</g>
				<g>
					<polygon style="fill:#FAFAFA;" points="385.004,220.303 381.085,276.175 417.213,277.867 422.261,219.972 					"/>
				</g>
			</g>
			<g>
				<polygon style="fill:#E0E0E0;" points="392.932,228.204 390.001,267.477 409.93,267.477 413.446,228.204 				"/>
			</g>
		</g>
	</g>
	<g>
		<g>
			<g>
				<g>
					<rect x="47.124" y="48.312" style="fill:#E0E0E0;" width="85.819" height="89.459"/>
				</g>
			</g>
		</g>
		<g>
			<g>
				<g>
					<rect x="41.312" y="48.312" style="fill:#EBEBEB;" width="85.819" height="89.459"/>
				</g>
			</g>
		</g>
		<g>
			<g>
				<g>
					<rect x="52.848" y="60.338" style="fill:#FAFAFA;" width="62.747" height="65.408"/>
				</g>
			</g>
		</g>
		<g>
			<g>
				<g>
					<g>
						<path style="fill:#E0E0E0;" d="M52.848,126.18c0.042,0.05-0.561,0.726-1.568,1.778c-1.007,1.052-2.419,2.48-3.998,4.035
							c-1.579,1.556-3.027,2.945-4.092,3.934c-1.065,0.989-1.747,1.578-1.792,1.532c-0.046-0.046,0.554-0.719,1.561-1.771
							c1.007-1.052,2.422-2.483,4.005-4.042c1.583-1.559,3.033-2.95,4.098-3.939C52.127,126.717,52.807,126.131,52.848,126.18z"/>
					</g>
				</g>
			</g>
		</g>
		<g>
			<g>
				<g>
					<g>
						<path style="fill:#E0E0E0;" d="M115.595,126.02c0.05-0.042,0.726,0.561,1.778,1.568c1.052,1.007,2.48,2.419,4.035,3.998
							c1.556,1.579,2.945,3.027,3.934,4.092c0.989,1.065,1.578,1.747,1.532,1.792c-0.046,0.046-0.719-0.553-1.771-1.561
							c-1.052-1.007-2.483-2.422-4.042-4.005c-1.559-1.583-2.95-3.033-3.939-4.098C116.131,126.741,115.545,126.062,115.595,126.02z
							"/>
					</g>
				</g>
			</g>
		</g>
		<g>
			<g>
				<g>
					<g>
						<path style="fill:#E0E0E0;" d="M115.423,60.512c-0.042-0.05,0.561-0.726,1.568-1.778c1.007-1.052,2.419-2.48,3.998-4.035
							c1.579-1.556,3.027-2.945,4.092-3.933c1.065-0.989,1.747-1.578,1.792-1.532c0.046,0.046-0.553,0.719-1.561,1.771
							c-1.007,1.052-2.422,2.483-4.005,4.042c-1.583,1.559-3.033,2.95-4.098,3.939C116.144,59.976,115.465,60.562,115.423,60.512z"
							/>
					</g>
				</g>
			</g>
		</g>
		<g>
			<g>
				<g>
					<g>
						<path style="fill:#E0E0E0;" d="M52.677,60.673c-0.05,0.042-0.726-0.561-1.778-1.568c-1.052-1.007-2.48-2.419-4.035-3.998
							c-1.556-1.579-2.945-3.027-3.933-4.092c-0.989-1.065-1.578-1.747-1.532-1.793c0.046-0.046,0.719,0.554,1.771,1.561
							c1.052,1.007,2.482,2.422,4.042,4.005c1.559,1.583,2.95,3.033,3.939,4.098C52.14,59.952,52.726,60.631,52.677,60.673z"/>
					</g>
				</g>
			</g>
		</g>
		<g>
			<g>
				<g>
					<g>
						<path style="fill:#E0E0E0;" d="M115.423,125.745c0,0-0.008-0.11-0.012-0.316c-0.003-0.218-0.007-0.519-0.012-0.911
							c-0.006-0.814-0.014-1.993-0.024-3.527c-0.013-3.092-0.031-7.599-0.054-13.326c-0.025-11.453-0.061-27.778-0.104-47.327
							l0.205,0.205c-18.265,0.009-39.717,0.019-62.569,0.03h-0.006l0.235-0.236c-0.012,24.008-0.024,46.468-0.033,65.408
							l-0.202-0.202c18.759,0.043,34.377,0.078,45.319,0.104c5.472,0.023,9.772,0.04,12.722,0.053
							c1.463,0.01,2.587,0.018,3.364,0.023c0.373,0.005,0.66,0.009,0.868,0.011C115.318,125.738,115.423,125.745,115.423,125.745
							s-0.09,0.008-0.279,0.011c-0.203,0.003-0.483,0.007-0.846,0.011c-0.767,0.005-1.879,0.013-3.325,0.023
							c-2.94,0.012-7.224,0.03-12.677,0.053c-10.974,0.025-26.636,0.061-45.448,0.103l-0.202,0l0-0.203
							c-0.01-18.94-0.021-41.4-0.033-65.408l0-0.236h0.236h0.006c22.851,0.011,44.304,0.021,62.569,0.03l0.206,0l0,0.205
							c-0.043,19.603-0.079,35.974-0.104,47.459c-0.023,5.708-0.041,10.198-0.054,13.28c-0.01,1.517-0.018,2.683-0.024,3.488
							c-0.005,0.382-0.009,0.676-0.012,0.889C115.431,125.651,115.423,125.745,115.423,125.745z"/>
					</g>
				</g>
			</g>
		</g>
		<g>
			<g>
				<g>
					<g>
						<path style="fill:#EBEBEB;" d="M69.409,87.663c0,0-1.344,16.194,16.194,16.194C85.603,95.215,78.473,88.393,69.409,87.663z"/>
					</g>
				</g>
			</g>
			<g>
				<g>
					<g>
						<path style="fill:#EBEBEB;" d="M101.5,87.675c0,0-16.194-1.344-16.194,16.194C93.948,103.869,100.77,96.739,101.5,87.675z"/>
					</g>
				</g>
			</g>
			<g>
				<g>
					<g>
						<path style="fill:#E0E0E0;" d="M84.825,78.811c0,0-13.23,11.876,0.724,25.046C92.039,96.981,91.489,86.199,84.825,78.811z"/>
					</g>
				</g>
			</g>
		</g>
	</g>
</g>
<g id="Background_Simple" style="display:none;">
	<path style="display:inline;fill:#EBEBEB;" d="M436.287,192.829c-15.196-31.408-52.295-52.04-86.279-44.134
		c-8.789,2.045-17.393,5.826-26.407,5.396c-12.976-0.619-24.01-9.907-31.661-20.406c-7.651-10.498-12.991-22.569-20.975-32.817
		c-18.535-23.791-50.572-35.234-80.531-31.768c-29.959,3.466-57.425,20.676-76.405,44.113
		c-33.134,40.914-39.997,101.341-16.882,148.643c23.115,47.303,94.81,93.054,147.448,92.054l-6.012,0.308
		c34.554,4.841,70.219,5.298,103.876-3.899c33.657-9.197,65.272-28.754,84.505-57.865
		C446.199,263.344,451.483,224.237,436.287,192.829z"/>
</g>
<g id="Floor">
	<g>
		<g>
			<path style="fill:#263238;" d="M474.449,460.162c0,0.144-97.299,0.26-217.296,0.26c-120.039,0-217.317-0.117-217.317-0.26
				c0-0.144,97.278-0.26,217.317-0.26C377.15,459.902,474.449,460.019,474.449,460.162z"/>
		</g>
	</g>
</g>
<g id="Plant">
	<g>
		<g>
			<g>
				<g>
					<path style="fill:#E8505B;" d="M105.498,253.007c-14.267-21.822-12.186-52.998,4.853-72.731
						c5.289-6.125,12.68-11.449,20.743-10.758c8.256,0.707,14.907,7.787,17.419,15.683c2.512,7.896,1.641,16.45,0.165,24.604
						c-2.066,11.416-5.526,23.097-13.444,31.575C127.315,249.857,115.679,258.569,105.498,253.007"/>
				</g>
			</g>
			<g>
				<g>
					<path style="fill:#E8505B;" d="M113.388,358.04c-5.373-12.536-1.476-28.409,9.091-37.032c3.28-2.676,7.57-4.75,11.662-3.663
						c4.189,1.112,6.975,5.363,7.553,9.659c0.579,4.296-0.645,8.624-2.144,12.691c-2.099,5.695-4.94,11.399-9.788,15.05
						C124.913,358.394,118.129,361.828,113.388,358.04"/>
				</g>
			</g>
			<g>
				<g>
					<path style="fill:#E8505B;" d="M78.983,350.549c3.923-19.346-6.273-40.693-23.786-49.801
						c-5.436-2.827-12.126-4.501-17.604-1.757c-5.609,2.81-8.304,9.653-7.86,15.911c0.445,6.258,3.454,12.031,6.775,17.353
						c4.651,7.451,10.356,14.699,18.301,18.444C62.755,354.445,73.38,357.314,78.983,350.549"/>
				</g>
			</g>
			<g>
				<g>
					<path style="fill:#E8505B;" d="M81.455,298.237c6.831-22.043-4.751-48.769-24.054-61.416
						c-5.991-3.925-13.577-6.657-20.271-4.108c-6.854,2.611-10.791,10.255-11.007,17.586c-0.216,7.331,2.607,14.399,5.847,20.978
						c4.536,9.212,10.323,18.311,19.126,23.599C59.899,300.164,74.145,305.448,81.455,298.237"/>
				</g>
			</g>
			<g>
				<g>
					<g>
						<path style="fill:#263238;" d="M95.174,405.977c-0.032,0.003-0.108-0.365-0.223-1.068c-0.12-0.803-0.271-1.821-0.458-3.075
							c-0.094-0.679-0.197-1.42-0.309-2.222c-0.157-0.814-0.325-1.688-0.505-2.621c-0.358-1.881-0.729-4.029-1.346-6.36
							c-0.284-1.173-0.58-2.4-0.889-3.675c-0.371-1.264-0.755-2.576-1.153-3.933c-0.735-2.736-1.821-5.565-2.839-8.581
							c-2.259-5.953-5.065-12.375-8.509-18.868c-3.509-6.461-7.31-12.351-11.023-17.524c-1.95-2.515-3.708-4.985-5.582-7.11
							c-0.911-1.081-1.792-2.127-2.64-3.135c-0.892-0.962-1.75-1.887-2.571-2.772c-1.602-1.802-3.187-3.299-4.557-4.637
							c-0.678-0.666-1.314-1.29-1.905-1.87c-0.607-0.536-1.167-1.032-1.681-1.486c-0.941-0.849-1.706-1.538-2.309-2.081
							c-0.521-0.484-0.786-0.751-0.766-0.776c0.02-0.025,0.324,0.192,0.885,0.63c0.634,0.509,1.438,1.156,2.427,1.952
							c0.532,0.437,1.113,0.914,1.741,1.43c0.61,0.565,1.265,1.172,1.965,1.821c1.41,1.308,3.035,2.779,4.676,4.561
							c0.84,0.877,1.717,1.793,2.629,2.746c0.866,1.002,1.766,2.042,2.696,3.117c1.911,2.117,3.702,4.582,5.683,7.099
							c3.774,5.176,7.622,11.091,11.153,17.593c3.466,6.534,6.266,13.009,8.494,19.014c1.003,3.042,2.067,5.897,2.774,8.659
							c0.382,1.369,0.752,2.694,1.108,3.969c0.29,1.287,0.568,2.524,0.835,3.709c0.578,2.353,0.906,4.521,1.216,6.418
							c0.154,0.942,0.297,1.824,0.431,2.644c0.083,0.809,0.159,1.557,0.229,2.242c0.116,1.265,0.21,2.293,0.285,3.103
							C95.193,405.6,95.206,405.974,95.174,405.977z"/>
					</g>
				</g>
			</g>
			<g>
				<g>
					<g>
						<path style="fill:#263238;" d="M94.67,409.938c-0.016-0.002-0.015-0.151,0.001-0.44c0.025-0.343,0.056-0.763,0.094-1.278
							c0.11-1.196,0.261-2.831,0.452-4.898c0.105-1.07,0.222-2.249,0.349-3.535c0.098-1.294,0.133-2.706,0.212-4.219
							c0.113-3.029,0.402-6.472,0.296-10.288c-0.009-1.909-0.019-3.906-0.029-5.986c-0.021-2.081-0.218-4.241-0.323-6.479
							c-0.15-4.485-0.76-9.24-1.299-14.25c-1.369-9.985-3.507-20.881-6.762-32.053c-3.363-11.145-7.51-21.448-11.806-30.566
							c-2.28-4.495-4.361-8.815-6.68-12.656c-1.132-1.935-2.144-3.853-3.261-5.609c-1.125-1.749-2.206-3.429-3.239-5.034
							c-1.991-3.258-4.111-5.986-5.856-8.464c-0.891-1.225-1.69-2.39-2.478-3.422c-0.807-1.008-1.547-1.934-2.219-2.773
							c-1.286-1.628-2.303-2.916-3.048-3.859c-0.312-0.411-0.567-0.746-0.775-1.02c-0.171-0.233-0.253-0.358-0.24-0.368
							c0.012-0.011,0.118,0.093,0.313,0.306c0.227,0.258,0.505,0.573,0.846,0.96c0.779,0.917,1.843,2.17,3.188,3.753
							c0.692,0.826,1.456,1.736,2.288,2.728c0.81,1.018,1.632,2.169,2.545,3.383c1.79,2.454,3.954,5.165,5.987,8.41
							c1.053,1.6,2.154,3.276,3.301,5.019c1.137,1.753,2.169,3.668,3.32,5.602c2.357,3.84,4.473,8.163,6.783,12.668
							c4.358,9.136,8.549,19.479,11.927,30.675c3.27,11.224,5.393,22.177,6.72,32.21c0.518,5.035,1.102,9.812,1.219,14.317
							c0.089,2.248,0.268,4.417,0.271,6.506c-0.011,2.087-0.021,4.092-0.031,6.007c0.064,3.829-0.272,7.281-0.435,10.315
							c-0.104,1.516-0.165,2.929-0.29,4.225c-0.157,1.285-0.3,2.465-0.431,3.535c-0.264,2.061-0.474,3.691-0.627,4.885
							c-0.075,0.51-0.136,0.926-0.186,1.266C94.718,409.795,94.686,409.94,94.67,409.938z"/>
					</g>
				</g>
			</g>
			<g>
				<g>
					<g>
						<path style="fill:#263238;" d="M131.812,195.869c0.014,0.008-0.048,0.146-0.182,0.407c-0.165,0.307-0.367,0.683-0.615,1.145
							c-0.595,1.062-1.409,2.515-2.439,4.353c-0.523,0.948-1.152,1.975-1.757,3.145c-0.589,1.184-1.226,2.465-1.909,3.839
							c-0.689,1.379-1.423,2.849-2.2,4.406c-0.743,1.577-1.45,3.281-2.237,5.048c-0.764,1.778-1.622,3.616-2.412,5.574
							c-0.76,1.973-1.551,4.023-2.368,6.145c-0.409,1.062-0.824,2.142-1.246,3.239c-0.377,1.114-0.76,2.246-1.148,3.394
							c-0.774,2.298-1.571,4.662-2.388,7.085c-3.024,9.779-5.889,20.669-8.309,32.232c-2.342,11.585-3.987,22.728-5.2,32.895
							c-1.04,10.185-1.81,19.381-2.02,27.125c-0.196,3.869-0.236,7.371-0.249,10.449c-0.05,3.077-0.061,5.727,0.011,7.893
							c0.03,2.107,0.053,3.773,0.07,4.99c-0.002,0.524-0.004,0.951-0.005,1.299c-0.006,0.293-0.018,0.444-0.034,0.444
							c-0.016,0.001-0.037-0.148-0.062-0.44c-0.023-0.347-0.052-0.773-0.088-1.296c-0.06-1.217-0.142-2.883-0.245-4.989
							c-0.128-2.167-0.17-4.82-0.17-7.902c-0.037-3.082-0.043-6.592,0.111-10.47c0.126-7.762,0.828-16.983,1.824-27.197
							c1.169-10.196,2.792-21.372,5.141-32.989c2.426-11.595,5.326-22.511,8.404-32.305c0.832-2.427,1.644-4.794,2.433-7.096
							c0.397-1.149,0.788-2.281,1.173-3.396c0.431-1.098,0.855-2.178,1.272-3.241c0.838-2.122,1.647-4.172,2.426-6.145
							c0.81-1.958,1.69-3.794,2.475-5.569c0.809-1.764,1.538-3.464,2.305-5.035c0.802-1.55,1.561-3.014,2.271-4.387
							c0.709-1.364,1.371-2.636,1.982-3.813c0.63-1.16,1.285-2.177,1.833-3.113c1.096-1.803,1.962-3.23,2.594-4.271
							c0.28-0.443,0.508-0.804,0.694-1.098C131.709,195.982,131.798,195.861,131.812,195.869z"/>
					</g>
				</g>
			</g>
			<g>
				<g>
					<g>
						<path style="fill:#263238;" d="M126.964,329.769c0.053,0.036-0.49,0.984-1.517,2.663c-1.043,1.668-2.476,4.131-4.155,7.217
							c-1.694,3.08-3.536,6.84-5.405,11.09c-1.823,4.27-3.645,9.042-5.244,14.157c-1.565,5.127-2.753,10.096-3.656,14.651
							c-0.855,4.564-1.454,8.709-1.793,12.207c-0.355,3.495-0.561,6.337-0.64,8.303c-0.099,1.966-0.185,3.054-0.25,3.054
							c-0.064,0-0.102-1.09-0.114-3.064c-0.032-1.974,0.074-4.832,0.346-8.353c0.256-3.524,0.791-7.702,1.605-12.305
							c0.863-4.594,2.033-9.606,3.61-14.768c1.61-5.15,3.471-9.948,5.349-14.227c1.924-4.259,3.84-8.011,5.616-11.065
							c1.761-3.061,3.286-5.481,4.426-7.093C126.265,330.611,126.911,329.733,126.964,329.769z"/>
					</g>
				</g>
			</g>
		</g>
		<g>
			<g>
				<polygon style="fill:#455A64;" points="67.153,396.154 129.824,396.154 122.241,460.162 74.959,460.162 				"/>
			</g>
		</g>
		<g>
			<g>
				<polygon style="fill:#263238;" points="69.441,453.254 74.764,460.162 122.241,460.162 127.716,453.474 				"/>
			</g>
		</g>
		<g>
			<g>
				<g>
					<path style="fill:#FAFAFA;" d="M127.382,414.98c0,0.258-13.005,0.467-29.045,0.467c-16.045,0-29.047-0.209-29.047-0.467
						c0-0.258,13.003-0.467,29.047-0.467C114.376,414.513,127.382,414.722,127.382,414.98z"/>
				</g>
			</g>
		</g>
		<g>
			<g>
				<g>
					<path style="fill:#FAFAFA;" d="M127.382,419.241c0,0.258-13.005,0.467-29.045,0.467c-16.045,0-29.047-0.209-29.047-0.467
						s13.003-0.467,29.047-0.467C114.376,418.774,127.382,418.983,127.382,419.241z"/>
				</g>
			</g>
		</g>
		<g>
			<g>
				<g>
					<path style="fill:#FAFAFA;" d="M126.6,423.367c0,0.258-12.55,0.467-28.028,0.467c-15.483,0-28.03-0.209-28.03-0.467
						c0-0.258,12.547-0.467,28.03-0.467C114.05,422.9,126.6,423.109,126.6,423.367z"/>
				</g>
			</g>
		</g>
	</g>
</g>
<g id="Speech_Bubble">
	<g>
		<g>
			<g>
				<g>
					<g>
						<path style="fill:#FAFAFA;" d="M332.49,149.714l8.824-15.551c-3.904-6.336-6.16-13.796-6.16-21.784
							c0-22.973,18.623-41.596,41.596-41.596c22.973,0,41.596,18.623,41.596,41.596c0,22.972-18.623,41.596-41.596,41.596
							c-9.592,0-18.42-3.256-25.456-8.711l0.014,0.019L332.49,149.714z"/>
					</g>
					<g>
						<g>
							<path style="fill:#263238;" d="M332.49,149.714c0.902-0.219,6.834-1.658,18.788-4.557l-0.073,0.205l-0.014-0.018
								l-0.603-0.782l0.785,0.6c2.37,1.812,5.203,3.595,8.526,5.076c3.327,1.456,7.133,2.642,11.33,3.184
								c2.095,0.259,4.283,0.425,6.531,0.307c1.123-0.068,2.266-0.098,3.418-0.198c1.144-0.176,2.305-0.355,3.48-0.537
								c4.662-0.934,9.425-2.717,13.864-5.484c4.437-2.758,8.541-6.497,11.83-11.085c3.282-4.579,5.769-10.004,6.93-15.896
								c1.15-5.883,1.048-12.189-0.499-18.287c-1.558-6.077-4.463-12.015-8.813-16.9l-1.678-1.847
								c-0.551-0.621-1.21-1.133-1.808-1.703c-0.626-0.539-1.19-1.15-1.863-1.626l-1.972-1.475
								c-0.638-0.517-1.342-0.933-2.042-1.351c-0.697-0.423-1.391-0.846-2.084-1.267c-0.729-0.354-1.457-0.708-2.182-1.06
								c-0.732-0.338-1.435-0.738-2.203-0.981c-5.969-2.372-12.335-3.28-18.425-2.845c-6.091,0.432-11.921,2.171-16.927,4.979
								c-5.021,2.785-9.262,6.507-12.539,10.669c-3.287,4.163-5.61,8.759-7.055,13.339c-1.435,4.602-1.835,9.17-1.836,13.405
								c0.106,4.244,0.862,8.16,1.971,11.6c1.112,3.446,2.578,6.415,4.094,8.918l0.039,0.064l-0.036,0.063
								C335.719,144.115,332.934,148.945,332.49,149.714c0.433-0.775,3.15-5.644,8.715-15.613l0.002,0.127
								c-1.542-2.508-3.036-5.488-4.174-8.954c-1.135-3.461-1.914-7.404-2.038-11.685c-0.016-4.27,0.372-8.883,1.808-13.535
								c1.445-4.63,3.78-9.279,7.093-13.495c3.303-4.214,7.583-7.986,12.658-10.811c5.059-2.848,10.957-4.617,17.121-5.06
								c6.162-0.447,12.609,0.466,18.654,2.866c0.777,0.246,1.49,0.65,2.232,0.992c0.735,0.357,1.471,0.715,2.21,1.073
								c0.702,0.426,1.406,0.854,2.111,1.282c0.708,0.424,1.421,0.845,2.068,1.368l1.997,1.493c0.681,0.482,1.253,1.1,1.887,1.645
								c0.605,0.577,1.272,1.096,1.83,1.724l1.7,1.87c4.403,4.947,7.345,10.96,8.92,17.115c1.564,6.176,1.661,12.558,0.491,18.512
								c-1.181,5.962-3.706,11.449-7.033,16.076c-3.333,4.635-7.492,8.408-11.982,11.187c-4.493,2.788-9.311,4.577-14.023,5.507
								c-1.188,0.18-2.36,0.357-3.516,0.531c-1.164,0.097-2.318,0.125-3.451,0.189c-2.268,0.111-4.476-0.064-6.589-0.334
								c-4.232-0.563-8.065-1.775-11.41-3.259c-3.342-1.509-6.184-3.321-8.557-5.159l0.182-0.182l0.014,0.018l0.122,0.161
								l-0.195,0.045C339.345,148.149,333.395,149.508,332.49,149.714z"/>
						</g>
					</g>
				</g>
			</g>
		</g>
		<g>
			<path style="fill:#263238;" d="M358.712,111.104c0-4.58,3.567-7.971,8.434-7.971c4.844,0,8.433,3.369,8.433,7.971
				c0,4.602-3.589,7.971-8.433,7.971C362.279,119.075,358.712,115.684,358.712,111.104z M371.967,111.104
				c0-2.928-2.07-4.932-4.822-4.932c-2.753,0-4.822,2.004-4.822,4.932c0,2.929,2.069,4.932,4.822,4.932
				C369.897,116.036,371.967,114.033,371.967,111.104z"/>
			<path style="fill:#263238;" d="M383.884,112.755l-2.07,2.158v3.897h-3.545v-15.413h3.545v7.2l6.826-7.2h3.963l-6.385,6.87
				l6.76,8.543h-4.162L383.884,112.755z"/>
		</g>
	</g>
</g>
<g id="Character">
	<g>
		<g>
			<path style="fill:#263238;" d="M303.776,174.333c-2.629,6.544-2.548,20.082,1.822,25.617c2.285,2.893,5.385,5.195,7.008,8.506
				c2.127,4.34,1.219,9.745-1.446,13.777c-2.665,4.032-6.85,6.844-11.257,8.829c-4.913,2.213-10.92,3.435-15.503,0.601
				c-3.5-2.163-5.353-6.211-6.474-10.169c-3.138-11.087-2-23.035,1.262-34.087c3.262-11.051,8.559-21.375,13.825-31.624"/>
		</g>
		<g>
			<g>
				<path style="fill:#E8505B;" d="M318.361,266.164l23.441-14.311c0,0-17.766-34.297-20.48-35.531
					c-2.714-1.234-38.61-6.536-38.61-6.536c-10.931,17.182-24.612,12.946-38.399,1.484c-1.234,0.247-22.93,5.194-28.605,5.934
					c-5.675,0.74-21.952,26.753-21.952,26.753l18.527,32.395l1.398,33.563c0,0,1.013,23.867-2.906,36.185l98.21,3.186
					c0,0-1.477-6.428-2.266-15.505c-0.363-4.167-1.502-8.33-0.648-13.687C308.783,303.069,318.361,266.164,318.361,266.164z"/>
			</g>
			<g>
				<path style="fill:#FAFAFA;" d="M205.223,227.338c1.472,4.944,14.02,12.258,18.394,9.524c1.39-0.869,2.589-2.172,4.199-2.486
					c2.02-0.393,3.935,0.887,5.889,1.534c4.572,1.513,10.45-0.178,13.749,3.33c1.622,1.725,2.658,4.669,5.025,4.603
					c0.854-0.024,1.628-0.485,2.457-0.689c2.655-0.653,5.228,1.371,7.955,1.563c1.425,0.1,2.831-0.306,4.201-0.708
					c6.531-1.915,13.062-3.83,19.594-5.745c1.424-0.418,3.018-0.978,3.614-2.338c-2.322,0.744-4.908,0.635-7.159-0.301
					c-1.285-0.535-2.478-1.332-3.842-1.61c-3.461-0.706-6.608,2.048-10.047,2.855c-3.62,0.85-7.354-0.506-10.825-1.84
					c-5.922-2.276-11.845-4.552-17.767-6.829c-4.898-1.883-9.918-3.838-13.815-7.352c-1.235-1.113-5.883,1.229-7.338,0.424
					c-1.455-0.804-4.814-3.733-4.814-3.733c-0.307-0.221-3.015,2.211-4.191,3.49C209.237,222.407,205.223,227.338,205.223,227.338z"
					/>
			</g>
			<g>
				<path style="fill:#FAFAFA;" d="M213.68,309.914c4.355-1.848,11.837-4.741,16.487-5.617c3.439-0.647,6.973-1.02,10.435-0.516
					c1.731,0.252,3.518,0.718,5.195,0.222c1.587-0.469,2.809-1.726,4.294-2.457c4.249-2.091,9.333,0.517,14.028-0.099
					c1.16-0.152,2.359-0.548,3.105-1.449c0.746-0.901,0.835-2.408-0.06-3.162c-0.512-0.432-1.216-0.541-1.883-0.602
					c-2.235-0.204-4.486-0.061-6.726,0.083c-1.203,0.077-2.406,0.154-3.609,0.232c-1.501,0.096-3.034,0.19-4.486-0.2
					c-1.447-0.388-2.724-1.232-4.096-1.836c-4.815-2.122-10.35-1.174-15.56-0.439c-2.599,0.366-5.27,0.667-7.826,0.073
					c-0.885-0.205-1.767-0.518-2.673-0.461c-1.527,0.097-2.814,1.22-4.323,1.474c-1.509,0.254-1.604-2.645-3.04-2.946
					L213.68,309.914z"/>
			</g>
			<g>
				<path style="fill:#FAFAFA;" d="M309.31,264.942c-0.562,0.301-1.117,0.66-1.748,0.748c-2.832,0.393-4.568-4.592-7.279-3.683
					c-1.056,0.354-1.731,1.564-2.838,1.69c-1.237,0.141-2.138-1.12-3.276-1.626c-2.032-0.904-4.264,0.719-6.48,0.895
					c-2.5,0.198-5.424-1.363-7.288,0.313c-0.729,0.655-1.15,1.739-2.096,1.996c-0.896,0.244-1.768-0.389-2.658-0.654
					c-2.712-0.808-5.211,1.808-8,2.289c-3.174,0.548-6.967-1.598-9.385,0.53c-0.857,0.754-1.385,1.974-2.482,2.289
					c-1.021,0.294-2.075-0.343-3.137-0.346c-2.439-0.006-4.683,3.212-6.738,1.898c0.223,1.164,1.438,1.905,2.614,2.05
					c1.176,0.144,2.354-0.155,3.53-0.3c6.912-0.85,13.929,3.646,20.632,1.754c1.844-0.521,3.577-1.515,5.488-1.653
					c3.577-0.259,6.82,2.517,10.403,2.384c2.791-0.103,5.382-1.972,8.157-1.656c2.857,0.325,4.924,2.827,7.521,4.063
					c3.112,1.48,6.755,1.049,10.17,0.585l0.978-0.232c1.519-4.449,2.866-8.943,3.433-13.587
					C315.85,263.289,312.211,263.386,309.31,264.942z"/>
			</g>
			<g>
				<path style="fill:#FAFAFA;" d="M301.265,324.789c-1.361,0-2.58,0.786-3.731,1.513c-1.151,0.727-2.433,1.449-3.786,1.302
					c-2.455-0.268-4.66-3.285-6.808-2.066c-0.591,0.336-0.978,0.936-1.505,1.365c-1.504,1.224-3.893,0.884-5.323,2.194
					c-0.738,0.676-1.142,1.735-2.049,2.159c-1.711,0.8-3.334-1.175-5.057-1.949c-2.703-1.213-5.77,0.666-8.732,0.611
					c-1.503-0.028-3.088-0.549-4.456,0.073c-0.739,0.336-1.299,0.963-1.974,1.415c-2.26,1.513-5.302,0.81-7.829-0.194
					c-2.528-1.004-5.173-2.285-7.84-1.753c-0.741,0.148-1.583,0.614-1.568,1.37c0.006,0.293,0.147,0.565,0.3,0.815
					c1.588,2.601,4.609,3.941,7.537,4.786c3.209,0.926,6.598,1.473,9.454,3.206c1.811,1.099,3.715,2.725,5.758,2.166
					c1.611-0.441,2.604-2.123,4.162-2.725c2.203-0.85,4.813,0.693,6.993-0.215c0.729-0.304,1.336-0.861,2.079-1.131
					c1.928-0.702,4.08,0.707,6.082,0.253c0.717-0.163,1.389-0.562,2.125-0.558c1.905,0.009,3.145,2.629,5.033,2.378
					c1.168-0.155,1.953-1.385,3.112-1.599c1.527-0.281,3.262,1.263,4.497,0.323c0.28-0.213,0.509-0.547,0.859-0.581
					c0.49-0.048,0.792,0.495,1.088,0.888c1.343,1.783,5.466,0.632,7.546-0.176l-1.354-11.96
					C305.9,325.135,302.626,324.789,301.265,324.789z"/>
			</g>
			<g style="opacity:0.3;">
				<g>
					<path d="M217.01,227.76c-1.86,5.882-2.594,12.319-0.737,18.202c0.859,2.723,2.244,5.244,3.43,7.842
						c4.043,8.855,5.782,18.749,5.002,28.452c-0.027,0.332-0.051,0.689,0.123,0.974c0.395,0.649,1.38,0.412,2.071,0.097
						c1.479-0.675,2.957-1.35,4.435-2.025c1.915,1.563,2.201,4.654,4.327,5.914c2.249,1.333,5.074-0.156,7.184-1.698
						c4.652-3.401,9.066-7.369,11.762-12.462c1.851-3.497,2.818-7.382,3.767-11.223c0.838-3.387,1.676-6.78,2.2-10.23
						c2.053-13.532-0.978-27.774-8.363-39.297"/>
				</g>
			</g>
			<g>
				<g>
					<path style="fill:#263238;" d="M310.909,233.03c0.017-0.006,0.091,0.174,0.216,0.522c0.138,0.404,0.311,0.91,0.523,1.528
						c0.455,1.404,1.076,3.317,1.833,5.651c0.763,2.413,1.661,5.257,2.655,8.403c0.957,3.169,2.025,6.685,2.523,10.515
						c0.479,3.836,0.168,7.552-0.529,10.807c-0.668,3.27-1.651,6.111-2.515,8.467c-0.885,2.351-1.684,4.219-2.246,5.505
						c-0.268,0.596-0.488,1.084-0.663,1.473c-0.157,0.334-0.248,0.507-0.265,0.5c-0.017-0.007,0.042-0.193,0.168-0.54
						c0.151-0.399,0.341-0.899,0.572-1.51c0.504-1.308,1.249-3.195,2.087-5.553c0.816-2.363,1.757-5.198,2.391-8.436
						c0.664-3.227,0.953-6.877,0.483-10.646c-0.489-3.769-1.534-7.269-2.467-10.445c-0.953-3.156-1.815-6.008-2.546-8.429
						c-0.691-2.353-1.258-4.283-1.674-5.698c-0.174-0.631-0.316-1.146-0.43-1.558C310.932,233.226,310.891,233.035,310.909,233.03z"
						/>
				</g>
			</g>
			<g style="opacity:0.3;">
				<g>
					<path d="M319.56,262.603c1.56-4.742,1.089-9.976-0.486-14.712c-1.575-4.737-4.194-9.052-6.952-13.213
						c1.375,9.465,5.711,18.364,6.568,27.89"/>
				</g>
			</g>
			<g style="opacity:0.3;">
				<g>
					<path d="M239.719,323.185c4.065-5.72,9.989-9.948,16.412-12.775s13.353-4.327,20.298-5.334c2.753-0.399,5.743-0.681,8.15,0.714
						c2.406,1.395,3.551,5.161,1.455,6.989c-1.056,0.921-2.556,1.081-3.953,1.182c-9.622,0.697-19.785,0.733-28.1,5.624
						c-3.288,1.934-6.213,4.596-9.844,5.762c-1.648,0.529-4.089,0.232-4.253-1.49"/>
				</g>
			</g>
			<g>
				<g>
					<path style="fill:#263238;" d="M288.765,303.788c-0.001,0.018-0.202,0.034-0.583,0.049c-0.438,0.01-0.989,0.023-1.665,0.038
						c-0.368,0.004-0.768,0.009-1.202,0.015c-0.443,0.029-0.919,0.061-1.427,0.094c-1.023,0.08-2.191,0.115-3.469,0.308
						c-0.642,0.08-1.312,0.164-2.009,0.251c-0.697,0.098-1.414,0.251-2.161,0.38c-1.5,0.233-3.068,0.651-4.728,1.038
						c-3.292,0.888-6.854,2.079-10.475,3.626c-3.615,1.566-6.926,3.344-9.868,5.072c-1.454,0.894-2.844,1.731-4.092,2.597
						c-1.275,0.826-2.419,1.659-3.464,2.418c-1.061,0.739-1.966,1.479-2.784,2.1c-0.821,0.617-1.506,1.177-2.062,1.639
						c-0.528,0.424-0.958,0.769-1.299,1.044c-0.301,0.234-0.465,0.351-0.477,0.337c-0.012-0.013,0.129-0.156,0.408-0.417
						c0.325-0.294,0.735-0.665,1.237-1.119c0.538-0.487,1.205-1.07,2.011-1.711c0.803-0.645,1.695-1.408,2.746-2.169
						c1.035-0.781,2.172-1.634,3.442-2.48c1.244-0.885,2.632-1.74,4.087-2.65c2.944-1.761,6.27-3.563,9.909-5.139
						c3.645-1.558,7.239-2.744,10.561-3.613c1.676-0.377,3.258-0.782,4.772-0.998c0.754-0.121,1.478-0.264,2.181-0.353
						c0.703-0.076,1.379-0.149,2.026-0.219c1.288-0.17,2.465-0.181,3.494-0.233c0.515-0.019,0.994-0.048,1.435-0.052
						c0.435,0.011,0.838,0.021,1.207,0.031c0.678,0.024,1.23,0.044,1.669,0.06C288.566,303.751,288.766,303.77,288.765,303.788z"/>
				</g>
			</g>
			<g style="opacity:0.3;">
				<g>
					<path d="M207.645,250.533c-2.546,3.525-2.838,8.289-1.789,12.509c1.049,4.22,3.288,8.032,5.499,11.777
						c0.301-3.739,0.011-7.526-0.858-11.175c-1.044-4.384-2.925-8.648-2.918-13.155"/>
				</g>
			</g>
		</g>
		<g>
			<g>
				<path style="fill:#263238;" d="M278.884,115.324c0.054-3.19,3.699-5.451,6.845-4.919c3.146,0.532,5.607,3.093,7.081,5.922
					c1.474,2.83,2.179,5.986,3.289,8.977c2.987,8.05,8.896,14.89,11.042,23.203c1.507,5.838,1.034,12.059-0.543,17.879
					c-1.578,5.82-4.222,11.292-7.068,16.609c-1.723,3.218-3.536,6.42-4.654,9.895c-1.118,3.475-1.5,7.303-0.324,10.759
					c0.159,0.467,0.345,0.987,0.139,1.436c-0.314,0.687-1.281,0.714-2.012,0.526c-3.671-0.941-6.212-4.551-6.843-8.288
					c-0.63-3.737,0.332-7.564,1.67-11.11c1.338-3.546,3.062-6.957,4.051-10.615c2.166-8.009,0.661-16.476,0.286-24.764
					c-0.212-4.67-0.062-9.391-0.992-13.972c-0.929-4.582-3.108-9.137-6.982-11.755c-1.508-1.019-3.249-1.733-4.52-3.036
					c-1.271-1.303-1.91-3.515-0.761-4.926"/>
			</g>
			<g>
				<g>
					<g>
						<g>
							<g>
								<g>
									<g>
										<g>
											<g>
												<g>
													<g>
														<g>
															<g>
																<g>
																	<g>
																		<g>
																			<g>
																				<g>
																					<g>
																						<path style="fill:#FFBE9D;" d="M282.167,208.066c0,0-0.107-4.837-0.102-4.784c0,0,14.323-2.727,16.859-21.559
																							c1.261-9.365,0.43-24.652-0.653-37.138c-0.975-11.238-8.759-24.872-19.946-23.42l-34.81,9.679
																							c-3.398,0.441-4.517,3.348-4.369,6.772l-0.245,1.611l2.902,53.691l0.993,8.965
																							c0.512,10.202,9.383,20.988,20.328,21.278l0,0C273.682,223.717,282.312,219.369,282.167,208.066z"/>
																					</g>
																				</g>
																			</g>
																		</g>
																	</g>
																</g>
															</g>
														</g>
														<g>
															<g>
																<g>
																	<g>
																		<g>
																			<g>
																				<g>
																					<g>
																						<g>
																							<path style="fill:#263238;" d="M291.866,156.701c0.075,1.27-0.939,2.38-2.263,2.482
																								c-1.322,0.102-2.456-0.841-2.531-2.111c-0.074-1.269,0.938-2.381,2.26-2.484
																								C290.656,154.486,291.791,155.431,291.866,156.701z"/>
																						</g>
																					</g>
																				</g>
																			</g>
																		</g>
																	</g>
																</g>
															</g>
															<g>
																<g>
																	<g>
																		<g>
																			<g>
																				<g>
																					<g>
																						<g>
																							<g>
																								<path style="fill:#263238;" d="M295.044,153.136c-0.291,0.321-2.146-0.985-4.735-0.917
																									c-2.587,0.031-4.456,1.408-4.744,1.097c-0.142-0.137,0.15-0.71,0.962-1.333
																									c0.8-0.619,2.176-1.235,3.789-1.266c1.613-0.029,2.983,0.533,3.778,1.122
																									C294.905,152.431,295.188,152.992,295.044,153.136z"/>
																							</g>
																						</g>
																					</g>
																				</g>
																			</g>
																		</g>
																	</g>
																</g>
															</g>
														</g>
														<g>
															<g>
																<g>
																	<g>
																		<g>
																			<g>
																				<g>
																					<g>
																						<g>
																							<g>
																								<path style="fill:#263238;" d="M269.849,157.983c-0.292,0.321-2.148-0.985-4.736-0.917
																									c-2.587,0.031-4.456,1.408-4.744,1.097c-0.141-0.137,0.146-0.71,0.963-1.332
																									c0.8-0.62,2.175-1.235,3.788-1.267c1.613-0.029,2.983,0.533,3.778,1.122
																									C269.707,157.278,269.992,157.839,269.849,157.983z"/>
																							</g>
																						</g>
																					</g>
																				</g>
																			</g>
																		</g>
																	</g>
																</g>
															</g>
														</g>
														<g>
															<g>
																<g>
																	<g>
																		<g>
																			<g>
																				<g>
																					<g>
																						<g>
																							<path style="fill:#263238;" d="M279.551,172.685c-0.016-0.147,1.587-0.463,4.188-0.858
																								c0.66-0.084,1.282-0.23,1.383-0.683c0.145-0.482-0.149-1.188-0.487-1.949
																								c-0.66-1.585-1.35-3.247-2.074-4.988c-2.884-7.104-4.99-12.951-4.702-13.065
																								c0.287-0.114,2.858,5.552,5.743,12.655c0.695,1.752,1.36,3.422,1.993,5.02
																								c0.268,0.746,0.719,1.587,0.404,2.587c-0.166,0.498-0.643,0.868-1.064,0.993
																								c-0.421,0.139-0.793,0.155-1.119,0.183C281.193,172.782,279.564,172.833,279.551,172.685z"/>
																						</g>
																					</g>
																				</g>
																			</g>
																		</g>
																	</g>
																</g>
															</g>
														</g>
														<g>
															<g>
																<g>
																	<g>
																		<g>
																			<g>
																				<g>
																					<g>
																						<path style="fill:#EB996E;" d="M282.064,203.281c0,0-12.602,1.112-25.284-6.108
																							c0,0,6.651,13.092,25.387,10.893L282.064,203.281z"/>
																					</g>
																				</g>
																			</g>
																		</g>
																	</g>
																</g>
															</g>
														</g>
													</g>
												</g>
											</g>
											<g>
												<g>
													<g>
														<g>
															<g>
																<g>
																	<g>
																		<g>
																			<path style="fill:#263238;" d="M269.755,151.431c-0.298,0.687-2.859,0.194-5.914,0.372
																				c-3.059,0.117-5.56,0.853-5.923,0.197c-0.161-0.313,0.306-0.947,1.337-1.566c1.022-0.619,2.626-1.167,4.46-1.258
																				c1.833-0.086,3.482,0.306,4.559,0.824C269.359,150.518,269.885,151.105,269.755,151.431z"/>
																		</g>
																	</g>
																</g>
															</g>
														</g>
													</g>
												</g>
											</g>
											<g>
												<g>
													<g>
														<g>
															<g>
																<g>
																	<g>
																		<g>
																			<path style="fill:#263238;" d="M294.653,145.154c-0.525,0.601-2.65,0.04-5.188,0.072
																				c-2.539-0.044-4.677,0.506-5.186-0.097c-0.224-0.294,0.101-0.891,1.027-1.469
																				c0.912-0.577,2.449-1.067,4.193-1.063c1.744,0.006,3.268,0.503,4.165,1.084
																				C294.575,144.262,294.883,144.861,294.653,145.154z"/>
																		</g>
																	</g>
																</g>
															</g>
														</g>
													</g>
												</g>
											</g>
										</g>
									</g>
								</g>
							</g>
						</g>
					</g>
				</g>
				<g>
					<path style="fill:#EB996E;" d="M277.618,178.118c-0.722-1.013-1.986-1.535-3.228-1.621c-1.165-0.081-2.76,0.679-3.714,1.782
						c-0.022,0.021-0.041,0.042-0.063,0.064c-0.041,0.049-0.099,0.088-0.137,0.139l0.053-0.024
						c-0.346,0.391-0.597,0.879-0.636,1.398c-0.089,1.17,0.605,2.294,1.541,3.001c1.488,1.124,3.705,1.289,5.222,0.205
						C278.174,181.979,278.7,179.637,277.618,178.118z"/>
				</g>
				<g>
					<g>
						<path style="fill:#263238;" d="M270.9,175.611c0.15-0.012,0.269,0.599,0.684,1.448c0.403,0.844,1.175,1.933,2.372,2.651
							c1.201,0.714,2.525,0.876,3.46,0.83c0.945-0.037,1.539-0.223,1.599-0.085c0.056,0.107-0.461,0.544-1.507,0.78
							c-1.023,0.24-2.612,0.187-4.06-0.674c-1.444-0.866-2.246-2.239-2.52-3.254C270.641,176.275,270.779,175.612,270.9,175.611z"/>
					</g>
				</g>
			</g>
			<g>
				<path style="fill:#263238;" d="M282.6,121.465c-0.341,1.868,0.662,3.761,2.039,5.068c1.377,1.307,3.104,2.17,4.714,3.175
					c5.001,3.123,7.467,9.938,9.811,15.348c4.117-7.842-2.219-18.014-7.451-24.142c-0.944-1.105-1.976-2.176-3.267-2.844
					c-1.29-0.669-2.888-0.883-4.196-0.251"/>
			</g>
			<g>
				<g>
					<path style="fill:#455A64;" d="M299.173,184.078c-0.017-0.007,0.059-0.246,0.219-0.693c0.181-0.494,0.418-1.141,0.714-1.949
						c0.574-1.708,1.418-4.177,2.164-7.31c1.517-6.233,2.633-15.2,1.369-24.953c-0.624-4.861-1.665-9.459-3.238-13.396
						c-1.573-3.936-3.815-7.132-6.254-9.205c-2.412-2.118-4.868-3.146-6.584-3.617c-1.735-0.459-2.747-0.454-2.741-0.515
						c0.001-0.018,0.25-0.016,0.727,0.004c0.476,0.029,1.177,0.113,2.064,0.314c1.756,0.417,4.284,1.41,6.773,3.533
						c2.518,2.077,4.841,5.323,6.458,9.304c1.62,3.986,2.68,8.612,3.31,13.511c1.275,9.831,0.089,18.864-1.528,25.107
						c-0.796,3.138-1.697,5.601-2.331,7.292c-0.336,0.839-0.619,1.482-0.807,1.918C299.298,183.859,299.19,184.085,299.173,184.078z
						"/>
				</g>
			</g>
			<g>
				<g>
					<path style="fill:#263238;" d="M300.861,197.577c-0.009,0.003-0.039-0.071-0.091-0.22c-0.059-0.179-0.13-0.397-0.217-0.663
						c-0.164-0.59-0.365-1.48-0.429-2.648c-0.177-2.33,0.402-5.777,2.247-9.531c1.772-3.81,5.006-7.634,8.098-12.128
						c1.529-2.257,2.995-4.745,3.923-7.551c0.918-2.804,1.305-5.895,1.06-9.016c-0.243-3.123-1.111-6.115-2.468-8.735
						c-1.361-2.627-3.153-4.888-4.972-6.922c-3.667-4.047-7.345-7.418-9.748-10.847c-2.469-3.371-3.746-6.588-4.164-8.883
						c-0.434-2.302-0.233-3.6-0.233-3.6c0.074-0.004-0.059,1.299,0.431,3.559c0.475,2.254,1.783,5.399,4.263,8.708
						c2.415,3.366,6.092,6.684,9.808,10.744c1.842,2.04,3.671,4.326,5.068,7.007c1.395,2.678,2.286,5.738,2.534,8.93
						c0.251,3.191-0.148,6.35-1.094,9.217c-0.958,2.873-2.46,5.394-4.011,7.661c-3.142,4.515-6.376,8.281-8.165,12.02
						c-1.863,3.688-2.487,7.061-2.375,9.36C300.4,196.35,300.944,197.559,300.861,197.577z"/>
				</g>
			</g>
			<g>
				<path style="fill:#263238;" d="M279.582,111.633c-3.211-2.278-7.348-2.79-11.285-2.734c-10.6,0.152-21.358,4.204-28.45,12.082
					c-5.973,6.634-14.804,19.414-16.476,28.183c-4.071,21.349,9.423,27.331-1.569,60.657c-1.981,6.006-4.481,11.874-5.7,18.08
					c-0.43,2.189-0.656,4.463-0.613,6.715c-1.288,3.904-0.499,8.408,1.092,12.289c1.867,4.555,4.722,8.66,6.51,13.247
					c1.789,4.587,5.726,12.12,3.101,16.284c3.708-0.991,3.841-4.862,6.78-7.331c0.865,3.293,0.837,6.816-0.081,10.095
					c4.569-0.303,9.022-2.154,12.46-5.18c6.863-6.041,9.02-15.746,10.07-24.828c2.296-19.857,0.052-38.889-5.21-58.173l-0.076,0.094
					c-3.826-12.331-11.073-23.717-4.564-26.432c11.334-4.728,0.983-9.712,5.299-21.631c1.348-3.721,2.852-7.66,6.028-10.022
					c3.782-2.813,8.896-2.671,13.603-2.931c4.706-0.26,10.051-1.493,12.261-5.656l0.286-2.495
					C284.711,118.376,282.793,113.911,279.582,111.633z"/>
			</g>
			<g>
				<g>
					<path style="fill:#455A64;" d="M228.438,190.557c-0.029-0.033,0.386-0.199,0.828-0.84c0.451-0.63,0.76-1.789,0.634-3.263
						c-0.316-2.954-1.81-7.037-3.757-11.997c-0.933-2.498-1.983-5.257-2.539-8.378c-0.573-3.092-0.556-6.627,0.73-9.986
						c1.245-3.348,3.573-6.505,6.799-8.709c3.191-2.305,7.547-2.652,10.217-5.777c2.746-2.97,3.972-6.859,5.157-10.478
						c0.6-1.824,1.209-3.626,2.004-5.314c0.784-1.693,1.742-3.256,2.795-4.69c2.127-2.857,4.686-5.152,7.362-6.837
						c1.338-0.842,2.723-1.533,4.141-1.962c1.416-0.44,2.856-0.57,4.203-0.497c2.712,0.144,5.038,0.978,7.011,1.743
						c1.967,0.806,3.648,1.517,4.97,2.239c1.319,0.726,2.19,1.556,2.631,2.216c0.441,0.664,0.529,1.08,0.529,1.08
						c-0.029,0.014-0.156-0.389-0.615-1.019c-0.46-0.627-1.328-1.411-2.643-2.1c-1.313-0.683-3.013-1.371-4.978-2.146
						c-1.97-0.735-4.281-1.531-6.922-1.646c-1.314-0.059-2.701,0.077-4.069,0.513c-1.37,0.426-2.718,1.107-4.028,1.943
						c-2.622,1.673-5.128,3.943-7.207,6.758c-1.029,1.413-1.966,2.951-2.73,4.615c-0.776,1.658-1.375,3.44-1.971,5.263
						c-1.18,3.613-2.41,7.585-5.261,10.674c-1.39,1.559-3.254,2.598-5.098,3.324c-1.852,0.74-3.653,1.438-5.214,2.52
						c-3.136,2.133-5.413,5.201-6.636,8.455c-1.263,3.263-1.299,6.694-0.754,9.743c0.527,3.072,1.548,5.822,2.458,8.322
						c1.901,4.976,3.355,9.096,3.614,12.114c0.098,1.507-0.254,2.704-0.751,3.337c-0.238,0.322-0.479,0.516-0.646,0.63
						C228.533,190.515,228.443,190.565,228.438,190.557z"/>
				</g>
			</g>
			<g>
				<g>
					<g>
						<g>
							<g>
								<g>
									<g>
										<g>
											<g>
												<g>
													<g>
														<g>
															<path style="fill:#FFBE9D;" d="M244.957,166.308c-0.285-3.987-4.69-6.559-8.108-4.485
																c-1.876,1.139-3.282,3.378-3.016,7.612c0.708,11.292,11.898,8.252,11.898,7.927
																C245.73,177.161,245.29,170.977,244.957,166.308z"/>
														</g>
													</g>
												</g>
											</g>
										</g>
									</g>
								</g>
							</g>
						</g>
					</g>
				</g>
				<g>
					<g>
						<g>
							<g>
								<g>
									<g>
										<g>
											<g>
												<g>
													<g>
														<g>
															<g>
																<path style="fill:#EB996E;" d="M242.013,173.301c-0.052-0.033-0.188,0.15-0.511,0.323
																	c-0.315,0.169-0.866,0.306-1.469,0.122c-1.22-0.363-2.343-2.194-2.525-4.226c-0.093-1.026,0.061-2.018,0.374-2.851
																	c0.293-0.848,0.79-1.458,1.385-1.603c0.589-0.176,1.037,0.157,1.195,0.466c0.171,0.306,0.113,0.536,0.175,0.552
																	c0.033,0.026,0.23-0.204,0.11-0.665c-0.061-0.221-0.21-0.479-0.488-0.68c-0.285-0.203-0.69-0.291-1.106-0.219
																	c-0.867,0.115-1.601,0.965-1.945,1.879c-0.392,0.922-0.589,2.038-0.485,3.19c0.215,2.271,1.513,4.327,3.175,4.696
																	c0.807,0.158,1.455-0.123,1.78-0.411C242.01,173.575,242.053,173.319,242.013,173.301z"/>
															</g>
														</g>
													</g>
												</g>
											</g>
										</g>
									</g>
								</g>
							</g>
						</g>
					</g>
				</g>
			</g>
			<g>
				<g>
					<path style="fill:#FFFFFF;" d="M246.316,181.006c0.028-0.001,0.08,0.226-0.02,0.628c-0.104,0.392-0.401,0.956-1.024,1.382
						c-0.603,0.439-1.596,0.638-2.537,0.291c-0.94-0.314-1.82-1.125-2.224-2.191c-0.416-1.061-0.411-2.17-0.187-3.107
						c0.226-0.943,0.683-1.71,1.169-2.249c1.009-1.098,2.014-1.166,1.997-1.119c0.044,0.091-0.866,0.289-1.716,1.358
						c-0.413,0.526-0.799,1.249-0.981,2.116c-0.181,0.857-0.166,1.874,0.203,2.808c0.358,0.939,1.098,1.633,1.903,1.932
						c0.806,0.317,1.623,0.192,2.176-0.15c0.567-0.333,0.88-0.801,1.03-1.138C246.252,181.223,246.273,181.004,246.316,181.006z"/>
				</g>
			</g>
			<g>
				<g>
					<path style="fill:#455A64;" d="M280.399,123.193c-0.055,0.056-0.699-0.915-2.388-2.025c-1.683-1.071-4.58-2.091-8.183-1.717
						c-1.788,0.163-3.716,0.711-5.585,1.679c-1.863,0.999-3.674,2.393-5.313,4.122c-1.652,1.719-3.132,3.759-4.509,5.966
						c-1.374,2.212-2.617,4.614-3.91,7.069c-1.293,2.456-2.583,4.853-4.035,7.05c-1.437,2.203-3.071,4.183-4.808,5.861
						c-1.72,1.695-3.434,3.204-4.91,4.736c-1.48,1.524-2.729,3.076-3.58,4.658c-1.719,3.181-1.911,6.27-1.432,8.207
						c0.469,1.974,1.319,2.821,1.24,2.86c-0.014,0.011-0.186-0.211-0.503-0.648c-0.269-0.462-0.688-1.159-0.933-2.163
						c-0.553-1.972-0.415-5.15,1.303-8.428c0.854-1.637,2.112-3.231,3.594-4.784c1.479-1.562,3.187-3.088,4.883-4.778
						c1.712-1.675,3.301-3.617,4.72-5.801c1.43-2.175,2.709-4.558,4.001-7.012c1.292-2.452,2.545-4.865,3.938-7.096
						c1.396-2.225,2.904-4.288,4.596-6.029c1.679-1.752,3.541-3.166,5.458-4.172c1.935-0.982,3.919-1.52,5.752-1.664
						c3.694-0.336,6.648,0.768,8.329,1.914c0.842,0.589,1.423,1.142,1.773,1.55C280.24,122.961,280.413,123.182,280.399,123.193z"/>
				</g>
			</g>
		</g>
		<g>
			<g>
				<path style="fill:#FFBE9D;" d="M195.311,245.43l2.097-10.141l-19.317-8.814c0,0-0.178,0.592-0.498,1.657
					c-2.761,9.191-16.526,53.48-17.361,56.785c-3.106,12.291-2.418,36.61,2.49,41.166c3.915,3.635,11.449,6.321,16.429,5.768
					c4.979-0.553,18.704-18.217,18.704-18.217l12.598-40.341L195.311,245.43z"/>
			</g>
			<g>
				<g>
					<path style="fill:#EB996E;" d="M196.163,239.398c0.018,0.003-0.016,0.274-0.095,0.785c-0.093,0.559-0.218,1.302-0.373,2.233
						c-0.358,1.988-0.86,4.774-1.476,8.193c-0.617,3.459-1.348,7.579-1.974,12.177c-0.617,4.597-1.143,9.681-1.167,15.028
						c0,5.349,0.568,10.43,1.689,14.93c1.094,4.499,2.099,8.634,1.994,12.201c-0.051,3.557-1.04,6.359-2.076,8.041
						c-1.027,1.707-1.94,2.364-1.94,2.364c-0.056-0.047,0.81-0.756,1.764-2.465c0.965-1.685,1.879-4.446,1.883-7.944
						c0.057-3.503-0.969-7.579-2.092-12.085c-1.154-4.519-1.744-9.663-1.743-15.043c0.025-5.383,0.568-10.487,1.213-15.093
						c0.654-4.608,1.424-8.726,2.088-12.179c0.684-3.407,1.241-6.183,1.638-8.164c0.196-0.924,0.352-1.661,0.469-2.215
						C196.077,239.658,196.145,239.394,196.163,239.398z"/>
				</g>
			</g>
			<g>
				<g>
					<path style="fill:#FFBE9D;" d="M216.133,218.518l-3.742-4.137v-4.924l-3.885-5.574l-7.736,1.241l-2.364,0.197l1.573-11.302
						c0,0,0.725-2.857,3.482-8.372c2.758-5.515-1.683-8.044-1.683-8.044l-8.297,14.52l-2.758,9.652l-1.182-7.879
						c0,0,1.4-7.658,1.203-11.597c-0.197-3.939-4.158-3.373-4.158-3.373l-3.152,17.334v8.667l-2.758-5.121
						c0,0-0.591-4.333-0.985-8.273c-0.394-3.939-3.546-2.758-3.546-2.758v12.803l3.546,11.818c0,0-2.329,15.251-2.723,15.842
						l18.241,12.782c0,0,3.983-3.017,4.771-3.214c0.788-0.197,10.637-7.485,10.637-7.485l6.894-7.288c0,0,1.182-0.788,1.182-1.576
						C218.693,221.669,216.133,218.518,216.133,218.518z M206.678,223.245l-3.94-1.773l-2.167-5.318l1.605-2.919l0.561-1.021
						l0.722-0.504l2.627,0.504c0,0,1.182,3.743,0.985,5.515c-0.197,1.773,2.167,3.546,2.167,3.546L206.678,223.245z"/>
				</g>
				<g>
					<g>
						<g>
							<path style="fill:#EB996E;" d="M203.461,211.711c-0.007,0.062-0.363,0.095-0.905-0.076c-0.54-0.166-1.243-0.581-1.798-1.255
								c-0.553-0.677-0.823-1.448-0.88-2.009c-0.061-0.566,0.041-0.908,0.103-0.903c0.15-0.008,0.153,1.366,1.18,2.581
								C202.15,211.293,203.497,211.565,203.461,211.711z"/>
						</g>
					</g>
					<g>
						<g>
							<path style="fill:#EB996E;" d="M213.599,221.924c-0.146-0.023-0.059-1.303,0.009-2.875c0.073-1.572,0.101-2.855,0.248-2.865
								c0.14-0.011,0.347,1.282,0.272,2.888C214.059,220.677,213.738,221.947,213.599,221.924z"/>
						</g>
					</g>
					<g>
						<g>
							<path style="fill:#EB996E;" d="M207.525,229.369c-0.047,0.042-0.5-0.321-1.065-1.08c-0.538-0.757-1.213-2.001-1.022-3.551
								c0.061-0.383,0.234-0.759,0.486-1.044c0.23-0.256,0.466-0.482,0.696-0.691c0.461-0.415,0.901-0.754,1.281-1.023
								c0.756-0.54,1.301-0.785,1.338-0.705c0.023,0.051-0.421,0.387-1.111,0.995c-0.345,0.3-0.752,0.662-1.18,1.082
								c-0.213,0.211-0.432,0.435-0.641,0.677c-0.181,0.217-0.307,0.488-0.358,0.799c-0.106,0.624,0.024,1.275,0.186,1.834
								c0.162,0.56,0.406,1.034,0.632,1.424C207.23,228.863,207.586,229.317,207.525,229.369z"/>
						</g>
					</g>
				</g>
				<g>
					<g>
						<path style="fill:#EB996E;" d="M212.402,213.881c0.124-0.017,0.112,2.039-1.314,4.06c-0.364,0.492-0.832,0.902-1.342,1.124
							c-0.519,0.229-1.044,0.231-1.448,0.135c-0.845-0.215-1.068-0.794-1.005-0.801c0.061-0.056,0.362,0.357,1.071,0.439
							c0.344,0.038,0.776-0.003,1.177-0.207c0.411-0.205,0.799-0.557,1.13-1.002C211.987,215.78,212.246,213.841,212.402,213.881z"
							/>
					</g>
				</g>
				<g>
					<g>
						<path style="fill:#EB996E;" d="M207.089,217.447c-0.121-0.002-0.406-1.732-0.958-3.871c-0.254-1.074-0.45-2.064-0.517-2.795
							c-0.072-0.731-0.023-1.189,0.045-1.192c0.076-0.003,0.157,0.435,0.319,1.133c0.236,0.976,0.441,1.827,0.66,2.734
							C207.193,215.6,207.259,217.446,207.089,217.447z"/>
					</g>
				</g>
				<g>
					<g>
						<path style="fill:#EB996E;" d="M213.599,223.097c-0.004,0.114-2.201-0.155-4.46-1.578c-0.572-0.345-1.083-0.762-1.454-1.233
							c-0.37-0.472-0.586-0.986-0.668-1.427c-0.163-0.89,0.021-1.423,0.073-1.413c0.089,0.002,0.048,0.545,0.284,1.321
							c0.213,0.787,0.937,1.675,2.037,2.307C211.579,222.446,213.645,222.928,213.599,223.097z"/>
					</g>
				</g>
				<g>
					<g>
						<path style="fill:#EB996E;" d="M197.363,227.478c-0.147,0.09-1.419-2.88-4.369-5.378c-2.915-2.541-6.041-3.351-5.974-3.51
							c0.014-0.057,0.806,0.061,2.012,0.521c1.203,0.455,2.799,1.308,4.302,2.594c1.497,1.291,2.58,2.741,3.211,3.862
							C197.181,226.69,197.417,227.456,197.363,227.478z"/>
					</g>
				</g>
				<g>
					<g>
						<path style="fill:#EB996E;" d="M190.761,209.086c0.006,0.154-1.443,0.276-3.107,0.86c-1.67,0.568-2.885,1.367-2.976,1.242
							c-0.089-0.099,1.045-1.133,2.806-1.734C189.24,208.84,190.77,208.952,190.761,209.086z"/>
					</g>
				</g>
			</g>
		</g>
		<g>
			<g>
				<g>
					<g>
						<g>
							<g>
								<g>
									<g>
										<g>
											<g>
												<path style="fill:#455A64;" d="M222.417,428.699c0,0-58.426,16.171-60.77,16.996
													c-3.519,1.239-2.928,14.134,2.549,13.933c2.591-0.095,44.877,1.575,50.22,1.241c5.343-0.334,19.721-6.014,19.721-6.014
													L222.417,428.699z"/>
											</g>
										</g>
									</g>
								</g>
							</g>
						</g>
					</g>
					<g>
						<g>
							<g>
								<g>
									<g>
										<g>
											<g>
												<g>
													<path style="fill:#263238;" d="M198.077,450.992c-0.294,0.041-0.688-3.05-2.575-6.273
														c-1.84-3.251-4.313-5.144-4.131-5.378c0.102-0.225,3.004,1.421,4.978,4.891
														C198.358,447.68,198.324,451.017,198.077,450.992z"/>
												</g>
											</g>
										</g>
									</g>
								</g>
							</g>
						</g>
					</g>
					<g>
						<g>
							<g>
								<g>
									<g>
										<g>
											<g>
												<g>
													<path style="fill:#263238;" d="M204.169,448.23c-0.286,0.05-0.878-2.713-2.434-5.764
														c-1.526-3.068-3.392-5.189-3.182-5.388c0.161-0.192,2.443,1.719,4.055,4.949
														C204.243,445.243,204.419,448.215,204.169,448.23z"/>
												</g>
											</g>
										</g>
									</g>
								</g>
							</g>
						</g>
					</g>
					<g>
						<g>
							<g>
								<g>
									<g>
										<g>
											<g>
												<g>
													<path style="fill:#263238;" d="M209.883,446.7c-0.295-0.018-0.07-2.936-1.367-6.173
														c-1.242-3.259-3.386-5.25-3.182-5.464c0.117-0.222,2.737,1.584,4.093,5.108
														C210.82,443.679,210.12,446.784,209.883,446.7z"/>
												</g>
											</g>
										</g>
									</g>
								</g>
							</g>
						</g>
					</g>
					<g>
						<g>
							<g>
								<g>
									<g>
										<g>
											<g>
												<g>
													<path style="fill:#263238;" d="M208.846,439.153c-0.104,0.026-0.622-1.605-0.627-4.347
														c0.004-1.365,0.161-3,0.592-4.764c0.214-0.882,0.503-1.793,0.87-2.712c0.189-0.464,0.405-0.998,0.936-1.432
														c0.545-0.489,1.536-0.388,2.006,0.099c0.536,0.467,0.705,1.125,0.779,1.652c0.059,0.537,0.089,1.037,0.076,1.543
														c-0.014,1.006-0.144,1.97-0.361,2.86c-0.432,1.784-1.128,3.28-1.798,4.466c-1.362,2.371-2.541,3.583-2.624,3.518
														c-0.134-0.094,0.845-1.454,2.012-3.837c0.574-1.192,1.173-2.655,1.532-4.344c0.18-0.842,0.281-1.741,0.281-2.669
														c-0.026-0.898-0.013-2.02-0.538-2.452c-0.279-0.231-0.53-0.246-0.773-0.065c-0.258,0.197-0.474,0.597-0.64,1.021
														c-0.362,0.873-0.656,1.738-0.885,2.578c-0.46,1.679-0.682,3.243-0.773,4.562
														C208.739,437.476,209.005,439.13,208.846,439.153z"/>
												</g>
											</g>
										</g>
									</g>
								</g>
							</g>
						</g>
					</g>
					<g>
						<g>
							<g>
								<g>
									<g>
										<g>
											<g>
												<g>
													<path style="fill:#263238;" d="M208.919,438.559c-0.027-0.107,1.383-0.592,3.768-0.608
														c1.187-0.002,2.612,0.123,4.145,0.508c0.757,0.204,1.57,0.4,2.388,0.88c0.8,0.406,1.637,1.517,1.32,2.67
														c-0.25,1.086-1.181,1.847-2.105,2.085c-0.93,0.26-1.831,0.167-2.621-0.007c-1.603-0.368-2.85-1.157-3.796-1.866
														c-1.872-1.469-2.787-2.593-2.717-2.675c0.103-0.124,1.209,0.837,3.112,2.108c0.958,0.612,2.156,1.273,3.584,1.551
														c0.71,0.136,1.475,0.178,2.167-0.03c0.688-0.19,1.259-0.714,1.423-1.389c0.168-0.653-0.229-1.251-0.868-1.63
														c-0.626-0.388-1.4-0.611-2.12-0.827c-1.446-0.413-2.797-0.603-3.937-0.687
														C210.377,438.482,208.943,438.716,208.919,438.559z"/>
												</g>
											</g>
										</g>
									</g>
								</g>
							</g>
						</g>
					</g>
					<g>
						<g>
							<g>
								<g>
									<g>
										<g>
											<g>
												<g>
													<path style="fill:#263238;" d="M189.1,451.618c-0.289-0.033-0.003-2.53-1.152-5.27
														c-1.094-2.763-3.044-4.348-2.86-4.574c0.096-0.238,2.539,1.146,3.766,4.204
														C190.114,449.023,189.336,451.721,189.1,451.618z"/>
												</g>
											</g>
										</g>
									</g>
								</g>
							</g>
						</g>
					</g>
					<g>
						<g>
							<g>
								<g>
									<g>
										<g>
											<g>
												<g>
													<path style="fill:#263238;" d="M229.868,454.315c0.026,0.062-0.778,0.437-2.26,1.063
														c-1.501,0.567-3.698,1.361-6.502,2.015c-5.588,1.408-13.554,2.207-22.306,2.114
														c-8.756-0.096-16.646-0.495-22.367-0.724c-2.708-0.144-4.978-0.264-6.771-0.359c-1.598-0.107-2.48-0.198-2.479-0.265
														c0.002-0.068,0.889-0.105,2.49-0.116c1.795,0.013,4.068,0.029,6.78,0.048c5.918,0.116,13.722,0.269,22.352,0.437
														c8.712,0.091,16.583-0.591,22.149-1.81C226.539,455.571,229.8,454.134,229.868,454.315z"/>
												</g>
											</g>
										</g>
									</g>
								</g>
							</g>
						</g>
					</g>
					<g>
						<g>
							<g>
								<g>
									<g>
										<g>
											<g>
												<g>
													<path style="fill:#263238;" d="M231.595,455.647c-0.079,0.135-1.678-0.799-4.377-1.983
														c-2.667-1.145-6.666-2.516-11.056-1.838c-4.403,0.674-7.524,3.632-9.556,5.685c-2.049,2.126-3.249,3.539-3.367,3.439
														c-0.088-0.073,0.909-1.625,2.859-3.908c0.986-1.129,2.237-2.437,3.874-3.622c1.619-1.19,3.702-2.202,6.036-2.559
														c4.71-0.721,8.86,0.853,11.501,2.176C230.19,454.408,231.655,455.551,231.595,455.647z"/>
												</g>
											</g>
										</g>
									</g>
								</g>
							</g>
						</g>
					</g>
				</g>
				<g>
					<g>
						<g>
							<g>
								<g>
									<path style="fill:#263238;" d="M172.984,458.174c-0.106-0.071,0.393-0.844,0.853-2.208c0.465-1.35,0.822-3.353,0.429-5.491
										c-0.396-2.138-1.445-3.881-2.361-4.977c-0.917-1.11-1.659-1.654-1.585-1.758c0.046-0.078,0.919,0.307,2.001,1.38
										c1.075,1.054,2.297,2.889,2.726,5.21c0.427,2.32-0.059,4.471-0.686,5.839C173.733,457.559,173.054,458.23,172.984,458.174z
										"/>
								</g>
							</g>
						</g>
					</g>
				</g>
			</g>
			<g>
				<g>
					<g>
						<path style="fill:#263238;" d="M216.727,346.174l-10.497,25.861c0,0-52.177-19.092-82.72-13.53
							c-11.613,2.115-24.042,28.464-7.121,45.384c16.509,16.509,46.035,39.847,101.423,47.401c1.382,0.189,24.068,5.06,22.671,4.895
							c-1.397-0.165,31.807,5.09,31.807,5.09l7.795-29.476l61.865,9.708c36.459-2.49,54.303-41.476,32.347-54.026
							c-20.482-11.707-58.994-12.646-58.994-12.646l-9.458-25.79L216.727,346.174z"/>
					</g>
				</g>
				<g>
					<g>
						<g>
							<path style="fill:#455A64;" d="M273.522,462.344c0.163-0.997,0.603-3.682,1.505-9.189c0.492-2.94,1.099-6.523,1.88-10.646
								c0.392-2.061,0.831-4.257,1.353-6.569c0.266-1.155,0.549-2.34,0.887-3.546c0.173-0.602,0.353-1.211,0.573-1.821
								c0.23-0.61,0.427-1.223,0.938-1.819l0.093,0.447c-13.17-4.675-29.629-10.851-47.176-18.249
								c-10.788-4.589-20.966-9.224-29.921-14.048c-4.461-2.426-8.663-4.87-12.273-7.611c-3.641-2.689-6.882-5.373-9.921-7.712
								c-6.021-4.749-11.478-7.818-15.563-9.122c-1.001-0.385-1.928-0.596-2.725-0.805c-0.792-0.232-1.479-0.353-2.036-0.441
								c-0.527-0.096-0.945-0.172-1.264-0.23c-0.285-0.056-0.43-0.09-0.429-0.101s0.149,0,0.437,0.034
								c0.322,0.042,0.744,0.097,1.277,0.166c0.563,0.067,1.258,0.168,2.06,0.38c0.807,0.19,1.746,0.383,2.761,0.752
								c2.068,0.612,4.489,1.701,7.162,3.187c2.673,1.495,5.548,3.478,8.605,5.807c3.065,2.321,6.322,4.983,9.96,7.64
								c3.604,2.706,7.779,5.11,12.239,7.517c8.942,4.778,19.113,9.391,29.89,13.974c17.528,7.39,33.965,13.61,47.094,18.359
								l0.367,0.133l-0.273,0.314c-0.345,0.397-0.604,1.03-0.812,1.608c-0.217,0.589-0.399,1.189-0.573,1.782
								c-0.342,1.19-0.632,2.367-0.905,3.515c-0.537,2.299-0.993,4.487-1.403,6.542c-0.818,4.11-1.466,7.685-2.003,10.616
								c-0.538,2.899-0.962,5.178-1.258,6.776c-0.154,0.777-0.277,1.37-0.374,1.766
								C273.601,462.147,273.522,462.344,273.522,462.344z"/>
						</g>
					</g>
				</g>
				<g>
					<g>
						<g>
							<path style="fill:#455A64;" d="M362.296,391.038c-0.003,0.011-0.115,0.001-0.333-0.03c-0.255-0.041-0.572-0.091-0.963-0.153
								c-0.85-0.112-2.077-0.429-3.696-0.585c-3.213-0.474-7.926-0.784-13.722-0.486c-5.8,0.277-12.655,1.395-20.088,3.314
								c-3.709,0.994-7.569,2.162-11.52,3.53c-3.951,1.372-7.979,2.948-12.107,4.592c-4.135,1.67-8.297,2.961-12.344,4.073
								c-4.048,1.118-8.004,1.99-11.788,2.722c-7.569,1.474-14.452,2.384-20.233,3.089c-5.782,0.697-10.469,1.18-13.708,1.512
								c-1.579,0.155-2.826,0.277-3.731,0.366c-0.395,0.032-0.714,0.058-0.972,0.079c-0.219,0.014-0.333,0.016-0.334,0.004
								c-0.001-0.011,0.109-0.035,0.326-0.072c0.256-0.038,0.573-0.086,0.965-0.144c0.902-0.119,2.144-0.283,3.717-0.49
								c3.284-0.413,7.943-1,13.678-1.721c5.768-0.764,12.633-1.721,20.173-3.224c3.77-0.746,7.708-1.629,11.734-2.75
								c4.026-1.115,8.163-2.403,12.27-4.063c4.124-1.643,8.175-3.222,12.14-4.59c3.968-1.364,7.849-2.525,11.579-3.507
								c7.478-1.895,14.382-2.971,20.219-3.19c5.834-0.24,10.569,0.145,13.783,0.699c1.62,0.196,2.844,0.555,3.686,0.71
								c0.386,0.089,0.699,0.161,0.951,0.218C362.191,390.994,362.299,391.026,362.296,391.038z"/>
						</g>
					</g>
				</g>
				<g>
					<g>
						<g>
							<path style="fill:#263238;" d="M266.987,380.429c0.039,0.438-2.769,1.141-7.403,1.576c-4.627,0.438-11.085,0.52-18.156-0.232
								c-7.072-0.763-13.366-2.212-17.796-3.62c-4.436-1.406-7.031-2.688-6.9-3.108c0.293-0.933,11.251,1.983,25.051,3.419
								C255.569,379.983,266.898,379.455,266.987,380.429z"/>
						</g>
					</g>
				</g>
				<g>
					<g>
						<g>
							<path style="fill:#455A64;" d="M315.891,375.254c0.008,0.045-0.722,0.237-2.042,0.544c-0.664,0.138-1.466,0.345-2.389,0.623
								c-0.927,0.259-1.983,0.546-3.124,0.957c-2.313,0.719-4.976,1.837-7.898,3.137c-2.893,1.37-6.01,3.01-9.185,4.904
								c-6.334,3.824-11.699,7.864-15.488,10.892c-1.898,1.512-3.413,2.763-4.454,3.636c-1.044,0.869-1.636,1.334-1.667,1.3
								c-0.031-0.034,0.503-0.564,1.496-1.495c0.99-0.934,2.461-2.243,4.327-3.806c3.723-3.13,9.069-7.251,15.443-11.099
								c3.194-1.906,6.343-3.542,9.272-4.891c2.959-1.28,5.662-2.36,8.011-3.027c1.158-0.384,2.232-0.642,3.174-0.868
								c0.937-0.245,1.753-0.417,2.429-0.516C315.139,375.315,315.883,375.209,315.891,375.254z"/>
						</g>
					</g>
				</g>
				<g>
					<g>
						<g>
							<path style="fill:#455A64;" d="M257.891,401.247c-0.02,0.076-1.452-0.231-3.665-1.044c-2.217-0.801-5.183-2.148-8.373-3.78
								c-3.073-1.61-5.852-3.065-8.116-4.251c-2.075-1.083-3.376-1.723-3.338-1.813c0.033-0.079,1.407,0.41,3.544,1.39
								c2.141,0.972,5.03,2.451,8.211,4.081c3.182,1.628,6.09,3.03,8.244,3.936C256.547,400.683,257.92,401.147,257.891,401.247z"/>
						</g>
					</g>
				</g>
				<g>
					<g>
						<g>
							<path style="fill:#455A64;" d="M263.534,347.687c0.101,0.016-0.077,2.383-0.272,6.211c-0.197,3.828-0.368,9.122-0.28,14.968
								c0.094,5.848,0.43,11.131,0.745,14.946c0.314,3.816,0.565,6.172,0.465,6.192c-0.045,0.009-0.161-0.569-0.333-1.625
								c-0.175-1.055-0.383-2.591-0.6-4.498c-0.437-3.812-0.849-9.118-0.944-15c-0.089-5.88,0.158-11.202,0.476-15.032
								c0.158-1.915,0.317-3.461,0.459-4.523C263.39,348.263,263.488,347.68,263.534,347.687z"/>
						</g>
					</g>
				</g>
				<g>
					<g>
						<g>
							<path style="fill:#455A64;" d="M269.341,357.832c0.033,0.054-0.219,0.203-0.544,0.581c-0.327,0.371-0.692,1.016-0.815,1.884
								c-0.108,0.851,0.046,1.977,0.802,2.798c0.73,0.841,2.112,1.088,3.334,0.631c1.226-0.449,2.113-1.538,2.118-2.652
								c0.038-1.116-0.579-2.07-1.216-2.645c-0.66-0.578-1.357-0.83-1.847-0.898c-0.493-0.075-0.781-0.024-0.791-0.086
								c-0.009-0.026,0.266-0.169,0.812-0.172c0.539-0.008,1.346,0.193,2.128,0.795c0.751,0.598,1.528,1.645,1.527,3.022
								c0.029,1.393-1.068,2.749-2.5,3.261c-1.419,0.545-3.134,0.231-4.02-0.844c-0.898-1.043-0.991-2.344-0.812-3.287
								c0.201-0.966,0.681-1.645,1.096-1.99C269.029,357.878,269.331,357.807,269.341,357.832z"/>
						</g>
					</g>
				</g>
			</g>
			<g>
				<g>
					<g>
						<g>
							<g>
								<g>
									<g>
										<g>
											<path style="fill:#455A64;" d="M280.451,430.992c0,0,59.296,9.013,61.695,9.548c3.603,0.803,4.539,13.54-0.865,13.987
												c-2.557,0.212-43.899,6.825-49.187,7.126c-5.288,0.3-21.869-4.044-21.869-4.044L280.451,430.992z"/>
										</g>
									</g>
								</g>
							</g>
						</g>
					</g>
				</g>
				<g>
					<g>
						<g>
							<g>
								<g>
									<g>
										<g>
											<g>
												<path style="fill:#263238;" d="M306.983,450.029c0.293,0.005,0.317-3.077,1.792-6.465
													c1.425-3.41,3.632-5.561,3.425-5.769c-0.127-0.21-2.784,1.749-4.315,5.39
													C306.318,446.808,306.744,450.083,306.983,450.029z"/>
											</g>
										</g>
									</g>
								</g>
							</g>
						</g>
					</g>
				</g>
				<g>
					<g>
						<g>
							<g>
								<g>
									<g>
										<g>
											<g>
												<path style="fill:#263238;" d="M300.674,448.032c0.287,0.015,0.543-2.768,1.713-5.949
													c1.138-3.193,2.722-5.495,2.492-5.667c-0.181-0.169-2.198,1.976-3.402,5.338
													C300.25,445.107,300.427,448.047,300.674,448.032z"/>
											</g>
										</g>
									</g>
								</g>
							</g>
						</g>
					</g>
				</g>
				<g>
					<g>
						<g>
							<g>
								<g>
									<g>
										<g>
											<g>
												<path style="fill:#263238;" d="M294.881,447.201c0.287-0.052-0.276-2.893,0.617-6.224
													c0.836-3.347,2.709-5.556,2.483-5.742c-0.141-0.204-2.502,1.878-3.42,5.499
													C293.605,444.344,294.658,447.311,294.881,447.201z"/>
											</g>
										</g>
									</g>
								</g>
							</g>
						</g>
					</g>
				</g>
				<g>
					<g>
						<g>
							<g>
								<g>
									<g>
										<g>
											<g>
												<path style="fill:#263238;" d="M295.012,439.666c0.106,0.013,0.422-1.65,0.104-4.344
													c-0.164-1.341-0.511-2.928-1.142-4.61c-0.314-0.841-0.705-1.702-1.173-2.562c-0.24-0.433-0.515-0.932-1.088-1.296
													c-0.593-0.416-1.555-0.201-1.96,0.333c-0.471,0.522-0.56,1.188-0.57,1.714c0.005,0.534,0.035,1.029,0.107,1.525
													c0.132,0.986,0.373,1.918,0.691,2.767c0.634,1.702,1.494,3.09,2.292,4.176c1.617,2.169,2.918,3.22,2.992,3.146
													c0.12-0.107-1.002-1.329-2.428-3.533c-0.704-1.103-1.465-2.471-2.016-4.087c-0.276-0.806-0.481-1.677-0.591-2.589
													c-0.08-0.885-0.225-1.986,0.24-2.471c0.246-0.259,0.491-0.304,0.751-0.155c0.276,0.163,0.536,0.531,0.749,0.927
													c0.458,0.815,0.849,1.631,1.173,2.428c0.649,1.595,1.051,3.105,1.296,4.391
													C294.919,438.006,294.852,439.662,295.012,439.666z"/>
											</g>
										</g>
									</g>
								</g>
							</g>
						</g>
					</g>
				</g>
				<g>
					<g>
						<g>
							<g>
								<g>
									<g>
										<g>
											<g>
												<path style="fill:#263238;" d="M294.87,439.091c0.014-0.108-1.428-0.419-3.773-0.154
													c-1.166,0.138-2.551,0.428-4.012,0.987c-0.719,0.29-1.495,0.578-2.242,1.145c-0.738,0.493-1.43,1.683-0.983,2.778
													c0.374,1.038,1.378,1.676,2.313,1.801c0.944,0.146,1.818-0.051,2.574-0.315c1.531-0.55,2.663-1.472,3.509-2.28
													c1.667-1.663,2.433-2.875,2.354-2.947c-0.116-0.11-1.09,0.964-2.81,2.437c-0.869,0.713-1.968,1.504-3.338,1.945
													c-0.682,0.217-1.428,0.349-2.132,0.225c-0.698-0.105-1.321-0.553-1.561-1.197c-0.241-0.622,0.077-1.256,0.661-1.704
													c0.569-0.455,1.304-0.765,1.985-1.061c1.371-0.576,2.677-0.921,3.787-1.138
													C293.429,439.186,294.865,439.247,294.87,439.091z"/>
											</g>
										</g>
									</g>
								</g>
							</g>
						</g>
					</g>
				</g>
				<g>
					<g>
						<g>
							<g>
								<g>
									<g>
										<g>
											<g>
												<path style="fill:#263238;" d="M315.875,449.588c0.28-0.066-0.295-2.486,0.512-5.312
													c0.749-2.843,2.479-4.629,2.272-4.829c-0.122-0.223-2.36,1.425-3.205,4.573
													C314.573,447.158,315.655,449.717,315.875,449.588z"/>
											</g>
										</g>
									</g>
								</g>
							</g>
						</g>
					</g>
				</g>
				<g>
					<g>
						<g>
							<g>
								<g>
									<g>
										<g>
											<g>
												<path style="fill:#263238;" d="M276.145,457.032c-0.018,0.064,0.815,0.338,2.345,0.779
													c1.541,0.38,3.793,0.902,6.624,1.215c5.654,0.726,13.574,0.574,22.16-0.547c8.59-1.124,16.294-2.444,21.887-3.342
													c2.644-0.46,4.859-0.845,6.609-1.149c1.557-0.293,2.413-0.486,2.403-0.551c-0.01-0.066-0.885,0.001-2.46,0.179
													c-1.761,0.224-3.992,0.507-6.654,0.845c-5.8,0.81-13.448,1.878-21.905,3.059c-8.548,1.115-16.359,1.37-21.97,0.827
													C279.563,457.875,276.19,456.846,276.145,457.032z"/>
											</g>
										</g>
									</g>
								</g>
							</g>
						</g>
					</g>
				</g>
				<g>
					<g>
						<g>
							<g>
								<g>
									<g>
										<g>
											<g>
												<path style="fill:#263238;" d="M274.605,458.543c0.093,0.123,1.554-0.983,4.066-2.463
													c2.486-1.438,6.253-3.256,10.645-3.106c4.405,0.144,7.818,2.683,10.056,4.461c2.263,1.848,3.608,3.094,3.712,2.982
													c0.078-0.082-1.084-1.49-3.268-3.503c-1.101-0.993-2.484-2.131-4.232-3.102c-1.73-0.978-3.896-1.728-6.23-1.804
													c-4.711-0.154-8.603,1.88-11.042,3.491C275.839,457.162,274.535,458.457,274.605,458.543z"/>
											</g>
										</g>
									</g>
								</g>
							</g>
						</g>
					</g>
				</g>
			</g>
		</g>
		<g>
			<g>
				<g>
					<path style="fill:#FFBE9D;" d="M314.417,282.078c-0.228,1.463-0.999,40.972,1.362,44.593
						c3.714,5.695,15.676,15.895,23.111,13.107c12.066-4.524,14.796-30.054,14.584-25.316l-9.558-80.674l0,0h-18.385l-1.53,28.932
						l-5.359,3.272c-0.352,3.329-1.05,6.634-2.053,9.918L314.417,282.078z"/>
				</g>
				<g>
					<path style="fill:#FFBE9D;" d="M325.532,233.788c0,0-7.344-7.254-7.344-8.866c0-1.612-2.866-2.508-2.866-2.508l-4.657-2.329
						c0,0-3.045-2.866-2.329-4.478c0.716-1.612,1.97-2.15,1.97-2.15s0.237-3.941,3.164-5.016c0,0-2.747-3.045,0-5.195
						c2.747-2.15,3.409-1.254,3.409-1.254s-0.304-2.329,1.309-2.508c1.612-0.179,13.129-3.045,13.129-3.045s3.172,1.612,4.605,3.045
						c1.433,1.433,2.15,2.329,2.15,2.329s2.149-2.687,2.866-5.374c0.716-2.687,1.791-10.748,9.852-10.389v1.97
						c0,0-2.15,2.866-3.224,7.882c-1.075,5.016-3.045,16.107-3.045,16.107l-0.603,21.778H325.532z"/>
				</g>
				<g>
					<g>
						<path style="fill:#EB996E;" d="M318.451,314.261c-0.018,0.003-0.072-0.276-0.159-0.811c-0.077-0.536-0.235-1.322-0.313-2.349
							c-0.224-2.046-0.367-5.036-0.125-8.714c0.23-3.677,0.822-8.03,1.723-12.807c0.872-4.783,2.056-9.996,2.937-15.518
							c1.713-11.07,1.936-21.244,2.217-28.578c0.129-3.633,0.234-6.59,0.309-8.696c0.049-0.989,0.089-1.776,0.118-2.364
							c0.033-0.54,0.059-0.823,0.077-0.823c0.018,0.001,0.027,0.285,0.028,0.826c-0.005,0.588-0.012,1.376-0.021,2.366
							c-0.035,2.107-0.084,5.066-0.144,8.701c-0.188,7.337-0.352,17.531-2.071,28.648c-0.885,5.551-2.084,10.757-2.98,15.526
							c-0.926,4.763-1.552,9.089-1.828,12.743c-0.288,3.655-0.202,6.629-0.041,8.671c0.047,1.025,0.172,1.813,0.215,2.352
							C318.449,313.974,318.469,314.258,318.451,314.261z"/>
					</g>
				</g>
			</g>
			<g>
				<g>
					<path style="fill:#EB996E;" d="M331.28,200.817c-0.009,0.071-0.8,0.049-2.076,0.218c-1.282,0.162-3.062,0.354-5.028,0.532
						c-3.934,0.358-7.133,0.531-7.146,0.388c-0.013-0.143,3.165-0.549,7.099-0.907c1.967-0.178,3.748-0.313,5.044-0.381
						C330.478,200.591,331.292,200.745,331.28,200.817z"/>
				</g>
			</g>
			<g>
				<g>
					<path style="fill:#EB996E;" d="M327.897,209.42c-0.013,0.077-0.802-0.004-2.076-0.074c-1.274-0.076-3.036-0.109-4.993-0.153
						c-1.957-0.044-3.739-0.168-5.014-0.375c-1.277-0.201-2.041-0.445-2.027-0.508c0.016-0.078,0.801,0.036,2.07,0.142
						c1.27,0.112,3.029,0.176,4.984,0.22c1.954,0.044,3.734,0.135,5.013,0.307C327.135,209.145,327.909,209.356,327.897,209.42z"/>
				</g>
			</g>
			<g>
				<g>
					<path style="fill:#EB996E;" d="M325.249,216.367c-0.013,0.071-0.821-0.03-2.118-0.25c-1.297-0.22-3.082-0.559-5.047-0.965
						c-1.966-0.406-3.74-0.803-5.017-1.115c-1.278-0.312-2.059-0.54-2.043-0.61c0.016-0.07,0.826,0.031,2.123,0.251
						c1.297,0.22,3.08,0.559,5.043,0.964c1.962,0.406,3.733,0.801,5.011,1.113C324.478,216.068,325.263,216.297,325.249,216.367z"/>
				</g>
			</g>
		</g>
	</g>
</g>
</svg>
