<?xml version="1.0" encoding="utf-8"?>
<!-- Generator: Adobe Illustrator 27.5.0, SVG Export Plug-In . SVG Version: 6.00 Build 0)  -->
<svg version="1.1" xmlns="http://www.w3.org/2000/svg" xmlns:xlink="http://www.w3.org/1999/xlink" x="0px" y="0px"
	 viewBox="0 0 500 500" style="enable-background:new 0 0 500 500;" xml:space="preserve">
<g id="Background_Complete">
	<g>
		<g>
			<g>
				<g>
					<g>
						<path style="fill:#F5F5F5;" d="M368.088,424.582c-1.377-1.181-4.45-4.923-2.08-9.276c0.869-1.596,2.713-2.385,4.383-3.088
							c1.67-0.703,3.425-1.314,4.806-2.49c2.606-2.217,3.325-5.9,5.054-8.857c1.986-3.395,5.692-5.939,9.608-5.76
							c4.484,0.204,8.224,3.866,9.919,8.042c1.695,4.176,1.755,8.813,1.79,13.322c0.02,2.493-0.091,5.305-1.922,6.988
							c-1.688,1.553-4.229,1.572-6.517,1.502c-8.168-0.251-16.337-0.502-24.506-0.753"/>
					</g>
				</g>
			</g>
		</g>
		<g>
			<g>
				<g>
					<g>
						<g>
							<path style="fill:#E0E0E0;" d="M414.958,357.195h-64.447l11.609,69.222c0.508,3.023,2.695,5.354,5.502,6.163
								c0.074,0.023,0.151,0.04,0.226,0.062c0.192,0.049,0.377,0.114,0.574,0.148c0.425,0.088,0.864,0.133,1.311,0.151
								c0.003,0.022,0.007,0.045,0.01,0.066l0.314-0.05c0.001,0,0.001,0,0.002,0h28.723c0.54,0,1.068-0.056,1.578-0.157
								c3.392-0.525,6.107-3.247,6.52-6.766l5.596-47.695l0.252-1.896h-0.03l2.216-18.889L414.958,357.195z M402.8,401.35h-6.614
								l0.667-20.09h7.663L402.8,401.35z M405.158,381.26h6.332l-2.357,20.09h-5.691L405.158,381.26z M386.264,423.621
								l-0.402-17.453h9.524l-0.58,17.453H386.264z M375.967,406.168h9.254l0.402,17.453h-8.3L375.967,406.168z M376.682,423.621
								h-7.759c-0.737-4.712-1.697-10.836-2.735-17.453h9.138L376.682,423.621z M375.593,401.35l-1.561-20.09h10.616l0.463,20.09
								H375.593z M385.751,401.35l-0.463-20.09h10.925l-0.667,20.09H385.751z M385.177,376.443l-0.429-18.605h12.243l-0.618,18.605
								H385.177z M384.537,376.443h-10.88l-1.446-18.605h11.897L384.537,376.443z M373.016,376.443h-11.511
								c-0.407-2.569-0.794-5.002-1.143-7.19c-1.201-7.522-1.652-10.35-1.903-11.415h13.111L373.016,376.443z M373.39,381.26
								l1.561,20.09h-9.52c-0.32-2.038-0.645-4.1-0.969-6.164c-0.746-4.742-1.493-9.483-2.195-13.926H373.39z M364.784,401.35
								h-6.219l-3.37-20.09h6.423C362.601,387.469,363.689,394.379,364.784,401.35z M365.541,406.168
								c0.948,6.039,1.881,11.994,2.735,17.453H362.3l-2.927-17.453H365.541z M395.447,423.621l0.58-17.453h6.362l-1.491,17.453
								H395.447z M397.014,376.443l0.618-18.605h8.886l-1.59,18.605H397.014z M357.849,357.837
								c0.255,1.345,1.432,8.666,3.007,18.605h-6.469l-3.121-18.605H357.849z M406.52,423.621h-4.981l1.491-17.453h5.538
								L406.52,423.621z M412.055,376.443h-6.485l1.589-18.605h7.079L412.055,376.443z"/>
						</g>
					</g>
				</g>
			</g>
		</g>
	</g>
	<g>
		<g>
			<g>
				<g>
					<g>
						<rect x="99.682" y="184.083" style="fill:#EBEBEB;" width="33.653" height="33.652"/>
					</g>
					<g>
						<rect x="99.682" y="222.676" style="fill:#EBEBEB;" width="33.653" height="33.652"/>
					</g>
				</g>
				<g>
					<g>
						<rect x="138.609" y="184.083" style="fill:#EBEBEB;" width="33.653" height="33.652"/>
					</g>
					<g>
						<rect x="138.609" y="222.676" style="fill:#EBEBEB;" width="33.653" height="33.652"/>
					</g>
				</g>
			</g>
			<g>
				<g>
					<g>
						<rect x="176.499" y="184.083" style="fill:#EBEBEB;" width="33.653" height="33.652"/>
					</g>
					<g>
						<rect x="176.499" y="222.676" style="fill:#EBEBEB;" width="33.653" height="33.652"/>
					</g>
				</g>
				<g>
					<g>
						<rect x="215.426" y="184.083" style="fill:#EBEBEB;" width="33.653" height="33.652"/>
					</g>
					<g>
						<rect x="215.426" y="222.676" style="fill:#EBEBEB;" width="33.653" height="33.652"/>
					</g>
				</g>
			</g>
			<g>
				<g>
					<g>
						<rect x="253.316" y="184.083" style="fill:#EBEBEB;" width="33.653" height="33.652"/>
					</g>
					<g>
						<rect x="253.316" y="222.676" style="fill:#EBEBEB;" width="33.653" height="33.652"/>
					</g>
				</g>
				<g>
					<g>
						<rect x="292.243" y="184.083" style="fill:#EBEBEB;" width="33.653" height="33.652"/>
					</g>
					<g>
						<rect x="292.243" y="222.676" style="fill:#EBEBEB;" width="33.653" height="33.652"/>
					</g>
				</g>
			</g>
			<g>
				<g>
					<g>
						<rect x="330.133" y="184.083" style="fill:#EBEBEB;" width="33.652" height="33.652"/>
					</g>
					<g>
						<rect x="330.133" y="222.676" style="fill:#EBEBEB;" width="33.652" height="33.652"/>
					</g>
				</g>
				<g>
					<g>
						<rect x="369.06" y="184.083" style="fill:#EBEBEB;" width="33.653" height="33.652"/>
					</g>
					<g>
						<rect x="369.06" y="222.676" style="fill:#EBEBEB;" width="33.653" height="33.652"/>
					</g>
				</g>
			</g>
			<g>
				<g>
					<g>
						<rect x="406.95" y="184.083" style="fill:#EBEBEB;" width="33.652" height="33.652"/>
					</g>
					<g>
						<rect x="406.95" y="222.676" style="fill:#EBEBEB;" width="33.652" height="33.652"/>
					</g>
				</g>
				<g>
					<g>
						<rect x="445.877" y="184.083" style="fill:#EBEBEB;" width="33.653" height="33.652"/>
					</g>
					<g>
						<rect x="445.877" y="222.676" style="fill:#EBEBEB;" width="33.653" height="33.652"/>
					</g>
				</g>
			</g>
			<g>
				<g>
					<g>
						<rect x="99.682" y="259.528" style="fill:#EBEBEB;" width="33.653" height="33.652"/>
					</g>
					<g>
						<rect x="99.682" y="298.121" style="fill:#EBEBEB;" width="33.653" height="33.652"/>
					</g>
				</g>
				<g>
					<g>
						<rect x="138.609" y="259.528" style="fill:#EBEBEB;" width="33.653" height="33.652"/>
					</g>
					<g>
						<rect x="138.609" y="298.121" style="fill:#EBEBEB;" width="33.653" height="33.652"/>
					</g>
				</g>
			</g>
			<g>
				<g>
					<g>
						<rect x="176.499" y="259.528" style="fill:#EBEBEB;" width="33.653" height="33.652"/>
					</g>
					<g>
						<rect x="176.499" y="298.121" style="fill:#EBEBEB;" width="33.653" height="33.652"/>
					</g>
				</g>
				<g>
					<g>
						<rect x="215.426" y="259.528" style="fill:#EBEBEB;" width="33.653" height="33.652"/>
					</g>
					<g>
						<rect x="215.426" y="298.121" style="fill:#EBEBEB;" width="33.653" height="33.652"/>
					</g>
				</g>
			</g>
			<g>
				<g>
					<g>
						<rect x="253.316" y="259.528" style="fill:#EBEBEB;" width="33.653" height="33.652"/>
					</g>
					<g>
						<rect x="253.316" y="298.121" style="fill:#EBEBEB;" width="33.653" height="33.652"/>
					</g>
				</g>
				<g>
					<g>
						<rect x="292.243" y="259.528" style="fill:#EBEBEB;" width="33.653" height="33.652"/>
					</g>
					<g>
						<rect x="292.243" y="298.121" style="fill:#EBEBEB;" width="33.653" height="33.652"/>
					</g>
				</g>
			</g>
			<g>
				<g>
					<g>
						<rect x="330.133" y="259.528" style="fill:#EBEBEB;" width="33.652" height="33.652"/>
					</g>
					<g>
						<rect x="330.133" y="298.121" style="fill:#EBEBEB;" width="33.652" height="33.652"/>
					</g>
				</g>
				<g>
					<g>
						<rect x="369.06" y="259.528" style="fill:#EBEBEB;" width="33.653" height="33.652"/>
					</g>
					<g>
						<rect x="369.06" y="298.121" style="fill:#EBEBEB;" width="33.653" height="33.652"/>
					</g>
				</g>
			</g>
			<g>
				<g>
					<g>
						<rect x="406.95" y="259.528" style="fill:#EBEBEB;" width="33.652" height="33.652"/>
					</g>
					<g>
						<rect x="406.95" y="298.121" style="fill:#EBEBEB;" width="33.652" height="33.652"/>
					</g>
				</g>
				<g>
					<g>
						<rect x="445.877" y="259.528" style="fill:#EBEBEB;" width="33.653" height="33.652"/>
					</g>
					<g>
						<rect x="445.877" y="298.121" style="fill:#EBEBEB;" width="33.653" height="33.652"/>
					</g>
				</g>
			</g>
		</g>
		<g>
			<g>
				<g>
					<g>
						<rect x="22.47" y="184.083" style="fill:#EBEBEB;" width="33.652" height="33.652"/>
					</g>
					<g>
						<rect x="22.47" y="222.676" style="fill:#EBEBEB;" width="33.652" height="33.652"/>
					</g>
				</g>
				<g>
					<g>
						<rect x="61.398" y="184.083" style="fill:#EBEBEB;" width="33.652" height="33.652"/>
					</g>
					<g>
						<rect x="61.398" y="222.676" style="fill:#EBEBEB;" width="33.652" height="33.652"/>
					</g>
				</g>
			</g>
			<g>
				<g>
					<g>
						<rect x="22.47" y="259.528" style="fill:#EBEBEB;" width="33.652" height="33.652"/>
					</g>
					<g>
						<rect x="22.47" y="298.121" style="fill:#EBEBEB;" width="33.652" height="33.652"/>
					</g>
				</g>
				<g>
					<g>
						<rect x="61.398" y="259.528" style="fill:#EBEBEB;" width="33.652" height="33.652"/>
					</g>
					<g>
						<rect x="61.398" y="298.121" style="fill:#EBEBEB;" width="33.652" height="33.652"/>
					</g>
				</g>
			</g>
		</g>
	</g>
	<g>
		<g>
			<g>
				<g>
					<g>
						<g>
							<g>
								
									<rect x="51.824" y="20.891" transform="matrix(-1 -1.224647e-16 1.224647e-16 -1 202.1194 184.5132)" style="fill:#E0E0E0;" width="98.472" height="142.731"/>
							</g>
						</g>
					</g>
				</g>
			</g>
			<g>
				<g>
					<g>
						<g>
							<g>
								
									<rect x="56.757" y="20.891" transform="matrix(-1 -1.224647e-16 1.224647e-16 -1 211.9853 184.5132)" style="fill:#F5F5F5;" width="98.472" height="142.731"/>
							</g>
						</g>
					</g>
				</g>
			</g>
			<g>
				<g>
					<g>
						<g>
							<g>
								<g>
									<rect x="68.991" y="36.35" style="fill:#FFFFFF;" width="74.003" height="111.813"/>
								</g>
							</g>
						</g>
					</g>
				</g>
				<g>
					<g>
						<g>
							<g>
								<g>
									<g>
										<path style="fill:#E0E0E0;" d="M68.991,148.163c0,0,0.01-0.189,0.014-0.547c0.003-0.369,0.008-0.896,0.014-1.585
											c0.007-1.405,0.017-3.462,0.03-6.133c0.015-5.359,0.038-13.168,0.066-23.033c0.029-19.717,0.071-47.636,0.121-80.515
											l-0.246,0.246c22.609,0.007,47.662,0.014,73.994,0.022h0.009l-0.268-0.268c0.021,42.181,0.04,81.071,0.054,111.813
											l0.213-0.213c-22.537,0.047-41.01,0.085-53.865,0.112c-6.43,0.023-11.452,0.042-14.882,0.054
											c-1.705,0.011-3.011,0.018-3.906,0.024C69.457,148.148,68.991,148.163,68.991,148.163s0.436,0.015,1.306,0.023
											c0.886,0.006,2.179,0.014,3.866,0.024c3.419,0.012,8.424,0.031,14.834,0.054c12.886,0.027,31.405,0.065,53.997,0.112
											l0.214,0.001l0-0.214c0.015-30.742,0.034-69.633,0.054-111.813l0-0.268h-0.268h-0.009
											c-26.332,0.008-51.385,0.015-73.994,0.022h-0.246l0,0.246c0.049,32.945,0.091,60.92,0.121,80.676
											c0.028,9.841,0.051,17.631,0.066,22.977c0.013,2.649,0.023,4.69,0.03,6.084c0.006,0.677,0.011,1.195,0.015,1.558
											C68.981,147.993,68.991,148.163,68.991,148.163z"/>
									</g>
								</g>
							</g>
						</g>
					</g>
				</g>
			</g>
			<g>
				<g>
					<g>
						<g>
							<g>
								<g>
									<path style="fill:none;stroke:#FBFBFB;stroke-width:0.25;stroke-miterlimit:10;" d="M72.422,37.096"/>
								</g>
							</g>
						</g>
					</g>
				</g>
			</g>
			<g>
				<g>
					<g>
						<g>
							<g>
								<g>
									<path style="fill:#E0E0E0;" d="M56.48,20.891c-0.057,0.045,0.611,1.02,1.755,2.55c1.144,1.53,2.767,3.611,4.62,5.86
										c1.854,2.25,3.585,4.243,4.867,5.658c1.282,1.416,2.112,2.259,2.166,2.211c0.057-0.049-0.672-0.98-1.879-2.458
										c-1.32-1.602-2.944-3.572-4.741-5.752c-1.794-2.18-3.417-4.152-4.736-5.754C57.314,21.739,56.54,20.845,56.48,20.891z"/>
								</g>
							</g>
						</g>
					</g>
				</g>
			</g>
			<g>
				<g>
					<g>
						<g>
							<g>
								<g>
									<path style="fill:#FFFFFF;" d="M68.614,147.803c-3.675,5.844-8.015,11.271-12.907,16.142"/>
								</g>
							</g>
						</g>
					</g>
				</g>
				<g>
					<g>
						<g>
							<g>
								<g>
									<g>
										<path style="fill:#E0E0E0;" d="M55.707,163.945c0.049,0.049,0.927-0.713,2.25-2.047c1.323-1.333,3.077-3.252,4.869-5.491
											c1.791-2.242,3.277-4.375,4.286-5.959c1.01-1.584,1.561-2.609,1.502-2.645c-0.067-0.042-0.729,0.91-1.816,2.433
											c-1.085,1.524-2.611,3.608-4.391,5.836c-1.782,2.226-3.479,4.173-4.727,5.566
											C56.434,163.033,55.651,163.89,55.707,163.945z"/>
									</g>
								</g>
							</g>
						</g>
					</g>
				</g>
			</g>
			<g>
				<g>
					<g>
						<g>
							<g>
								<g>
									<path style="fill:#FFFFFF;" d="M155.243,163.509c-4.299-5.305-8.599-10.609-12.898-15.914"/>
								</g>
							</g>
						</g>
					</g>
				</g>
				<g>
					<g>
						<g>
							<g>
								<g>
									<g>
										<path style="fill:#E0E0E0;" d="M142.344,147.595c-0.115,0.093,2.68,3.731,6.241,8.125
											c3.562,4.395,6.543,7.882,6.658,7.788c0.115-0.093-2.679-3.73-6.241-8.126
											C145.44,150.989,142.459,147.502,142.344,147.595z"/>
									</g>
								</g>
							</g>
						</g>
					</g>
				</g>
			</g>
			<g>
				<g>
					<g>
						<g>
							<g>
								<g>
									<path style="fill:#E0E0E0;" d="M155.229,20.891c-0.116-0.092-2.919,3.259-6.26,7.484c-3.342,4.226-5.957,7.725-5.841,7.817
										c0.116,0.092,2.919-3.259,6.261-7.485C152.729,24.483,155.344,20.983,155.229,20.891z"/>
								</g>
							</g>
						</g>
					</g>
				</g>
			</g>
			<g>
				<g>
					<path style="fill:#EBEBEB;" d="M142.735,53.187c-5.134-5.535-14.821-8.038-21.773-5.094
						c-6.952,2.944-11.669,10.493-11.267,18.032c-7.05,1.167-12.478,7.522-14.116,14.478c-1.637,6.955-0.043,14.321,2.757,20.895
						c1.142,2.681,2.495,5.313,3.03,8.178c0.535,2.864,0.113,6.094-1.907,8.194c-2.404,2.5-6.253,2.735-9.464,4.047
						c-4.701,1.921-8.067,6.278-9.938,10.999c-1.871,4.721-2.439,9.841-2.99,14.889h65.277L142.735,53.187z"/>
				</g>
			</g>
		</g>
		<g>
			<g>
				<g>
					<path style="fill:#FAFAFA;" d="M138.975,133.831c0.07-0.063-14.278-16.124-32.041-35.87
						c-17.77-19.753-32.227-35.709-32.297-35.647c-0.07,0.063,14.275,16.121,32.045,35.873
						C124.445,117.934,138.906,133.894,138.975,133.831z"/>
				</g>
			</g>
		</g>
		<g>
			<g>
				<g>
					<path style="fill:#FAFAFA;" d="M81.472,58.493c-0.069,0.063,8.968,10.129,20.182,22.48
						c11.218,12.355,20.366,22.317,20.435,22.254c0.069-0.063-8.966-10.127-20.184-22.482
						C90.691,68.394,81.541,58.431,81.472,58.493z"/>
				</g>
			</g>
		</g>
		<g>
			<g>
				<g>
					<path style="fill:#FAFAFA;" d="M85.61,88.903c-0.008,0.008,0.11,0.139,0.343,0.381c0.258,0.262,0.601,0.609,1.03,1.045
						c0.924,0.928,2.217,2.228,3.805,3.823c3.206,3.234,7.593,7.745,12.318,12.838c4.725,5.097,8.892,9.812,11.875,13.253
						c1.471,1.704,2.669,3.091,3.525,4.082c0.402,0.461,0.723,0.829,0.964,1.106c0.223,0.25,0.345,0.378,0.354,0.371
						c0.009-0.007-0.095-0.15-0.301-0.415c-0.229-0.287-0.534-0.668-0.915-1.146c-0.799-0.993-1.975-2.413-3.444-4.154
						c-2.938-3.483-7.081-8.226-11.809-13.327c-4.729-5.098-9.146-9.585-12.397-12.777c-1.625-1.597-2.953-2.876-3.882-3.748
						c-0.448-0.417-0.805-0.749-1.074-0.999C85.752,89.009,85.618,88.894,85.61,88.903z"/>
				</g>
			</g>
		</g>
	</g>
</g>
<g id="Background_Simple" style="display:none;">
	<g style="display:inline;">
		<path style="fill:#F5F5F5;" d="M415.411,122.525l-1.991-3.28c-16.781-27.653-47.12-44.323-79.108-42.3
			c-4.112,0.26-8.206,0.817-12.246,1.681c-29.084,6.226-54.39,28.219-64.879,56.386c-6.169,16.566-7.892,35.639-19.599,48.788
			c-15.236,17.113-41.102,17.65-63.844,16.941s-48.625-0.104-63.787,17.076c-9.495,10.76-12.513,26.061-11.747,40.47
			c2.027,38.15,28.61,72.261,62.417,89.216c33.807,16.955,73.611,18.474,110.611,11.015
			c51.832-10.448,101.125-39.142,130.753-83.461C431.619,230.738,439.117,170.359,415.411,122.525z"/>
	</g>
</g>
<g id="Floor">
	<g>
		<g>
			<path style="fill:#263238;" d="M466.689,433.007c0,0.144-96.575,0.26-215.679,0.26c-119.145,0-215.699-0.117-215.699-0.26
				c0-0.144,96.554-0.26,215.699-0.26C370.114,432.746,466.689,432.863,466.689,433.007z"/>
		</g>
	</g>
</g>
<g id="Plant">
	<g>
		<g>
			<g>
				<g>
					<path style="fill:#455A64;" d="M85.698,395.411c0,0-19.626-22.588-27.032-45.176c-7.406-22.588-3.888-19.996-3.888-19.996
						s9.998,21.942,17.589,32.541c7.591,10.599,21.107,26.151,21.107,26.151L85.698,395.411z"/>
				</g>
			</g>
			<g>
				<g>
					<path style="fill:#455A64;" d="M89.609,333.758c-0.633-1.103-2.318-0.53-2.129,0.727c1.196,7.934,3.783,26.554,3.681,38.63
						c-0.132,15.688,0.005,21.752,0.005,21.752h8.169c0,0-1.45-32.43-3.296-42.318C94.745,345.617,91.998,337.92,89.609,333.758z"/>
				</g>
			</g>
			<g>
				<g>
					<path style="fill:#455A64;" d="M94.062,392.231c0,0,5.141-10.81,6.723-24.389c0.673-5.775-0.527-13.579-2.313-23.993
						c-0.865-5.044-1.06-8.883-1.033-11.545c0.021-2.011,2.676-2.668,3.659-0.914c0.986,1.759,3.839,7.769,4.564,11.536
						c1.977,10.283,4.219,15.424,2.505,25.18c-1.714,9.756-8.042,24.784-8.042,24.784L94.062,392.231z"/>
				</g>
			</g>
			<g>
				<g>
					<path style="fill:#455A64;" d="M101.42,392.89c0,0,21.548-46.308,23.042-53.178c1.494-6.87,6.571-22.701,7.169-21.805
						c0.598,0.896,1.493,9.26-2.39,18.818c-3.883,9.558-20.463,57.576-20.463,57.576h-7.358"/>
				</g>
			</g>
			<g>
				<g>
					<g>
						<path style="fill:#263238;" d="M91.703,390.818c-0.01,0.013-0.217-0.131-0.604-0.415c-0.382-0.29-0.963-0.697-1.669-1.275
							c-1.434-1.127-3.447-2.841-5.791-5.112c-4.704-4.517-10.558-11.482-15.633-20.065c-5.086-8.581-8.506-16.973-10.671-23.116
							c-1.084-3.076-1.875-5.593-2.387-7.342c-0.263-0.872-0.445-1.557-0.572-2.019c-0.124-0.463-0.182-0.709-0.167-0.713
							c0.015-0.004,0.103,0.232,0.256,0.687c0.163,0.495,0.381,1.159,0.654,1.993c0.565,1.731,1.402,4.23,2.522,7.285
							c2.239,6.103,5.696,14.446,10.761,22.991c5.054,8.547,10.837,15.508,15.465,20.068c2.306,2.292,4.28,4.038,5.676,5.205
							c0.687,0.597,1.249,1.026,1.612,1.34C91.523,390.637,91.712,390.805,91.703,390.818z"/>
					</g>
				</g>
			</g>
			<g>
				<g>
					<g>
						<path style="fill:#263238;" d="M94.06,368.603c-0.032,0.002-0.099-0.482-0.193-1.359c-0.103-0.959-0.236-2.208-0.397-3.712
							c-0.341-3.133-0.874-7.453-1.635-12.199c-0.765-4.747-1.614-9.017-2.271-12.099c-0.319-1.479-0.583-2.707-0.786-3.649
							c-0.185-0.862-0.273-1.343-0.242-1.351c0.031-0.008,0.177,0.458,0.416,1.308c0.242,0.849,0.561,2.086,0.93,3.62
							c0.74,3.069,1.642,7.34,2.409,12.098c0.763,4.757,1.245,9.095,1.504,12.241c0.13,1.573,0.215,2.848,0.252,3.73
							C94.085,368.112,94.092,368.6,94.06,368.603z"/>
					</g>
				</g>
			</g>
			<g>
				<g>
					<g>
						<path style="fill:#263238;" d="M99.108,331.027c0.015-0.006,0.102,0.197,0.254,0.588c0.164,0.436,0.378,1.007,0.646,1.72
							c0.285,0.746,0.613,1.666,0.925,2.757c0.321,1.087,0.736,2.313,1.048,3.708c0.17,0.695,0.348,1.422,0.534,2.178
							c0.181,0.758,0.309,1.56,0.474,2.384c0.352,1.644,0.569,3.427,0.831,5.298c0.421,3.754,0.651,7.911,0.515,12.272
							c-0.176,4.361-0.703,8.492-1.392,12.207c-0.395,1.848-0.74,3.611-1.208,5.226c-0.224,0.81-0.409,1.6-0.644,2.344
							c-0.239,0.741-0.469,1.453-0.688,2.134c-0.411,1.369-0.913,2.561-1.31,3.623c-0.389,1.066-0.782,1.96-1.119,2.684
							c-0.318,0.692-0.573,1.247-0.767,1.67c-0.18,0.379-0.281,0.575-0.296,0.568c-0.014-0.007,0.059-0.215,0.211-0.607
							c0.174-0.431,0.402-0.996,0.687-1.701c0.312-0.733,0.679-1.634,1.044-2.705c0.373-1.067,0.852-2.263,1.241-3.632
							c0.21-0.681,0.429-1.393,0.657-2.133c0.225-0.743,0.401-1.532,0.615-2.34c0.451-1.611,0.779-3.368,1.161-5.209
							c0.663-3.7,1.174-7.808,1.349-12.144c0.136-4.337-0.08-8.47-0.476-12.207c-0.249-1.863-0.451-3.639-0.785-5.278
							c-0.156-0.821-0.275-1.621-0.446-2.378c-0.174-0.755-0.342-1.481-0.502-2.175c-0.29-1.394-0.682-2.621-0.978-3.712
							c-0.287-1.094-0.589-2.02-0.848-2.773c-0.233-0.724-0.421-1.304-0.563-1.746C99.151,331.246,99.093,331.033,99.108,331.027z"
							/>
					</g>
				</g>
			</g>
			<g>
				<g>
					<g>
						<path style="fill:#263238;" d="M131.383,318.838c0.008,0.001,0.002,0.072-0.017,0.208c-0.026,0.163-0.057,0.36-0.095,0.602
							c-0.095,0.527-0.214,1.309-0.425,2.305c-0.416,1.992-1.109,4.859-2.187,8.337c-1.073,3.479-2.545,7.558-4.291,12.039
							c-1.738,4.483-3.759,9.367-5.672,14.567c-1.942,5.191-3.439,10.258-4.845,14.855c-1.393,4.601-2.715,8.731-3.993,12.141
							c-1.265,3.414-2.483,6.103-3.402,7.919c-0.441,0.917-0.838,1.602-1.094,2.072c-0.121,0.212-0.22,0.386-0.302,0.529
							c-0.07,0.118-0.109,0.177-0.116,0.173c-0.007-0.004,0.019-0.07,0.075-0.195c0.071-0.149,0.156-0.329,0.261-0.55
							c0.229-0.484,0.6-1.18,1.015-2.107c0.868-1.835,2.036-4.534,3.258-7.953c1.235-3.414,2.522-7.544,3.893-12.151
							c1.383-4.601,2.871-9.686,4.819-14.891c1.918-5.212,3.951-10.092,5.709-14.563c1.766-4.468,3.266-8.525,4.375-11.982
							c1.115-3.456,1.854-6.301,2.323-8.277c0.237-0.987,0.384-1.763,0.509-2.284c0.056-0.238,0.102-0.432,0.14-0.593
							C131.354,318.904,131.375,318.836,131.383,318.838z"/>
					</g>
				</g>
			</g>
			<g>
				<g>
					<g>
						<path style="fill:#455A64;" d="M64.937,308.609c-1.358-1.349-3.616,0.062-3.054,1.892c0.57,1.855,1.433,4.255,2.708,6.963
							c2.962,6.295,11.664,28.883,15.738,41.288c4.073,12.405,9.813,35.549,9.813,35.549l8.698-1.411
							c0,0-7.958-38.026-15.734-51.727C76.857,330.154,70.609,314.245,64.937,308.609z"/>
					</g>
				</g>
				<g>
					<g>
						<g>
							<path style="fill:#263238;" d="M82.709,366.51c0.03-0.01,0.188,0.361,0.448,1.042c0.257,0.682,0.608,1.678,1.003,2.921
								c0.801,2.481,1.781,5.947,2.769,9.797c0.985,3.852,1.806,7.356,2.378,9.896c0.261,1.202,0.48,2.211,0.654,3.014
								c0.145,0.714,0.211,1.112,0.18,1.12c-0.031,0.008-0.155-0.376-0.354-1.077c-0.212-0.794-0.479-1.792-0.797-2.98
								c-0.665-2.616-1.54-6.055-2.507-9.859c-0.987-3.846-1.915-7.318-2.635-9.817c-0.343-1.179-0.632-2.17-0.861-2.958
								C82.78,366.912,82.679,366.521,82.709,366.51z"/>
						</g>
					</g>
				</g>
				<g>
					<g>
						<g>
							<path style="fill:#263238;" d="M94.511,393.595c-0.008,0.001-0.024-0.078-0.049-0.232c-0.026-0.181-0.058-0.406-0.099-0.685
								c-0.091-0.601-0.173-1.494-0.356-2.634c-0.319-2.285-0.889-5.578-1.824-9.595c-0.929-4.018-2.283-8.745-4.072-13.896
								c-1.784-5.153-4.022-10.721-6.558-16.484c-5.118-11.512-10.229-21.722-13.588-29.272c-1.698-3.766-3.013-6.841-3.878-8.983
								c-0.442-1.067-0.757-1.907-0.978-2.474c-0.098-0.264-0.178-0.477-0.242-0.648c-0.052-0.147-0.075-0.224-0.068-0.227
								c0.007-0.003,0.045,0.068,0.111,0.209c0.075,0.167,0.168,0.374,0.284,0.631c0.256,0.59,0.609,1.406,1.057,2.44
								c0.916,2.119,2.274,5.171,4.009,8.917c3.432,7.51,8.588,17.693,13.714,29.222c2.54,5.771,4.771,11.357,6.538,16.532
								c1.771,5.173,3.097,9.923,3.988,13.962c0.896,4.038,1.419,7.347,1.684,9.644c0.157,1.145,0.21,2.043,0.271,2.648
								c0.022,0.281,0.039,0.508,0.053,0.69C94.518,393.514,94.519,393.594,94.511,393.595z"/>
						</g>
					</g>
				</g>
				<g>
					<g>
						<g>
							<path style="fill:#263238;" d="M98.84,392.89c-0.032,0.004-0.134-0.517-0.293-1.462c-0.173-1.022-0.401-2.369-0.677-3.999
								c-0.6-3.37-1.515-8.012-2.83-13.064c-1.303-5.057-2.77-9.556-3.899-12.787c-0.554-1.557-1.013-2.845-1.36-3.82
								c-0.326-0.901-0.492-1.405-0.463-1.417c0.03-0.012,0.252,0.47,0.629,1.351c0.375,0.883,0.899,2.168,1.5,3.775
								c1.21,3.209,2.732,7.708,4.039,12.782c1.32,5.069,2.188,9.736,2.706,13.126c0.248,1.697,0.437,3.072,0.533,4.027
								C98.828,392.357,98.871,392.886,98.84,392.89z"/>
						</g>
					</g>
				</g>
			</g>
		</g>
		<g>
			<g>
				<g>
					<rect x="82.741" y="391.64" style="fill:#FF725E;" width="33.952" height="41.367"/>
				</g>
			</g>
			<g style="opacity:0.3;">
				<g>
					<rect x="82.741" y="391.64" width="33.952" height="41.367"/>
				</g>
			</g>
			<g>
				<g>
					<rect x="75.74" y="391.64" style="fill:#FF725E;" width="30.122" height="41.367"/>
				</g>
			</g>
		</g>
	</g>
</g>
<g id="Towel_Rack">
	<g>
		<g>
			<g>
				<path style="fill:#FF725E;" d="M361.604,152.341c0,1.036,0,121.949,0,121.949h75.397V152.341H361.604z"/>
			</g>
		</g>
		<g style="opacity:0.3;">
			<g>
				<path d="M361.604,152.341c0,1.036,0,121.949,0,121.949h75.397V152.341H361.604z"/>
			</g>
		</g>
		<g>
			<g>
				<g>
					<path style="fill:#455A64;" d="M341.88,246.771h-2.067c-0.742,0-1.343-0.602-1.343-1.343V38.489
						c0-0.742,0.602-1.344,1.344-1.344h2.066c0.742,0,1.343,0.602,1.343,1.344v206.939
						C343.223,246.17,342.622,246.771,341.88,246.771z"/>
				</g>
			</g>
			<g>
				<g>
					<path style="fill:#455A64;" d="M450.958,246.771h-2.066c-0.742,0-1.344-0.602-1.344-1.344V38.489
						c0-0.742,0.602-1.344,1.344-1.344h2.066c0.742,0,1.344,0.602,1.344,1.344v206.939
						C452.302,246.17,451.7,246.771,450.958,246.771z"/>
				</g>
			</g>
			<g>
				<g>
					<rect x="340.847" y="57.005" style="fill:#455A64;" width="109.078" height="3.752"/>
				</g>
			</g>
			<g>
				<g>
					<rect x="340.847" y="89.753" style="fill:#455A64;" width="109.078" height="3.752"/>
				</g>
			</g>
			<g>
				<g>
					<rect x="340.847" y="122.502" style="fill:#455A64;" width="109.078" height="3.752"/>
				</g>
			</g>
			<g>
				<g>
					<rect x="340.847" y="155.25" style="fill:#455A64;" width="109.078" height="3.752"/>
				</g>
			</g>
			<g>
				<g>
					<rect x="340.847" y="187.999" style="fill:#455A64;" width="109.078" height="3.752"/>
				</g>
			</g>
			<g>
				<g>
					<rect x="340.847" y="220.747" style="fill:#455A64;" width="109.078" height="3.752"/>
				</g>
			</g>
		</g>
		<g>
			<g>
				<path style="fill:#FF725E;" d="M355.035,152.341c0,0.857,0,100.815,0,100.815h75.397V152.341H355.035z"/>
			</g>
		</g>
		<g>
			<g>
				<g>
					<path style="fill:#263238;" d="M365.841,251.681c-0.161-0.08,0.096-0.921,0.574-1.877c0.478-0.956,0.995-1.667,1.156-1.586
						c0.161,0.08-0.096,0.921-0.574,1.877C366.519,251.051,366.001,251.761,365.841,251.681z"/>
				</g>
			</g>
		</g>
		<g>
			<g>
				<g>
					<path style="fill:#263238;" d="M370.82,250.884c-0.177-0.031-0.209-0.702-0.072-1.5c0.137-0.799,0.392-1.421,0.569-1.39
						c0.177,0.031,0.209,0.702,0.072,1.5C371.252,250.292,370.997,250.914,370.82,250.884z"/>
				</g>
			</g>
		</g>
		<g>
			<g>
				<g>
					<path style="fill:#263238;" d="M374.732,251.142c-0.175,0.058-0.599-0.782-1.167-1.769c-0.562-0.991-1.07-1.782-0.931-1.904
						c0.129-0.118,0.896,0.525,1.496,1.581C374.734,250.104,374.899,251.091,374.732,251.142z"/>
				</g>
			</g>
		</g>
		<g>
			<g>
				<g>
					<path style="fill:#263238;" d="M397.748,197.904c-0.169,0.046-0.602-1.038-0.727-2.455c-0.131-1.417,0.1-2.561,0.275-2.546
						c0.184,0.013,0.247,1.13,0.373,2.487C397.788,196.748,397.926,197.858,397.748,197.904z"/>
				</g>
			</g>
		</g>
		<g>
			<g>
				<g>
					<path style="fill:#263238;" d="M400.712,196.312c-0.178,0.024-0.45-0.895-0.607-2.052c-0.157-1.158-0.14-2.115,0.038-2.139
						c0.178-0.024,0.45,0.894,0.607,2.052C400.907,195.33,400.89,196.288,400.712,196.312z"/>
				</g>
			</g>
		</g>
		<g>
			<g>
				<g>
					<path style="fill:#263238;" d="M404.893,195.267c-0.167,0.067-0.536-0.467-0.826-1.192c-0.289-0.725-0.388-1.366-0.221-1.433
						c0.167-0.066,0.536,0.467,0.825,1.192C404.961,194.559,405.06,195.201,404.893,195.267z"/>
				</g>
			</g>
		</g>
		<g>
			<g>
				<g>
					<path style="fill:#263238;" d="M407.56,227.015c-0.175-0.041-0.149-0.782,0.057-1.654c0.206-0.872,0.515-1.545,0.69-1.504
						c0.175,0.041,0.149,0.782-0.057,1.654C408.044,226.383,407.735,227.057,407.56,227.015z"/>
				</g>
			</g>
		</g>
		<g>
			<g>
				<g>
					<path style="fill:#263238;" d="M412.781,226.739c-0.15,0.09-0.664-0.517-0.901-1.443c-0.241-0.925-0.086-1.705,0.089-1.699
						c0.184,0.001,0.322,0.706,0.54,1.536C412.72,225.966,412.941,226.649,412.781,226.739z"/>
				</g>
			</g>
		</g>
		<g>
			<g>
				<g>
					<path style="fill:#263238;" d="M416.703,227.008c-0.164,0.083-0.58-0.421-1.131-0.969c-0.544-0.555-1.046-0.974-0.961-1.138
						c0.074-0.158,0.795,0.044,1.423,0.679C416.664,226.213,416.862,226.935,416.703,227.008z"/>
				</g>
			</g>
		</g>
		<g>
			<g>
				<g>
					<path style="fill:#263238;" d="M368.937,169.543c-0.162-0.091,0.186-0.988,0.48-2.112c0.304-1.122,0.448-2.073,0.633-2.072
						c0.174-0.005,0.322,1.024-0.004,2.239C369.725,168.814,369.085,169.633,368.937,169.543z"/>
				</g>
			</g>
		</g>
		<g>
			<g>
				<g>
					<path style="fill:#263238;" d="M372.106,169.03c-0.174-0.025-0.182-0.898,0.199-1.881c0.378-0.986,0.97-1.626,1.116-1.528
						c0.154,0.1-0.159,0.848-0.508,1.762C372.557,168.295,372.287,169.06,372.106,169.03z"/>
				</g>
			</g>
		</g>
		<g>
			<g>
				<g>
					<path style="fill:#263238;" d="M375.256,169.555c-0.168,0.053-0.506-0.563-0.581-1.402c-0.078-0.839,0.144-1.506,0.319-1.484
						c0.182,0.02,0.257,0.659,0.329,1.425C375.39,168.86,375.431,169.503,375.256,169.555z"/>
				</g>
			</g>
		</g>
		<g>
			<g>
				<g>
					<path style="fill:#263238;" d="M409.36,254.29c-0.18,0-0.325-0.646-0.325-1.443c0-0.797,0.146-1.443,0.325-1.443
						c0.18,0,0.325,0.646,0.325,1.443C409.685,253.644,409.54,254.29,409.36,254.29z"/>
				</g>
			</g>
		</g>
		<g>
			<g>
				<g>
					<path style="fill:#263238;" d="M412.089,255.875c-0.179,0.012-0.381-0.804-0.452-1.823c-0.07-1.02,0.018-1.856,0.198-1.868
						c0.179-0.012,0.381,0.804,0.452,1.824C412.357,255.026,412.269,255.862,412.089,255.875z"/>
				</g>
			</g>
		</g>
		<g>
			<g>
				<g>
					<path style="fill:#263238;" d="M417.311,256.885c-0.169,0.06-0.617-0.766-1-1.845c-0.383-1.08-0.556-2.003-0.387-2.063
						c0.169-0.06,0.617,0.766,1,1.846C417.307,255.901,417.48,256.825,417.311,256.885z"/>
				</g>
			</g>
		</g>
		<g>
			<g>
				<g>
					<path style="fill:#263238;" d="M402.345,150.906c0.17-0.058,0.59,0.721,0.939,1.74c0.349,1.019,0.493,1.892,0.323,1.95
						c-0.17,0.058-0.59-0.72-0.939-1.74C402.32,151.837,402.175,150.964,402.345,150.906z"/>
				</g>
			</g>
		</g>
		<g>
			<g>
				<g>
					<path style="fill:#263238;" d="M405.596,152.226c0.18,0.032,0.15,1.029,0.113,2.242c-0.042,1.213-0.077,2.21-0.259,2.23
						c-0.175,0.021-0.434-0.985-0.391-2.251C405.098,153.181,405.423,152.194,405.596,152.226z"/>
				</g>
			</g>
		</g>
		<g>
			<g>
				<g>
					<path style="fill:#263238;" d="M410.241,150.697c0.171,0.056-0.07,1.266-0.538,2.704c-0.468,1.438-0.986,2.559-1.156,2.503
						c-0.171-0.056,0.07-1.266,0.538-2.705C409.552,151.762,410.07,150.642,410.241,150.697z"/>
				</g>
			</g>
		</g>
	</g>
</g>
<g id="Character_1_">
	<g>
		<g>
			<g>
				<polygon style="fill:#FF725E;" points="251.385,445.055 288.099,476.846 287.555,482.884 192.221,486.924 171.952,451.181 
					171.776,445.256 				"/>
			</g>
			<g style="opacity:0.3;">
				<polygon points="193.635,481.42 288.099,476.846 287.555,482.884 192.221,486.924 171.952,451.181 171.776,445.256 				"/>
			</g>
			<g>
				<g>
					<g>
						<path style="fill:#FFFFFF;" d="M251.385,471.845l-6.837-6.125l-23.458,0.858l-2.407,7.139
							C231.503,475.853,241.405,475.324,251.385,471.845z"/>
					</g>
					<g>
						<g>
							<path style="fill:#263238;" d="M251.385,471.845c0.016,0.003-0.181,0.077-0.584,0.232c-0.395,0.145-1.042,0.414-1.824,0.642
								c-1.57,0.518-3.893,1.153-6.835,1.677c-2.942,0.512-6.514,0.851-10.506,0.807c-3.993-0.039-8.394-0.473-12.996-1.23
								l-0.3-0.049l0.097-0.289c0.359-1.066,0.74-2.198,1.126-3.343c0.433-1.283,0.861-2.55,1.281-3.796l0.057-0.17l0.178-0.006
								c9.341-0.307,17.616-0.579,23.461-0.771l0.071-0.002l0.05,0.046c2.104,1.944,3.795,3.507,5.006,4.626
								c0.538,0.504,0.969,0.907,1.3,1.217C251.258,471.709,251.402,471.848,251.385,471.845c-0.016-0.003-0.191-0.149-0.513-0.423
								c-0.354-0.303-0.814-0.699-1.39-1.193c-1.221-1.06-2.927-2.54-5.049-4.381l0.12,0.044
								c-5.844,0.236-14.116,0.569-23.455,0.946l0.236-0.176c-0.42,1.246-0.846,2.513-1.279,3.797
								c-0.387,1.145-0.769,2.277-1.128,3.342l-0.203-0.338c4.581,0.76,8.952,1.21,12.918,1.277
								c3.965,0.072,7.512-0.226,10.442-0.689c2.93-0.474,5.255-1.053,6.837-1.514c0.81-0.213,1.361-0.4,1.794-0.51
								C251.136,471.91,251.369,471.841,251.385,471.845z"/>
						</g>
					</g>
				</g>
				<g>
					<g>
						<path style="fill:#263238;" d="M235.203,473.899c-0.143,0.018-0.453-1.489-0.693-3.367c-0.24-1.878-0.319-3.415-0.177-3.433
							c0.143-0.018,0.453,1.489,0.693,3.367C235.266,472.343,235.345,473.88,235.203,473.899z"/>
					</g>
				</g>
				<g>
					<g>
						<path style="fill:#263238;" d="M239.073,470.673c-0.125,0.071-0.673-0.665-1.222-1.642c-0.55-0.978-0.894-1.827-0.769-1.897
							c0.125-0.07,0.673,0.665,1.222,1.642C238.855,469.753,239.199,470.603,239.073,470.673z"/>
					</g>
				</g>
				<g>
					<g>
						<path style="fill:#263238;" d="M242.476,469.079c-0.094,0.109-0.533-0.116-0.981-0.503c-0.448-0.387-0.734-0.788-0.64-0.897
							c0.094-0.109,0.533,0.116,0.981,0.503C242.283,468.569,242.57,468.971,242.476,469.079z"/>
					</g>
				</g>
				<g>
					<g>
						<path style="fill:#263238;" d="M230.04,471.356c-0.141-0.004-0.228-0.867-0.058-1.912c0.167-1.045,0.521-1.837,0.657-1.797
							c0.141,0.041,0.018,0.87-0.143,1.88C230.331,470.535,230.186,471.361,230.04,471.356z"/>
					</g>
				</g>
				<g>
					<g>
						<path style="fill:#263238;" d="M225.759,470.186c-0.126-0.069,0.072-0.67,0.442-1.341c0.37-0.671,0.772-1.159,0.898-1.09
							c0.126,0.069-0.072,0.67-0.442,1.341C226.287,469.768,225.885,470.256,225.759,470.186z"/>
					</g>
				</g>
			</g>
		</g>
		<g>
			<g>
				<path style="fill:#FFBF9D;" d="M220.026,433.007l-2.606,13.774l-1.548,5.736c-0.167,2.598,1.305,4.974,3.907,5.071l31.029,0.054
					c1.952-0.005,2.878-2.435,1.401-3.711c-0.725-0.626-1.779-1.22-3.308-1.677c-5.753-1.718-15.344-4.252-15.344-4.252
					l2.527-14.052L220.026,433.007z"/>
			</g>
			<g>
				<g>
					<g>
						<g>
							<g>
								<g>
									<g>
										<path style="fill:#263238;" d="M258.788,209.973c0,0,9.8,11.271,10.758,47.743c0.578,22.006-13.428,86.213-15.898,100.636
											c-1.682,9.818-18.887,88.736-18.887,88.736h-17.791c0,0,11.382-99.518,10.967-109.885
											c-0.415-10.367-4.147-65.521-4.147-65.521l-5.391-41.884L258.788,209.973z"/>
									</g>
								</g>
							</g>
							<g>
								<path style="fill:#FFBF9D;" d="M201.042,439.886l-0.489,7.811l-1.084,4.143c-0.72,2.751-0.301,4.336,1.236,7.029
									c0,0,7.385,13.177,9.395,14.638c2.65,1.928,12.787,4.061,12.576,0.794c-0.211-3.267-8.773-25.924-8.773-25.924l2.223-8.526
									L201.042,439.886z"/>
							</g>
							<g>
								<g>
									<g>
										<path style="fill:#263238;" d="M177.759,219.845c1.244,0.415,44.496,7.879,44.496,7.879s14.736,113.551,15.98,128.48
											c1.244,14.929-22.376,90.884-22.376,90.884l-16.164,0.008c0,0-2.031-50.178,1.287-65.521
											c3.318-15.344,3.318-19.076,1.244-28.614c-2.073-9.538-23.373-55.179-28.764-80.475
											C168.071,247.189,177.759,219.845,177.759,219.845z"/>
									</g>
								</g>
							</g>
							<g>
								<g>
									<g>
										<g>
											<path style="fill:#455A64;" d="M225.979,257.716c0,0,0.003,0.17,0.035,0.498c0.038,0.352,0.091,0.834,0.158,1.454
												c0.154,1.303,0.377,3.18,0.662,5.585c0.602,4.873,1.468,11.879,2.537,20.526c2.183,17.344,5.194,41.264,8.52,67.683
												c0.191,3.286-0.209,6.574-0.633,9.774c-0.445,3.206-0.998,6.352-1.609,9.43c-1.211,6.159-2.58,12.061-3.957,17.665
												c-2.761,11.207-5.534,21.228-7.911,29.628c-2.382,8.4-4.392,15.173-5.784,19.853c-0.691,2.32-1.231,4.131-1.606,5.388
												c-0.175,0.598-0.311,1.064-0.41,1.404c-0.09,0.317-0.122,0.484-0.122,0.484s0.069-0.155,0.176-0.467
												c0.112-0.335,0.266-0.796,0.463-1.387c0.398-1.25,0.971-3.051,1.706-5.358c1.455-4.662,3.523-11.42,5.954-19.808
												c2.427-8.389,5.239-18.404,8.03-29.614c1.392-5.605,2.773-11.512,3.994-17.682c0.616-3.084,1.173-6.238,1.622-9.46
												c0.427-3.221,0.834-6.514,0.64-9.888c-3.272-26.472-6.443-50.368-8.684-67.694c-1.142-8.638-2.068-15.637-2.712-20.504
												c-0.33-2.399-0.587-4.271-0.765-5.571c-0.091-0.617-0.161-1.097-0.213-1.447
												C226.019,257.881,225.979,257.716,225.979,257.716z"/>
										</g>
									</g>
								</g>
							</g>
						</g>
					</g>
				</g>
				<g>
					<g>
						<path style="fill:#455A64;" d="M222.421,251.801c-0.059,0.067-0.879-0.633-2.331-1.567c-1.447-0.937-3.571-2.05-6.085-2.821
							c-2.518-0.762-4.902-1.021-6.625-1.05c-1.726-0.033-2.797,0.091-2.809,0.002c-0.005-0.036,0.258-0.098,0.741-0.181
							c0.482-0.09,1.189-0.159,2.066-0.189c1.751-0.066,4.203,0.14,6.779,0.92c2.573,0.788,4.722,1.984,6.14,3.014
							c0.711,0.514,1.26,0.965,1.61,1.309C222.262,251.576,222.445,251.774,222.421,251.801z"/>
					</g>
				</g>
				<g>
					<g>
						<path style="fill:#455A64;" d="M244.802,237.468c0.033,0.014-0.063,0.305-0.265,0.819c-0.197,0.516-0.529,1.245-0.977,2.125
							c-0.894,1.762-2.335,4.105-4.272,6.427c-1.944,2.318-3.995,4.151-5.571,5.342c-0.787,0.597-1.446,1.052-1.919,1.337
							c-0.47,0.29-0.739,0.435-0.759,0.406c-0.047-0.07,0.946-0.775,2.448-2.031c1.503-1.253,3.485-3.102,5.402-5.389
							c1.911-2.291,3.38-4.567,4.348-6.268C244.207,238.536,244.725,237.433,244.802,237.468z"/>
					</g>
				</g>
			</g>
			<g>
				<g>
					<path style="fill:#FFBF9D;" d="M175.951,149.096l7.48,57.482l1.575,15.749c0,0,41.056,9.544,64.814-2.545
						c2.627-1.337,4.383-2.794,5.441-4.037c2.868-3.37,4.738-4.784,2.063-8.309l-7.37-11.659c0,0,8.442-18.595,4.899-33.556
						c-3.543-14.961-9.472-39.317-9.472-39.317l-19.618-3.09l-25.434-0.359l-20.644,2.575L175.951,149.096z"/>
				</g>
				<g>
					<path style="fill:#FF725E;" d="M255.53,165.056l-0.189-2.026l-10.435-17.336l-5.079-23.645l-3.034-0.499l4.976,23.854
						l-20.193,21.838l-25.473-21.156l-2.766-25.76l-3.114,0.235l3.207,26.059l-11.639,14.126l-4.421,4.318v2.618l3.632,21.803
						l71.458,1.623l1.619-6.571C255.648,178.17,256.138,171.585,255.53,165.056z"/>
				</g>
				<g>
					<g>
						<path style="fill:#FF9A6C;" d="M239.127,196.567c0.019,0.06-1.046,0.481-2.832,0.966c-1.784,0.487-4.299,1.001-7.114,1.262
							c-2.817,0.256-5.383,0.207-7.226,0.053c-1.844-0.152-2.969-0.372-2.961-0.435c0.009-0.08,1.146,0.01,2.981,0.067
							c1.835,0.059,4.372,0.049,7.158-0.204c2.785-0.258,5.281-0.71,7.075-1.102C238.002,196.786,239.103,196.49,239.127,196.567z"
							/>
					</g>
				</g>
				<g style="opacity:0.3;">
					<path d="M253.162,191.108l-2.382-17.545l-12.493-24.394l-3.486,3.77l10.079,29.888c-2.001-0.179-8.638-0.954-13.467-3.638
						c0,0,4.115,6.814,14.713,7.332l1.51,4.477L253.162,191.108z"/>
				</g>
				<g>
					<g>
						<path style="fill:#FF9A6C;" d="M248.036,181.379c-0.017,0.006-0.11-0.204-0.27-0.608c-0.175-0.457-0.4-1.046-0.679-1.777
							c-0.591-1.611-1.408-3.84-2.408-6.569c-2.005-5.616-4.738-13.276-7.758-21.738c-2.831-8.096-5.405-15.458-7.326-20.951
							l0.013,0.029c-1.508-2.854-2.714-5.204-3.079-7.017c-0.176-0.897-0.169-1.623-0.054-2.097c0.058-0.236,0.148-0.414,0.26-0.493
							c0.12-0.074,0.195-0.029,0.19-0.03c0,0.018-0.07,0-0.155,0.073c-0.082,0.077-0.15,0.245-0.188,0.473
							c-0.076,0.457-0.05,1.162,0.153,2.03c0.411,1.737,1.664,4.061,3.206,6.876l0.008,0.015l0.005,0.015
							c1.955,5.481,4.576,12.826,7.457,20.904c2.964,8.482,5.647,16.159,7.615,21.789c0.935,2.752,1.699,5,2.252,6.624
							c0.242,0.744,0.437,1.345,0.587,1.81C247.993,181.152,248.053,181.373,248.036,181.379z"/>
					</g>
				</g>
				<g>
					<g>
						<path style="fill:#263238;" d="M217.505,173.563c0.025,0.017-0.219,0.434-0.74,1.135c-0.518,0.702-1.347,1.666-2.505,2.721
							c-2.284,2.109-6.119,4.492-10.881,5.3c-4.765,0.803-9.17-0.188-12.02-1.43c-1.44-0.616-2.539-1.254-3.259-1.747
							c-0.722-0.491-1.089-0.805-1.072-0.829c0.058-0.095,1.595,1.105,4.47,2.234c2.84,1.135,7.15,2.04,11.795,1.258
							c4.642-0.787,8.416-3.058,10.725-5.063C216.362,175.132,217.419,173.493,217.505,173.563z"/>
					</g>
				</g>
				<g>
					<g>
						<path style="fill:#263238;" d="M248.03,182.751c0.003,0.036-0.325,0.088-0.924,0.15c-0.598,0.071-1.47,0.107-2.548,0.089
							c-2.153-0.028-5.144-0.398-8.282-1.425c-3.136-1.037-5.762-2.516-7.511-3.771c-0.877-0.626-1.558-1.172-1.997-1.584
							c-0.444-0.406-0.678-0.643-0.654-0.67c0.059-0.07,1.072,0.789,2.857,1.949c1.781,1.163,4.386,2.562,7.468,3.582
							c3.084,1.009,6.011,1.43,8.134,1.551C246.699,182.749,248.024,182.66,248.03,182.751z"/>
					</g>
				</g>
				<g style="opacity:0.3;">
					<path d="M188.923,152.638c-0.13,0.189-8.692,19.504-8.692,19.504s7.165,12.39,21.578,10.536
						c0.152-0.02,0.305-0.041,0.458-0.063c0,0-9.996,4.789-19.803-0.784l-1.948,4.729l-2.913-17.484L188.923,152.638z"/>
				</g>
				<g>
					<g>
						<path style="fill:#FF9A6C;" d="M221.311,167.54c-0.092-0.03,0.271-1.065,0.494-2.793c0.12-0.862,0.16-1.9,0.112-3.047
							c-0.073-1.145-0.25-2.398-0.59-3.679c-0.357-1.276-0.84-2.446-1.357-3.47c-0.54-1.012-1.101-1.887-1.641-2.569
							c-1.069-1.376-1.906-2.084-1.842-2.157c0.023-0.027,0.246,0.13,0.633,0.442c0.394,0.303,0.912,0.809,1.495,1.482
							c0.59,0.669,1.2,1.546,1.779,2.576c0.557,1.042,1.069,2.243,1.436,3.559c0.35,1.32,0.518,2.615,0.567,3.795
							c0.023,1.181-0.058,2.246-0.227,3.122c-0.161,0.876-0.351,1.574-0.536,2.035C221.458,167.303,221.345,167.552,221.311,167.54z
							"/>
					</g>
				</g>
			</g>
			<g>
				<g>
					<g>
						<g>
							<path style="fill:#FFBF9D;" d="M236.085,212.86c-1.904,0.895-4.159,1.015-6.147,0.326"/>
						</g>
						<g>
							<g>
								<path style="fill:#FF9A6C;" d="M229.938,213.186c0.05-0.147,1.398,0.273,3.091,0.171c1.695-0.078,2.991-0.638,3.056-0.497
									c0.076,0.109-1.206,0.929-3.029,1.017C231.235,213.982,229.873,213.302,229.938,213.186z"/>
							</g>
						</g>
					</g>
				</g>
				<g>
					<path style="fill:#FFBF9D;" d="M230.948,225.588c0,0-10.215-3.381-15.971-4.926c-7.055-1.894-6.931-4.847-6.21-7.553
						c0.722-2.705,5.146-2.028,8.864-3.853c2.324-1.14,2.782-2.649,2.81-3.59c0.012-0.419-0.409-0.722-0.804-0.582
						c-3.666,1.299-8.698-1.187-12.243-0.57c-3.776,0.657-12.874,4.542-12.874,4.542l-12.847-7.747l-6.577,12.649l8.986,7.135
						c3.332,2.892,14.618,12.169,15.796,12.656c1.364,0.564,6.643-0.054,8.797-0.338c0.458,0.164,0.897,0.318,1.292,0.45
						c9.907,3.302,9.291-1.596,9.291-1.596c8.384,0.515,6.764-3.418,6.764-3.418C234.497,228.813,230.948,225.588,230.948,225.588z"
						/>
				</g>
				<g>
					<g>
						<path style="fill:#FF9A6C;" d="M252.901,215.718c0.022,0.029-0.261,0.274-0.792,0.693c-0.527,0.425-1.328,0.991-2.352,1.637
							c-2.041,1.301-5.047,2.836-8.572,3.975c-3.527,1.139-6.86,1.653-9.273,1.821c-1.208,0.084-2.187,0.109-2.864,0.083
							c-0.676-0.018-1.049-0.046-1.049-0.081c0-0.089,1.492-0.108,3.879-0.368c2.384-0.261,5.664-0.825,9.147-1.95
							c3.482-1.125,6.471-2.586,8.543-3.794C251.644,216.529,252.847,215.645,252.901,215.718z"/>
					</g>
				</g>
				<g>
					<path style="fill:#FFBF9D;" d="M173.852,125.062c0,0-7.085,7.323-15.707,21.93c-10.443,17.692-26.609,40.914-21.49,52.332
						c5.118,11.418,47.171,22.216,48.352,23.003c1.181,0.787,5.118-15.749,5.118-15.749l-26.304-17.491l27.038-39.261
						c0,0,3.012-22.42-3.884-26.321C179.815,119.454,173.852,125.062,173.852,125.062z"/>
				</g>
				<g>
					<g>
						<path style="fill:#FF9A6C;" d="M181.674,201.309c0.004-0.006,0.081,0.032,0.229,0.114c0.167,0.094,0.383,0.217,0.656,0.371
							c0.598,0.35,1.443,0.844,2.531,1.48c2.228,1.324,5.446,3.237,9.51,5.651l-0.139-0.01c3.231-1.348,6.969-2.944,11.333-4.231
							c1.082-0.318,2.284-0.548,3.495-0.454c1.207,0.062,2.412,0.29,3.633,0.506c1.221,0.216,2.465,0.436,3.736,0.494
							c0.633,0.009,1.276,0.01,1.902-0.114c0.319-0.037,0.619-0.143,0.928-0.228c0.36-0.18,0.969-0.003,1.126,0.452
							c0.21,1.616-0.848,2.861-2.022,3.642c-1.211,0.778-2.594,1.219-3.99,1.557c-1.389,0.352-2.855,0.533-4.145,1.093
							c-0.635,0.286-1.17,0.744-1.383,1.38c-0.215,0.662-0.361,1.411-0.376,2.117c-0.064,1.451,0.819,2.759,2.095,3.531
							c1.243,0.825,2.719,1.326,4.209,1.738c3.032,0.823,6.084,1.764,9.176,2.734c2.312,0.745,4.598,1.482,6.854,2.209l0.056,0.018
							l0.037,0.036c0.274,0.268,0.49,0.554,0.654,0.903c0.165,0.333,0.239,0.794,0.056,1.183c-0.058,0.213-0.226,0.337-0.345,0.5
							c-0.15,0.114-0.305,0.228-0.461,0.328c-0.327,0.155-0.655,0.3-0.993,0.376c-1.343,0.355-2.687,0.384-4.009,0.417l0.235-0.353
							c0.3,0.821,0.116,1.767-0.471,2.383c-0.572,0.624-1.346,0.905-2.081,1.106c-1.5,0.36-3.003,0.339-4.464,0.273l0.261-0.278
							c0.112,1.228-0.764,2.358-1.844,2.684c-1.061,0.385-2.154,0.34-3.194,0.258c-2.079-0.259-4.023-0.883-5.868-1.549l0.107,0.011
							c-1.377,0.179-2.732,0.326-4.067,0.433c-1.336,0.093-2.645,0.187-3.954,0.063c-0.321-0.035-0.671-0.088-0.986-0.244
							c-0.317-0.161-0.557-0.343-0.828-0.516c-0.518-0.357-1.02-0.72-1.513-1.081c-0.975-0.735-1.927-1.452-2.854-2.15
							c-3.674-2.832-6.911-5.401-9.593-7.707l0.052,0.029c-4.119-1.339-7.387-2.402-9.653-3.139c-1.096-0.366-1.95-0.65-2.556-0.852
							c-0.272-0.095-0.486-0.17-0.654-0.229c-0.146-0.053-0.22-0.084-0.217-0.09c0.002-0.007,0.08,0.011,0.23,0.052
							c0.171,0.049,0.389,0.111,0.667,0.191c0.612,0.185,1.473,0.445,2.579,0.779c2.276,0.706,5.558,1.724,9.695,3.007l0.028,0.009
							l0.025,0.021c2.692,2.268,5.951,4.815,9.635,7.62c0.929,0.691,1.882,1.402,2.86,2.129c0.493,0.357,0.994,0.715,1.507,1.065
							c0.255,0.163,0.523,0.356,0.772,0.479c0.251,0.125,0.544,0.169,0.855,0.202c2.501,0.166,5.182-0.194,7.914-0.527l0.056-0.007
							l0.051,0.018c1.837,0.656,3.754,1.26,5.765,1.505c0.997,0.078,2.04,0.105,2.968-0.237c0.944-0.287,1.599-1.214,1.527-2.167
							l-0.022-0.291l0.283,0.012c1.431,0.063,2.905,0.073,4.307-0.267c0.684-0.185,1.378-0.454,1.831-0.958
							c0.467-0.478,0.594-1.233,0.375-1.848l-0.122-0.344l0.357-0.009c1.295-0.033,2.625-0.07,3.871-0.402
							c0.597-0.157,1.274-0.424,1.462-0.908c0.231-0.458-0.168-1.091-0.582-1.503l0.093,0.054c-2.254-0.726-4.538-1.461-6.848-2.205
							c-3.088-0.968-6.137-1.91-9.154-2.731c-1.52-0.423-3.031-0.931-4.358-1.811c-0.664-0.426-1.277-0.975-1.701-1.667
							c-0.431-0.686-0.636-1.508-0.615-2.296c0.023-0.796,0.167-1.533,0.409-2.279c0.263-0.792,0.953-1.361,1.647-1.664
							c1.415-0.605,2.868-0.766,4.24-1.115c1.371-0.326,2.713-0.758,3.842-1.48c0.556-0.367,1.05-0.818,1.391-1.36
							c0.171-0.27,0.301-0.562,0.383-0.865c0.039-0.152,0.073-0.305,0.088-0.461c0.012-0.077,0.012-0.156,0.018-0.233
							c0.001-0.057-0.007-0.104-0.025-0.152c-0.089-0.195-0.298-0.3-0.55-0.191c-0.332,0.092-0.659,0.203-0.997,0.242
							c-0.67,0.128-1.341,0.124-1.998,0.112c-1.314-0.065-2.573-0.296-3.794-0.517c-1.221-0.222-2.412-0.452-3.579-0.518
							c-1.169-0.095-2.28,0.111-3.368,0.422c-4.326,1.248-8.086,2.818-11.316,4.132l-0.074,0.03l-0.065-0.04
							c-4.032-2.467-7.225-4.421-9.436-5.773c-1.07-0.665-1.901-1.182-2.49-1.548c-0.264-0.169-0.473-0.303-0.635-0.407
							C181.741,201.366,181.671,201.315,181.674,201.309z"/>
					</g>
				</g>
				<g>
					<g>
						<path style="fill:#FFBF9D;" d="M208.654,215.744c-0.413-1.1-0.208-2.366,0.343-3.404c0.551-1.039,1.415-1.878,2.339-2.604
							c4.925-3.874,11.496-4.812,17.745-5.277c3.578-0.266,7.24-0.41,10.793,0"/>
					</g>
					<g>
						<g>
							<path style="fill:#FF9A6C;" d="M239.874,204.458c-0.005,0.039-0.517,0.006-1.441-0.034c-0.925-0.038-2.262-0.075-3.915-0.035
								c-1.653,0.038-3.619,0.154-5.8,0.339c-2.179,0.185-4.572,0.43-7.039,0.918c-2.465,0.486-4.768,1.188-6.72,2.133
								c-1.951,0.932-3.592,2.057-4.739,3.206c-1.161,1.151-1.629,2.448-1.677,3.349c-0.062,0.909,0.165,1.397,0.112,1.41
								c-0.012,0.005-0.084-0.106-0.16-0.343c-0.075-0.235-0.161-0.599-0.154-1.076c-0.017-0.945,0.432-2.36,1.612-3.594
								c1.163-1.231,2.809-2.403,4.798-3.385c1.985-0.991,4.331-1.72,6.828-2.212c2.499-0.495,4.913-0.727,7.103-0.886
								c2.19-0.16,4.17-0.238,5.834-0.229c1.664,0.008,3.009,0.101,3.934,0.202C239.372,204.325,239.877,204.426,239.874,204.458z"
								/>
						</g>
					</g>
				</g>
			</g>
			<g>
				<g>
					<g>
						<g>
							<g>
								<g>
									<path style="fill:#263238;" d="M244.425,104.081c0.065-3.093,1.417-5.989,2.586-8.854c1.169-2.865,2.191-5.976,1.567-9.006
										c-0.785-3.811-3.976-6.639-5.55-10.198c-1.58-3.575-1.434-7.634-1.491-11.542c-0.057-3.908-0.438-8.067-2.815-11.169
										c-3.007-3.925-11.495-5.17-15.712-2.587c-2.119,22.053-8.867,44.069-5.6,65.981c10.746,1.188,21.813-0.676,31.577-5.318
										C246.005,110.566,244.36,107.174,244.425,104.081z"/>
								</g>
							</g>
						</g>
					</g>
					<g>
						<g>
							<g>
								<g>
									<g>
										<g>
											<g>
												<path style="fill:#FFBF9D;" d="M199.242,114.137l-2.296-53.129c0.048-2.46,1.971-4.475,4.426-4.638l25.383-5.367
													c8.082-0.535,13.045,9.586,13.237,17.684c0.214,8.997,0.12,19.989-1.207,26.644
													c-2.666,13.381-13.054,14.69-13.054,14.69l0.702,10.03c0.219,3.124-0.706,6.221-2.603,8.713l0,0
													c-3.644,4.789-10.116,6.422-15.596,3.936l-0.721-0.327c-4.195-1.903-7.057-5.898-7.509-10.482L199.242,114.137z"/>
											</g>
										</g>
									</g>
								</g>
							</g>
						</g>
						<g>
							<g>
								<g>
									<g>
										<g>
											<g>
												<g>
													<g>
														<g>
															<g>
																<g>
																	<g>
																		<g>
																			<g>
																				<g>
																					<g>
																						<g>
																							<g>
																								<g>
																									<g>
																										<g>
																											<g>
																												<path style="fill:#263238;" d="M234.896,79.57c-0.003,0.913-0.78,1.663-1.734,1.677
																													c-0.952,0.014-1.722-0.713-1.719-1.627c0.004-0.913,0.78-1.664,1.732-1.678
																													C234.129,77.928,234.9,78.657,234.896,79.57z"/>
																											</g>
																										</g>
																									</g>
																								</g>
																							</g>
																						</g>
																					</g>
																				</g>
																			</g>
																		</g>
																	</g>
																</g>
															</g>
														</g>
													</g>
												</g>
											</g>
										</g>
										<g>
											<g>
												<g>
													<g>
														<g>
															<g>
																<g>
																	<g>
																		<g>
																			<g>
																				<g>
																					<g>
																						<g>
																							<g>
																								<g>
																									<g>
																										<g>
																											<g>
																												<g>
																													<path style="fill:#263238;" d="M237.203,73.614c-0.223,0.217-1.493-0.802-3.352-0.871
																														c-1.855-0.095-3.257,0.808-3.449,0.573c-0.095-0.105,0.139-0.503,0.75-0.912
																														c0.601-0.407,1.615-0.787,2.772-0.737c1.157,0.052,2.114,0.516,2.657,0.974
																														C237.134,73.103,237.312,73.518,237.203,73.614z"/>
																												</g>
																											</g>
																										</g>
																									</g>
																								</g>
																							</g>
																						</g>
																					</g>
																				</g>
																			</g>
																		</g>
																	</g>
																</g>
															</g>
														</g>
													</g>
												</g>
											</g>
										</g>
									</g>
									<g>
										<g>
											<g>
												<g>
													<g>
														<g>
															<g>
																<g>
																	<g>
																		<g>
																			<g>
																				<g>
																					<g>
																						<g>
																							<g>
																								<g>
																									<g>
																										<g>
																											<g>
																												<path style="fill:#263238;" d="M219.01,79.57c-0.003,0.913-0.78,1.663-1.734,1.677
																													c-0.951,0.014-1.722-0.713-1.719-1.627c0.003-0.913,0.78-1.664,1.732-1.678
																													C218.243,77.928,219.013,78.656,219.01,79.57z"/>
																											</g>
																										</g>
																									</g>
																								</g>
																							</g>
																						</g>
																					</g>
																				</g>
																			</g>
																		</g>
																	</g>
																</g>
															</g>
														</g>
													</g>
												</g>
											</g>
										</g>
										<g>
											<g>
												<g>
													<g>
														<g>
															<g>
																<g>
																	<g>
																		<g>
																			<g>
																				<g>
																					<g>
																						<g>
																							<g>
																								<g>
																									<g>
																										<g>
																											<g>
																												<g>
																													<path style="fill:#263238;" d="M219.977,74.168c-0.223,0.217-1.495-0.803-3.353-0.87
																														c-1.855-0.095-3.257,0.807-3.449,0.572c-0.095-0.105,0.137-0.503,0.75-0.911
																														c0.601-0.408,1.614-0.787,2.772-0.737c1.157,0.052,2.114,0.516,2.657,0.974
																														C219.907,73.656,220.086,74.071,219.977,74.168z"/>
																												</g>
																											</g>
																										</g>
																									</g>
																								</g>
																							</g>
																						</g>
																					</g>
																				</g>
																			</g>
																		</g>
																	</g>
																</g>
															</g>
														</g>
													</g>
												</g>
											</g>
										</g>
									</g>
									<g>
										<g>
											<g>
												<g>
													<g>
														<g>
															<g>
																<g>
																	<g>
																		<g>
																			<g>
																				<g>
																					<g>
																						<g>
																							<g>
																								<g>
																									<g>
																										<g>
																											<g>
																												<path style="fill:#263238;" d="M225.335,88.018c-0.004-0.106,1.159-0.26,3.04-0.426
																													c0.476-0.03,0.929-0.107,1.022-0.428c0.125-0.339-0.053-0.857-0.262-1.419
																													c-0.401-1.166-0.821-2.388-1.261-3.668c-1.747-5.221-2.992-9.506-2.781-9.575
																													c0.211-0.069,1.798,4.107,3.545,9.328c0.419,1.287,0.82,2.514,1.202,3.687
																													c0.159,0.546,0.443,1.17,0.173,1.872c-0.142,0.349-0.5,0.593-0.808,0.663
																													c-0.308,0.081-0.575,0.076-0.811,0.08C226.507,88.162,225.338,88.124,225.335,88.018z"/>
																											</g>
																										</g>
																									</g>
																								</g>
																							</g>
																						</g>
																					</g>
																				</g>
																			</g>
																		</g>
																	</g>
																</g>
															</g>
														</g>
													</g>
												</g>
											</g>
										</g>
									</g>
									<g>
										<g>
											<g>
												<g>
													<g>
														<g>
															<g>
																<g>
																	<g>
																		<g>
																			<g>
																				<g>
																					<g>
																						<g>
																							<g>
																								<g>
																									<g>
																										<g>
																											<path style="fill:#FF9A6C;" d="M225.756,110.059c0,0-9.082,0.229-17.845-5.518
																												c0,0,4.57,10.136,18.096,9.405L225.756,110.059z"/>
																										</g>
																									</g>
																								</g>
																							</g>
																						</g>
																					</g>
																				</g>
																			</g>
																		</g>
																	</g>
																</g>
															</g>
														</g>
													</g>
												</g>
											</g>
										</g>
									</g>
								</g>
							</g>
						</g>
						<g>
							<g>
								<g>
									<g>
										<g>
											<g>
												<g>
													<g>
														<g>
															<g>
																<g>
																	<g>
																		<g>
																			<g>
																				<g>
																					<g>
																						<g>
																							<g>
																								<path style="fill:#E0E0E0;" d="M220.253,66.355c-0.203,0.498-2.049,0.186-4.239,0.363
																									c-2.194,0.133-3.977,0.702-4.249,0.238c-0.12-0.222,0.205-0.685,0.935-1.146
																									c0.724-0.461,1.866-0.881,3.181-0.975c1.315-0.092,2.505,0.163,3.286,0.517
																									C219.954,65.706,220.341,66.118,220.253,66.355z"/>
																							</g>
																						</g>
																					</g>
																				</g>
																			</g>
																		</g>
																	</g>
																</g>
															</g>
														</g>
													</g>
												</g>
											</g>
										</g>
									</g>
								</g>
							</g>
						</g>
						<g>
							<g>
								<g>
									<g>
										<g>
											<g>
												<g>
													<g>
														<g>
															<g>
																<g>
																	<g>
																		<g>
																			<g>
																				<g>
																					<g>
																						<g>
																							<g>
																								<path style="fill:#263238;" d="M231.172,65.16c0.475-0.292,1.7,0.558,3.327,1.098
																									c1.61,0.591,3.103,0.69,3.287,1.212c0.075,0.249-0.272,0.582-0.997,0.771
																									c-0.716,0.19-1.811,0.183-2.924-0.205c-1.112-0.389-1.968-1.063-2.405-1.656
																									C231.014,65.783,230.956,65.308,231.172,65.16z"/>
																							</g>
																						</g>
																					</g>
																				</g>
																			</g>
																		</g>
																	</g>
																</g>
															</g>
														</g>
													</g>
												</g>
											</g>
										</g>
									</g>
								</g>
							</g>
						</g>
					</g>
					<g>
						<g>
							<g>
								<g>
									<path style="fill:#263238;" d="M229.774,50.896c-1.909-6.026-6.869-6.879-12.179-7.849
										c-5.31-0.97-13.415,0.842-18.044,3.619c-3.611,2.166-7.699,4.94-10.406,8.165c-2.596,3.093-3.91,6.743-5.632,10.394
										c-2.683,5.688-2.979,12.156-3.725,18.4c-0.938,7.843-2.656,15.592-5.123,23.096c-0.884,2.689-1.82,5.916,1.719,7.737
										c0.654,0.336,1.364,0.547,2.085,0.69c5.618,1.112,10.958,3.433,17.224,4.286l3.889,0.253
										c4.923,0.333,7.667-2.861,7.788-7.144c0.367-12.933-4.121-34.521-4.496-38.629
										C202.873,73.914,202.762,45.23,229.774,50.896z"/>
								</g>
							</g>
						</g>
					</g>
					<g>
						<g>
							<g>
								<g>
									<path style="fill:#263238;" d="M227.982,50.903c-1.829,1.114-2.776,3.259-3.205,5.357c-0.43,2.098-0.454,4.271-0.991,6.344
										c-1.075,4.146-4.304,7.67-8.342,9.101c-1.286,0.456-3.019,0.558-3.714-0.615c-0.05,2.974-2.141,5.805-4.969,6.726
										c-2.044,0.666-4.269,0.388-6.394,0.713c-2.126,0.324-4.423,1.619-4.676,3.754l0.129-14.98l5.087-12.91l13.419-6.804
										L227.982,50.903z"/>
								</g>
							</g>
						</g>
					</g>
					<g>
						<g>
							<g>
								<g>
									<g>
										<path style="fill:#455A64;" d="M203.461,73.954c-0.018-0.031,0.526-0.243,1.299-0.915
											c0.763-0.678,1.662-1.898,2.288-3.623c0.644-1.718,0.995-3.888,1.33-6.295c0.344-2.405,0.631-5.086,1.443-7.799
											c0.814-2.699,2.161-5.147,3.993-6.809c0.91-0.826,1.916-1.469,2.955-1.832c1.031-0.376,2.054-0.529,2.984-0.526
											c1.874,0.006,3.319,0.661,4.138,1.284c0.216,0.145,0.382,0.306,0.528,0.443c0.151,0.13,0.263,0.257,0.347,0.365
											c0.174,0.209,0.262,0.321,0.255,0.327c-0.029,0.028-0.354-0.459-1.188-1.053c-0.823-0.587-2.246-1.2-4.079-1.183
											c-1.812,0.005-4.024,0.668-5.78,2.351c-1.782,1.634-3.103,4.041-3.907,6.709c-0.803,2.68-1.097,5.351-1.455,7.757
											c-0.348,2.407-0.72,4.592-1.395,6.326c-0.655,1.739-1.596,2.969-2.392,3.634
											C204.019,73.774,203.461,73.954,203.461,73.954z"/>
									</g>
								</g>
							</g>
						</g>
					</g>
					<g>
						<g>
							<g>
								<g>
									<g>
										<path style="fill:#455A64;" d="M192.376,71.396c-0.007-0.048,0.752,0.058,2.005-0.357
											c1.245-0.417,2.878-1.509,4.361-3.342c0.736-0.915,1.48-1.98,2.118-3.204c0.645-1.22,1.052-2.653,1.343-4.18
											c0.291-1.531,0.467-3.163,0.761-4.845c0.152-0.84,0.328-1.694,0.584-2.542c0.258-0.847,0.599-1.685,1.024-2.491
											c1.745-3.22,4.691-5.473,7.68-6.458c3.01-1.021,5.99-0.74,8.232,0.001c2.276,0.733,3.873,1.89,4.856,2.77
											c0.984,0.894,1.402,1.503,1.402,1.503c-0.003,0.003-0.037-0.028-0.099-0.092c-0.071-0.076-0.161-0.17-0.272-0.288
											c-0.117-0.128-0.262-0.287-0.45-0.458c-0.186-0.173-0.388-0.385-0.647-0.59c-0.995-0.85-2.592-1.971-4.845-2.672
											c-2.222-0.709-5.152-0.964-8.102,0.05c-2.93,0.979-5.819,3.2-7.529,6.356c-0.417,0.79-0.75,1.609-1.005,2.443
											c-0.253,0.835-0.428,1.679-0.581,2.513c-0.295,1.67-0.477,3.304-0.776,4.846c-0.299,1.539-0.721,2.993-1.386,4.234
											c-0.656,1.238-1.413,2.303-2.167,3.221c-1.517,1.838-3.195,2.927-4.469,3.321c-0.639,0.192-1.155,0.261-1.504,0.272
											c-0.162,0-0.293-0.001-0.398-0.001C192.421,71.403,192.376,71.4,192.376,71.396z"/>
									</g>
								</g>
							</g>
						</g>
					</g>
					<g>
						<g>
							<g>
								<g>
									<g>
										<path style="fill:#455A64;" d="M211.73,71.09c0.004,0-0.001,0.043-0.013,0.126c-0.016,0.095-0.036,0.217-0.061,0.368
											c-0.032,0.161-0.056,0.365-0.115,0.599c-0.065,0.236-0.139,0.505-0.222,0.806c-0.216,0.59-0.484,1.327-1.001,2.074
											c-0.499,0.752-1.218,1.529-2.191,2.149c-1.938,1.281-4.815,1.743-7.87,1.39c-1.534-0.172-3.134-0.524-4.742-1.069
											c-1.605-0.547-3.244-1.258-4.759-2.298l-0.294-0.202l0.357-0.027c1.903-0.144,3.86-0.588,5.735-1.359l0.098-0.04
											l0.062,0.246c-4.277,0.411-8.403-0.818-11.482-2.872l-0.223-0.149l0.259-0.065c2.746-0.689,5.209-1.696,7.132-3.023
											c1.928-1.321,3.237-2.991,3.92-4.542c0.698-1.563,0.767-2.943,0.855-3.854c-0.004-0.45-0.007-0.802-0.009-1.058
											c0.001-0.111,0.002-0.2,0.003-0.273c0.001-0.061,0.004-0.093,0.007-0.093c0.003,0,0.008,0.03,0.012,0.092
											c0.005,0.073,0.01,0.162,0.017,0.273c0.011,0.257,0.027,0.611,0.046,1.063c-0.064,0.918-0.109,2.314-0.799,3.909
											c-0.674,1.583-1.993,3.297-3.939,4.648c-1.941,1.359-4.424,2.386-7.187,3.09l0.036-0.214
											c3.043,2.015,7.114,3.219,11.326,2.814l0.876-0.084l-0.814,0.33l-0.1,0.04c-1.901,0.782-3.885,1.231-5.814,1.373
											l0.063-0.229c1.482,1.021,3.104,1.732,4.691,2.277c1.591,0.545,3.174,0.899,4.69,1.077
											c3.021,0.364,5.85-0.074,7.757-1.309c0.958-0.598,1.67-1.35,2.172-2.083c0.519-0.728,0.796-1.451,1.023-2.03
											c0.09-0.297,0.171-0.562,0.241-0.794c0.066-0.231,0.097-0.432,0.136-0.591c0.034-0.15,0.062-0.269,0.083-0.363
											C211.714,71.131,211.726,71.089,211.73,71.09z"/>
									</g>
								</g>
							</g>
						</g>
					</g>
					<g>
						<g>
							<g>
								<g>
									<g>
										<path style="fill:#455A64;" d="M181.38,110.028c-0.07-0.013,1.263-7.591,2.976-16.924
											c1.714-9.336,3.159-16.892,3.229-16.879c0.07,0.013-1.263,7.589-2.977,16.925
											C182.895,102.484,181.449,110.041,181.38,110.028z"/>
									</g>
								</g>
							</g>
						</g>
					</g>
					<g>
						<g>
							<g>
								<g>
									<g>
										<path style="fill:#455A64;" d="M188.865,112.399c-0.009,0-0.017-0.112-0.024-0.324c-0.005-0.239-0.011-0.547-0.018-0.929
											c-0.012-0.806-0.01-1.974,0.01-3.416c0.038-2.884,0.174-6.869,0.482-11.26c0.311-4.393,0.736-8.357,1.103-11.219
											c0.183-1.431,0.344-2.587,0.469-3.384c0.061-0.377,0.11-0.681,0.148-0.917c0.037-0.209,0.06-0.319,0.069-0.317
											c0.009,0.001,0.002,0.113-0.018,0.324c-0.026,0.237-0.059,0.544-0.1,0.923c-0.095,0.832-0.227,1.983-0.388,3.392
											c-0.32,2.865-0.716,6.827-1.027,11.215c-0.308,4.386-0.472,8.365-0.557,11.246c-0.038,1.417-0.069,2.576-0.092,3.413
											c-0.013,0.382-0.023,0.689-0.03,0.928C188.884,112.287,188.874,112.398,188.865,112.399z"/>
									</g>
								</g>
							</g>
						</g>
					</g>
				</g>
				<g>
					<g>
						<path style="fill:#FF9A6C;" d="M226.675,91.753c-0.233-0.297-0.535-0.53-0.864-0.714l0.057,0.015
							c-1.397-0.959-2.397-0.604-2.942-0.305c-0.545,0.299-0.924,0.84-1.156,1.417c-0.244,0.607-0.342,1.3-0.122,1.917
							c0.211,0.589,0.697,1.054,1.258,1.331c0.561,0.277,1.193,0.381,1.819,0.405c0.592,0.023,1.221-0.035,1.703-0.38
							c0.389-0.278,0.639-0.72,0.762-1.182C227.417,93.404,227.22,92.448,226.675,91.753z"/>
					</g>
				</g>
			</g>
			<g>
				<g>
					<g>
						<g>
							<g>
								<path style="fill:#FFBF9D;" d="M226.623,120.936c0,0,0.762-2.873,1.994-4.529c1.231-1.657,3.994-6.707,3.994-6.707
									l0.169-2.206c0,0-4.259-8.524-2.368-11.646l1.041-0.323c0,0-1.68-2.277,0.043-4.059l1.562,0.079l6.37,9.359l-3.768-9.689
									c0,0,0.091-2.4,1.742-2.816l6.826,10.783c0,0-2.412-4.815-2.185-5.966c0.227-1.151,0.11-2.309,1.466-3.152l3.65,6.626
									l0.478,11.138l-7.153,13.208"/>
							</g>
						</g>
						<g>
							<g>
								<g>
									<path style="fill:#FF9A6C;" d="M240.484,121.036c-0.009-0.005,0.025-0.087,0.099-0.244c0.092-0.186,0.204-0.413,0.341-0.69
										c0.334-0.645,0.79-1.524,1.367-2.638c1.236-2.331,2.99-5.636,5.164-9.734l-0.025,0.107
										c-0.156-3.276-0.333-7.024-0.529-11.136l0.032,0.114c-1.16-2.09-2.389-4.305-3.67-6.614l0.394,0.103
										c-0.639,0.38-1.023,0.993-1.141,1.766c-0.063,0.402-0.126,0.807-0.189,1.215c-0.029,0.282,0.073,0.713,0.189,1.09
										c0.489,1.557,1.224,3.121,1.98,4.675l-0.522,0.295c-2.177-3.433-4.473-7.053-6.834-10.778l0.337,0.134
										c-0.383,0.1-0.739,0.365-0.98,0.754c-0.323,0.506-0.483,1.168-0.528,1.774l-0.021-0.124
										c1.288,3.319,2.546,6.559,3.761,9.692l0.966,2.489l-1.498-2.209c-2.218-3.271-4.345-6.409-6.353-9.37l0.219,0.123
										c-0.533-0.028-1.05-0.056-1.562-0.083l0.214-0.085c-0.485,0.503-0.741,1.158-0.699,1.831
										c0.041,0.665,0.309,1.34,0.67,1.877l0.206,0.307l-0.341,0.105c-0.361,0.111-0.703,0.215-1.042,0.319l0.146-0.114
										c-0.507,0.917-0.491,2.064-0.384,3.103c0.115,1.057,0.383,2.07,0.661,3.039c0.58,1.935,1.307,3.7,2.052,5.276l0.026,0.054
										l-0.005,0.054c-0.066,0.803-0.125,1.517-0.182,2.205l-0.003,0.043l-0.02,0.035c-0.987,1.764-1.897,3.328-2.727,4.674
										c-0.796,1.375-1.706,2.391-2.162,3.369c-0.486,0.971-0.773,1.762-0.967,2.293c-0.192,0.533-0.282,0.813-0.3,0.808
										c-0.009-0.002,0.001-0.076,0.033-0.217c0.032-0.142,0.085-0.351,0.166-0.624c0.163-0.545,0.419-1.351,0.883-2.351
										c0.447-1.027,1.332-2.062,2.091-3.434c0.8-1.354,1.685-2.931,2.646-4.703l-0.023,0.078
										c0.048-0.689,0.098-1.403,0.155-2.207l0.021,0.108c-0.778-1.596-1.526-3.359-2.135-5.324
										c-0.292-0.985-0.575-2.015-0.705-3.117c-0.111-1.087-0.175-2.302,0.432-3.433l0.044-0.083l0.102-0.032
										c0.338-0.106,0.679-0.213,1.039-0.326l-0.135,0.411c-0.434-0.64-0.725-1.356-0.786-2.162
										c-0.061-0.805,0.264-1.654,0.843-2.248l0.088-0.091l0.126,0.006c0.512,0.025,1.029,0.05,1.562,0.076l0.14,0.007
										l0.079,0.117c2.019,2.955,4.157,6.085,6.386,9.348l-0.532,0.28c-1.22-3.131-2.482-6.37-3.774-9.687l-0.026-0.065
										l0.005-0.059c0.057-0.731,0.221-1.432,0.625-2.083c0.297-0.488,0.809-0.889,1.351-1.021l0.218-0.053l0.119,0.188
										c2.356,3.728,4.647,7.352,6.818,10.788l-0.522,0.295c-0.765-1.586-1.493-3.138-2.002-4.778
										c-0.114-0.421-0.251-0.812-0.199-1.358c0.065-0.409,0.13-0.814,0.195-1.218c0.112-0.848,0.655-1.72,1.408-2.137l0.26-0.144
										l0.135,0.247c1.267,2.317,2.483,4.539,3.631,6.636l0.03,0.054l0.002,0.06c0.158,4.114,0.301,7.863,0.427,11.14l0.002,0.059
										l-0.027,0.049c-2.244,4.06-4.054,7.335-5.33,9.644c-0.617,1.092-1.105,1.954-1.462,2.586
										c-0.158,0.266-0.286,0.484-0.392,0.663C240.544,120.968,240.493,121.041,240.484,121.036z"/>
								</g>
							</g>
						</g>
					</g>
					<g>
						<g>
							<g>
								<path style="fill:#FF9A6C;" d="M237.13,109.368c-0.04-0.031,0.08-0.213,0.147-0.577c0.064-0.366,0.052-0.912-0.065-1.59
									c-0.07-0.364-0.14-0.734-0.213-1.114c-0.042-0.207-0.084-0.416-0.126-0.627c-0.055-0.203-0.102-0.367-0.204-0.58
									c-0.367-0.814-0.877-1.699-1.404-2.62c-2.153-3.678-3.965-6.637-3.813-6.735c0.135-0.088,2.18,2.719,4.349,6.425
									c0.534,0.934,1.03,1.824,1.396,2.713c0.094,0.207,0.168,0.482,0.213,0.704c0.032,0.212,0.064,0.422,0.095,0.63
									c0.061,0.409,0.113,0.794,0.142,1.15c0.066,0.71,0.012,1.316-0.138,1.707C237.355,109.249,237.154,109.393,237.13,109.368z"
									/>
							</g>
						</g>
					</g>
					<g>
						<g>
							<g>
								<path style="fill:#FF9A6C;" d="M241.429,108.385c-0.087-0.042,0.088-0.476,0.143-1.192c0.063-0.712-0.044-1.714-0.448-2.735
									c-0.407-1.024-0.967-1.885-1.357-2.522c-0.395-0.635-0.623-1.05-0.553-1.103c0.067-0.05,0.415,0.267,0.907,0.846
									c0.485,0.58,1.134,1.437,1.579,2.553c0.445,1.119,0.492,2.258,0.304,3.028C241.824,108.038,241.491,108.423,241.429,108.385
									z"/>
							</g>
						</g>
					</g>
					<g>
						<g>
							<g>
								<path style="fill:#FF9A6C;" d="M245.355,106.388c-0.179,0.001-0.311-1.618-0.685-3.569c-0.364-1.954-0.831-3.51-0.664-3.573
									c0.15-0.064,0.896,1.44,1.273,3.459C245.664,104.72,245.518,106.392,245.355,106.388z"/>
							</g>
						</g>
					</g>
				</g>
				<g>
					<path style="fill:#FFBF9D;" d="M245.381,122.902c0,0,6.447,2.817,10.402,8.844c3.955,6.028,15.95,29.587,19.318,38.984
						c3.368,9.396,2.833,18.635-2.364,22.713c-5.198,4.078-17.887,3.124-22.709-6.628c-2.235-4.519-23.593-66.765-23.593-66.765
						l13.646-2.896l1.144,5.194L245.381,122.902z"/>
				</g>
				<g>
					<g>
						<path style="fill:#FF9A6C;" d="M271.221,178.691c-0.064-0.006,0.214-0.903-0.001-2.515c-0.201-1.614-1.112-3.815-2.65-6.29
							c-3.082-4.971-7.177-11.949-11.547-19.732c-4.363-7.757-8.311-14.776-11.206-19.924c-1.432-2.495-2.601-4.534-3.447-6.008
							c-0.382-0.674-0.69-1.217-0.929-1.639c-0.207-0.378-0.309-0.581-0.294-0.59c0.015-0.009,0.147,0.175,0.383,0.536
							c0.261,0.409,0.596,0.936,1.013,1.589c0.868,1.387,2.101,3.409,3.591,5.927c2.991,5.031,6.967,12.071,11.342,19.854
							c4.37,7.783,8.407,14.777,11.41,19.8c1.508,2.514,2.393,4.793,2.535,6.454c0.087,0.825,0.017,1.47-0.039,1.898
							C271.296,178.476,271.237,178.695,271.221,178.691z"/>
					</g>
				</g>
			</g>
			<g>
				<g>
					<path style="fill:#263238;" d="M227.955,93.728c-0.163,0.25-1.755-0.634-3.861-0.417c-2.112,0.154-3.525,1.302-3.729,1.084
						c-0.093-0.092,0.14-0.538,0.764-1.034c0.616-0.495,1.653-0.979,2.874-1.088c1.22-0.105,2.326,0.19,3.019,0.57
						C227.723,93.222,228.03,93.621,227.955,93.728z"/>
				</g>
			</g>
		</g>
	</g>
</g>
<g id="Speech_Bubble">
	<g>
		<g>
			<g>
				<g>
					<g>
						<g>
							<g>
								<g>
									<g>
										<g>
											<g>
												<polygon style="fill:#FFFFFF;" points="294.298,51.949 282.918,40.166 280.091,58.804 264.845,58.288 274.385,70.816 
													264.786,83.414 280.683,80.28 282.98,96.274 295.832,86.539 312.039,95.024 308.491,78.651 326.879,75.757 
													312.577,67.317 320.914,52.938 306.623,58.526 304.885,40.79 												"/>
											</g>
										</g>
										<g>
											<g>
												<g>
													<path style="fill:#263238;" d="M294.298,51.949c0,0,0.236-0.27,0.695-0.766c0.47-0.505,1.148-1.233,2.033-2.184
														c1.791-1.91,4.409-4.703,7.772-8.291l0.179-0.191l0.026,0.261c0.486,4.816,1.09,10.808,1.788,17.731l-0.23-0.141
														c4.283-1.684,9.104-3.58,14.281-5.615l0.527-0.207l-0.284,0.491c-2.571,4.448-5.37,9.291-8.317,14.391l-0.079-0.3
														c4.554,2.682,9.342,5.501,14.309,8.426l0.568,0.335l-0.652,0.103c-5.864,0.927-12.032,1.902-18.386,2.906l0.204-0.298
														c1.132,5.217,2.331,10.739,3.553,16.372l0.116,0.532l-0.483-0.253c-4.489-2.35-9.231-4.832-14.04-7.35
														c-0.724-0.379-1.446-0.757-2.167-1.135l0.274-0.023c-4.356,3.299-8.647,6.548-12.853,9.733l-0.344,0.26l-0.061-0.427
														c-0.781-5.454-1.546-10.793-2.291-15.995l0.293,0.208c-5.466,1.074-10.771,2.116-15.899,3.124l-0.614,0.12l0.379-0.497
														c3.333-4.366,6.542-8.568,9.612-12.588v0.269c-3.363-4.429-6.536-8.607-9.523-12.541l-0.256-0.338l0.423,0.015
														c5.534,0.197,10.595,0.378,15.244,0.544l-0.177,0.147c1.133-7.332,2.097-13.571,2.879-18.63l0.038-0.244l0.17,0.178
														c3.656,3.829,6.471,6.778,8.387,8.784c0.947,0.999,1.669,1.76,2.168,2.286
														C294.049,51.669,294.298,51.949,294.298,51.949s-0.249-0.236-0.74-0.732c-0.504-0.512-1.233-1.253-2.19-2.226
														c-1.95-1.996-4.816-4.931-8.537-8.74l0.208-0.066c-0.754,5.063-1.684,11.307-2.777,18.646l-0.023,0.152l-0.155-0.005
														c-4.65-0.149-9.712-0.311-15.246-0.489l0.167-0.322c2.998,3.926,6.182,8.096,9.556,12.515l0.103,0.134l-0.103,0.135
														c-3.062,4.026-6.262,8.235-9.587,12.607l-0.234-0.376c5.127-1.014,10.43-2.063,15.895-3.144l0.256-0.051l0.037,0.258
														c0.749,5.201,1.518,10.54,2.304,15.994l-0.405-0.166c4.205-3.186,8.495-6.437,12.85-9.737l0.13-0.098l0.144,0.076
														c0.721,0.377,1.443,0.756,2.167,1.135c4.809,2.519,9.55,5.002,14.039,7.353l-0.367,0.28
														c-1.219-5.634-2.413-11.156-3.542-16.374l-0.056-0.258l0.26-0.041c6.355-0.996,12.523-1.963,18.389-2.883l-0.083,0.438
														c-4.962-2.935-9.744-5.763-14.293-8.454l-0.189-0.112l0.11-0.189c2.961-5.091,5.774-9.927,8.357-14.368l0.243,0.283
														c-5.185,2.016-10.013,3.894-14.302,5.562l-0.209,0.081l-0.021-0.222c-0.659-6.927-1.23-12.922-1.689-17.741l0.205,0.07
														c-3.427,3.569-6.095,6.348-7.919,8.249c-0.894,0.925-1.58,1.634-2.055,2.125
														C294.534,51.721,294.298,51.949,294.298,51.949z"/>
												</g>
											</g>
										</g>
									</g>
								</g>
							</g>
						</g>
					</g>
				</g>
			</g>
			<g>
				<g>
					<g>
						<g>
							<g>
								<path style="fill:#FFFFFF;" d="M263.779,71.618c0,1.876-1.521,3.397-3.398,3.397s-3.397-1.521-3.397-3.397
									c0-1.876,1.521-3.397,3.397-3.397S263.779,69.741,263.779,71.618z"/>
							</g>
						</g>
						<g>
							<g>
								<g>
									<path style="fill:#263238;" d="M263.779,71.618c-0.046,0.002-0.051-0.302-0.203-0.805c-0.15-0.494-0.501-1.209-1.249-1.751
										c-0.723-0.544-1.896-0.84-3.022-0.412c-1.117,0.393-2.076,1.582-2.064,2.968c-0.013,1.386,0.947,2.576,2.064,2.969
										c1.127,0.427,2.3,0.132,3.022-0.413c0.747-0.542,1.098-1.257,1.249-1.751C263.728,71.92,263.733,71.616,263.779,71.618
										c0.024-0.002,0.09,0.304-0.009,0.854c-0.098,0.538-0.421,1.347-1.222,1.991c-0.773,0.644-2.097,1.033-3.404,0.568
										c-1.295-0.423-2.432-1.799-2.416-3.414c-0.015-1.615,1.121-2.99,2.416-3.413c1.307-0.465,2.63-0.076,3.404,0.568
										c0.801,0.644,1.124,1.453,1.223,1.991C263.869,71.313,263.803,71.619,263.779,71.618z"/>
								</g>
							</g>
						</g>
					</g>
				</g>
			</g>
		</g>
		<g>
			<g>
				<g>
					<path style="fill:#263238;" d="M295.981,59.263l-0.688,10.867c-0.056,0.889-0.766,1.596-1.655,1.649l0,0
						c-0.938,0.056-1.754-0.633-1.858-1.567l-1.206-10.922c-0.091-0.827,0.563-1.547,1.395-1.535l2.651,0.037
						C295.41,57.803,296.031,58.473,295.981,59.263z"/>
				</g>
			</g>
			<g>
				<g>
					<path style="fill:#263238;" d="M290.758,77.891c0.462,1.39,1.963,2.143,3.353,1.681c1.39-0.462,2.143-1.963,1.682-3.353
						c-0.461-1.39-1.963-2.143-3.353-1.682C291.049,75,290.296,76.501,290.758,77.891z"/>
				</g>
			</g>
		</g>
	</g>
</g>
</svg>
